<svg version="1.2" xmlns="http://www.w3.org/2000/svg" viewBox="0 0 1142 758" width="1142" height="758">
	<title>25225755_7016008-ai</title>
	<defs>
		<linearGradient id="g1" x1="281.4" y1="762.4" x2="281.4" y2="-111.6" gradientUnits="userSpaceOnUse">
			<stop offset="0" stop-color="#dfedf2"/>
			<stop offset="1" stop-color="#e8f8ff"/>
		</linearGradient>
		<linearGradient id="g2" x1="168.9" y1="765.1" x2="168.9" y2="-108.9" gradientUnits="userSpaceOnUse">
			<stop offset="0" stop-color="#dfedf2"/>
			<stop offset="1" stop-color="#e8f8ff"/>
		</linearGradient>
		<linearGradient id="g3" x1="1096.7" y1="765.1" x2="1096.7" y2="-108.9" gradientUnits="userSpaceOnUse">
			<stop offset="0" stop-color="#dfedf2"/>
			<stop offset="1" stop-color="#e8f8ff"/>
		</linearGradient>
		<linearGradient id="g4" x1="806.4" y1="759.3" x2="806.4" y2="-17.2" gradientUnits="userSpaceOnUse">
			<stop offset="0" stop-color="#dfedf2"/>
			<stop offset="1" stop-color="#e8f8ff"/>
		</linearGradient>
		<linearGradient id="g5" x1="6.9" y1="781.9" x2="6.9" y2="-504" gradientUnits="userSpaceOnUse">
			<stop offset="0" stop-color="#dfedf2"/>
			<stop offset="1" stop-color="#e8f8ff"/>
		</linearGradient>
		<linearGradient id="g6" x1="291.4" y1="667.5" x2="283.4" y2="420.5" gradientUnits="userSpaceOnUse">
			<stop offset="0" stop-color="#b6dff6"/>
			<stop offset="1" stop-color="#ddeaf7"/>
		</linearGradient>
		<linearGradient id="g7" x1="611.2" y1="548.7" x2="652.3" y2="548.7" gradientUnits="userSpaceOnUse">
			<stop offset="0" stop-color="#b6dff6"/>
			<stop offset="1" stop-color="#ddeaf7"/>
		</linearGradient>
		<linearGradient id="g8" x1="510.1" y1="71.4" x2="560.8" y2="142.9" gradientUnits="userSpaceOnUse">
			<stop offset="0" stop-color="#71d2f9"/>
			<stop offset="1" stop-color="#51b9f8"/>
		</linearGradient>
		<linearGradient id="g9" x1="482.7" y1="75" x2="534.5" y2="148" gradientUnits="userSpaceOnUse">
			<stop offset="0" stop-color="#71d2f9"/>
			<stop offset="1" stop-color="#51b9f8"/>
		</linearGradient>
		<linearGradient id="g10" x1="905.1" y1="288.7" x2="930.4" y2="324.4" gradientUnits="userSpaceOnUse">
			<stop offset="0" stop-color="#71d2f9"/>
			<stop offset="1" stop-color="#51b9f8"/>
		</linearGradient>
		<linearGradient id="g11" x1="891.4" y1="290.5" x2="917.3" y2="327" gradientUnits="userSpaceOnUse">
			<stop offset="0" stop-color="#71d2f9"/>
			<stop offset="1" stop-color="#51b9f8"/>
		</linearGradient>
		<linearGradient id="g12" x1="111.4" y1="494.5" x2="53.6" y2="403.4" gradientUnits="userSpaceOnUse">
			<stop offset="0" stop-color="#dfedf2"/>
			<stop offset="1" stop-color="#e8f8ff"/>
		</linearGradient>
		<linearGradient id="g13" x1="108.7" y1="498" x2="42.8" y2="394.2" gradientUnits="userSpaceOnUse">
			<stop offset="0" stop-color="#dfedf2"/>
			<stop offset="1" stop-color="#e8f8ff"/>
		</linearGradient>
		<linearGradient id="g14" x1="782.2" y1="756.1" x2="782.2" y2="376.7" gradientUnits="userSpaceOnUse">
			<stop offset="0" stop-color="#256aba"/>
			<stop offset="1" stop-color="#5ca5f7"/>
		</linearGradient>
		<linearGradient id="g15" x1="659.3" y1="677" x2="718.9" y2="737.4" gradientUnits="userSpaceOnUse">
			<stop offset="0" stop-color="#71d2f9"/>
			<stop offset="1" stop-color="#51b9f8"/>
		</linearGradient>
		<linearGradient id="g16" x1="674.8" y1="660" x2="734.4" y2="720.4" gradientUnits="userSpaceOnUse">
			<stop offset="0" stop-color="#71d2f9"/>
			<stop offset="1" stop-color="#51b9f8"/>
		</linearGradient>
		<linearGradient id="g17" x1="938.4" y1="725.8" x2="702.5" y2="725.8" gradientUnits="userSpaceOnUse">
			<stop offset="0" stop-color="#cbe1f2"/>
			<stop offset="1" stop-color="#aed2ed"/>
		</linearGradient>
		<linearGradient id="g18" x1="938.4" y1="720.7" x2="702.5" y2="720.7" gradientUnits="userSpaceOnUse">
			<stop offset="0" stop-color="#cbe1f2"/>
			<stop offset="1" stop-color="#aed2ed"/>
		</linearGradient>
		<linearGradient id="g19" x1="969.8" y1="705.8" x2="969.8" y2="727.1" gradientUnits="userSpaceOnUse">
			<stop offset="0" stop-color="#71d2f9"/>
			<stop offset="1" stop-color="#51b9f8"/>
		</linearGradient>
		<linearGradient id="g20" x1="782.2" y1="756.1" x2="782.2" y2="376.7" gradientUnits="userSpaceOnUse">
			<stop offset="0" stop-color="#256aba"/>
			<stop offset="1" stop-color="#5ca5f7"/>
		</linearGradient>
		<linearGradient id="g21" x1="652.4" y1="692.5" x2="610.4" y2="631.7" gradientUnits="userSpaceOnUse">
			<stop offset="0" stop-color="#cbe1f2"/>
			<stop offset="1" stop-color="#aed2ed"/>
		</linearGradient>
		<linearGradient id="g22" x1="880.3" y1="630.6" x2="880.3" y2="656.2" gradientUnits="userSpaceOnUse">
			<stop offset="0" stop-color="#71d2f9"/>
			<stop offset="1" stop-color="#51b9f8"/>
		</linearGradient>
		<linearGradient id="g23" x1="969.8" y1="634.8" x2="969.8" y2="656.1" gradientUnits="userSpaceOnUse">
			<stop offset="0" stop-color="#71d2f9"/>
			<stop offset="1" stop-color="#51b9f8"/>
		</linearGradient>
		<linearGradient id="g24" x1="782.2" y1="756.1" x2="782.2" y2="376.7" gradientUnits="userSpaceOnUse">
			<stop offset="0" stop-color="#256aba"/>
			<stop offset="1" stop-color="#5ca5f7"/>
		</linearGradient>
		<linearGradient id="g25" x1="641.6" y1="557.1" x2="721.5" y2="557.1" gradientUnits="userSpaceOnUse">
			<stop offset="0" stop-color="#cbe1f2"/>
			<stop offset="1" stop-color="#aed2ed"/>
		</linearGradient>
		<linearGradient id="g26" x1="676.3" y1="557.1" x2="701.7" y2="557.1" gradientUnits="userSpaceOnUse">
			<stop offset="0" stop-color="#71d2f9"/>
			<stop offset="1" stop-color="#51b9f8"/>
		</linearGradient>
		<linearGradient id="g27" x1="880.3" y1="559.6" x2="880.3" y2="585.2" gradientUnits="userSpaceOnUse">
			<stop offset="0" stop-color="#71d2f9"/>
			<stop offset="1" stop-color="#51b9f8"/>
		</linearGradient>
		<linearGradient id="g28" x1="924.5" y1="615.4" x2="840.9" y2="545" gradientUnits="userSpaceOnUse">
			<stop offset="0" stop-color="#cbe1f2"/>
			<stop offset="1" stop-color="#aed2ed"/>
		</linearGradient>
		<linearGradient id="g29" x1="969.8" y1="563.8" x2="969.8" y2="585.1" gradientUnits="userSpaceOnUse">
			<stop offset="0" stop-color="#71d2f9"/>
			<stop offset="1" stop-color="#51b9f8"/>
		</linearGradient>
		<linearGradient id="g30" x1="782.2" y1="756.1" x2="782.2" y2="376.7" gradientUnits="userSpaceOnUse">
			<stop offset="0" stop-color="#256aba"/>
			<stop offset="1" stop-color="#5ca5f7"/>
		</linearGradient>
		<linearGradient id="g31" x1="641.6" y1="486.1" x2="721.5" y2="486.1" gradientUnits="userSpaceOnUse">
			<stop offset="0" stop-color="#71d2f9"/>
			<stop offset="1" stop-color="#51b9f8"/>
		</linearGradient>
		<linearGradient id="g32" x1="931.1" y1="552.4" x2="834.6" y2="496.9" gradientUnits="userSpaceOnUse">
			<stop offset="0" stop-color="#cbe1f2"/>
			<stop offset="1" stop-color="#aed2ed"/>
		</linearGradient>
		<linearGradient id="g33" x1="930.5" y1="537.8" x2="834" y2="482.3" gradientUnits="userSpaceOnUse">
			<stop offset="0" stop-color="#cbe1f2"/>
			<stop offset="1" stop-color="#aed2ed"/>
		</linearGradient>
		<linearGradient id="g34" x1="969.8" y1="492.8" x2="969.8" y2="514.1" gradientUnits="userSpaceOnUse">
			<stop offset="0" stop-color="#71d2f9"/>
			<stop offset="1" stop-color="#51b9f8"/>
		</linearGradient>
		<linearGradient id="g35" x1="782.2" y1="756.1" x2="782.2" y2="376.7" gradientUnits="userSpaceOnUse">
			<stop offset="0" stop-color="#256aba"/>
			<stop offset="1" stop-color="#5ca5f7"/>
		</linearGradient>
		<linearGradient id="g36" x1="905" y1="417.6" x2="905" y2="443.2" gradientUnits="userSpaceOnUse">
			<stop offset="0" stop-color="#71d2f9"/>
			<stop offset="1" stop-color="#51b9f8"/>
		</linearGradient>
		<linearGradient id="g37" x1="969.8" y1="421.8" x2="969.8" y2="443.1" gradientUnits="userSpaceOnUse">
			<stop offset="0" stop-color="#71d2f9"/>
			<stop offset="1" stop-color="#51b9f8"/>
		</linearGradient>
		<linearGradient id="g38" x1="687.6" y1="519.3" x2="689.5" y2="560.8" gradientUnits="userSpaceOnUse">
			<stop offset="0" stop-color="#1a2f79"/>
			<stop offset="1" stop-color="#160545"/>
		</linearGradient>
		<linearGradient id="g39" x1="638.8" y1="457.1" x2="638.8" y2="505.6" gradientUnits="userSpaceOnUse">
			<stop offset="0" stop-color="#1a2f79"/>
			<stop offset="1" stop-color="#160545"/>
		</linearGradient>
		<linearGradient id="g40" x1="633.9" y1="445.7" x2="633.9" y2="468.1" gradientUnits="userSpaceOnUse">
			<stop offset="0" stop-color="#f4cfb3"/>
			<stop offset="1" stop-color="#f2bb9b"/>
		</linearGradient>
		<linearGradient id="g41" x1="668.7" y1="349.4" x2="668.7" y2="359.5" gradientUnits="userSpaceOnUse">
			<stop offset="0" stop-color="#f4cfb3"/>
			<stop offset="1" stop-color="#f2bb9b"/>
		</linearGradient>
		<linearGradient id="g42" x1="694.5" y1="358.3" x2="694.5" y2="500.5" gradientUnits="userSpaceOnUse">
			<stop offset="0" stop-color="#1a2f79"/>
			<stop offset="1" stop-color="#160545"/>
		</linearGradient>
		<linearGradient id="g43" x1="664.6" y1="387.2" x2="664.6" y2="410.4" gradientUnits="userSpaceOnUse">
			<stop offset="0" stop-color="#283770"/>
			<stop offset="1" stop-color="#141a5a"/>
		</linearGradient>
		<linearGradient id="g44" x1="683.3" y1="515.5" x2="684" y2="531.4" gradientUnits="userSpaceOnUse">
			<stop offset="0" stop-color="#f4cfb3"/>
			<stop offset="1" stop-color="#f2bb9b"/>
		</linearGradient>
		<linearGradient id="g45" x1="844.4" y1="360.1" x2="844.4" y2="506.2" gradientUnits="userSpaceOnUse">
			<stop offset="0" stop-color="#1a2f79"/>
			<stop offset="1" stop-color="#160545"/>
		</linearGradient>
		<linearGradient id="g46" x1="710.5" y1="265.3" x2="710.5" y2="370.6" gradientUnits="userSpaceOnUse">
			<stop offset="0" stop-color="#6ec4f7"/>
			<stop offset="1" stop-color="#398ef6"/>
		</linearGradient>
		<linearGradient id="g47" x1="685.9" y1="297.1" x2="685.9" y2="313.5" gradientUnits="userSpaceOnUse">
			<stop offset="0" stop-color="#6ec4f7"/>
			<stop offset="1" stop-color="#398ef6"/>
		</linearGradient>
		<linearGradient id="g48" x1="805" y1="265.3" x2="805" y2="370.6" gradientUnits="userSpaceOnUse">
			<stop offset="0" stop-color="#6ec4f7"/>
			<stop offset="1" stop-color="#398ef6"/>
		</linearGradient>
		<linearGradient id="g49" x1="728.9" y1="241" x2="718" y2="290" gradientUnits="userSpaceOnUse">
			<stop offset="0" stop-color="#f4cfb3"/>
			<stop offset="1" stop-color="#f2bb9b"/>
		</linearGradient>
		<linearGradient id="g50" x1="701.9" y1="247.7" x2="682.3" y2="261.8" gradientUnits="userSpaceOnUse">
			<stop offset="0" stop-color="#f4cfb3"/>
			<stop offset="1" stop-color="#f2bb9b"/>
		</linearGradient>
		<linearGradient id="g51" x1="727.6" y1="240.4" x2="715.9" y2="292.6" gradientUnits="userSpaceOnUse">
			<stop offset="0" stop-color="#f4cfb3"/>
			<stop offset="1" stop-color="#f2bb9b"/>
		</linearGradient>
		<linearGradient id="g52" x1="717.6" y1="239.3" x2="706.1" y2="290.6" gradientUnits="userSpaceOnUse">
			<stop offset="0" stop-color="#f4cfb3"/>
			<stop offset="1" stop-color="#f2bb9b"/>
		</linearGradient>
		<linearGradient id="g53" x1="740.3" y1="290" x2="740.3" y2="354.5" gradientUnits="userSpaceOnUse">
			<stop offset="0" stop-color="#6ec4f7"/>
			<stop offset="1" stop-color="#398ef6"/>
		</linearGradient>
		<linearGradient id="g54" x1="539.9" y1="215.1" x2="693.8" y2="273.3" gradientUnits="userSpaceOnUse">
			<stop offset="0" stop-color="#f4cfb3"/>
			<stop offset="1" stop-color="#f2bb9b"/>
		</linearGradient>
		<linearGradient id="g55" x1="665.5" y1="289.6" x2="665.5" y2="364" gradientUnits="userSpaceOnUse">
			<stop offset="0" stop-color="#71d2f9"/>
			<stop offset="1" stop-color="#51b9f8"/>
		</linearGradient>
		<linearGradient id="g56" x1="617.8" y1="349.5" x2="629.3" y2="354.9" gradientUnits="userSpaceOnUse">
			<stop offset="0" stop-color="#f4cfb3"/>
			<stop offset="1" stop-color="#f2bb9b"/>
		</linearGradient>
		<linearGradient id="g57" x1="630.8" y1="343.3" x2="637.5" y2="366.2" gradientUnits="userSpaceOnUse">
			<stop offset="0" stop-color="#f4cfb3"/>
			<stop offset="1" stop-color="#f2bb9b"/>
		</linearGradient>
		<linearGradient id="g58" x1="751.1" y1="265.3" x2="751.1" y2="370.6" gradientUnits="userSpaceOnUse">
			<stop offset="0" stop-color="#6ec4f7"/>
			<stop offset="1" stop-color="#398ef6"/>
		</linearGradient>
		<linearGradient id="g59" x1="1327.6" y1="427.1" x2="1327.6" y2="571.4" gradientUnits="userSpaceOnUse">
			<stop offset="0" stop-color="#8bbdf2"/>
			<stop offset="1" stop-color="#92c2e8"/>
		</linearGradient>
		<linearGradient id="g60" x1="1394.3" y1="504.4" x2="1394.3" y2="720.7" gradientUnits="userSpaceOnUse">
			<stop offset="0" stop-color="#cbe1f2"/>
			<stop offset="1" stop-color="#aed2ed"/>
		</linearGradient>
		<linearGradient id="g61" x1="431.9" y1="510.8" x2="515.4" y2="540.8" gradientUnits="userSpaceOnUse">
			<stop offset="0" stop-color="#cbe1f2"/>
			<stop offset="1" stop-color="#aed2ed"/>
		</linearGradient>
		<linearGradient id="g62" x1="419.4" y1="519.6" x2="419.4" y2="397.6" gradientUnits="userSpaceOnUse">
			<stop offset="0" stop-color="#8bbdf2"/>
			<stop offset="1" stop-color="#92c2e8"/>
		</linearGradient>
		<linearGradient id="g63" x1="531.5" y1="519.4" x2="531.5" y2="379.1" gradientUnits="userSpaceOnUse">
			<stop offset="0" stop-color="#dfedf2"/>
			<stop offset="1" stop-color="#e8f8ff"/>
		</linearGradient>
		<linearGradient id="g64" x1="452.9" y1="376.8" x2="521.2" y2="432.3" gradientUnits="userSpaceOnUse">
			<stop offset="0" stop-color="#71d2f9"/>
			<stop offset="1" stop-color="#51b9f8"/>
		</linearGradient>
		<linearGradient id="g65" x1="501.5" y1="456.2" x2="534" y2="456.2" gradientUnits="userSpaceOnUse">
			<stop offset="0" stop-color="#71d2f9"/>
			<stop offset="1" stop-color="#51b9f8"/>
		</linearGradient>
		<linearGradient id="g66" x1="447.1" y1="464.8" x2="514" y2="464.8" gradientUnits="userSpaceOnUse">
			<stop offset="0" stop-color="#71d2f9"/>
			<stop offset="1" stop-color="#51b9f8"/>
		</linearGradient>
		<linearGradient id="g67" x1="509.3" y1="399.5" x2="541.8" y2="399.5" gradientUnits="userSpaceOnUse">
			<stop offset="0" stop-color="#71d2f9"/>
			<stop offset="1" stop-color="#51b9f8"/>
		</linearGradient>
		<linearGradient id="g68" x1="462.2" y1="450.4" x2="421.5" y2="470.7" gradientUnits="userSpaceOnUse">
			<stop offset="0" stop-color="#71d2f9"/>
			<stop offset="1" stop-color="#51b9f8"/>
		</linearGradient>
		<linearGradient id="g69" x1="463.2" y1="453.6" x2="422.4" y2="473.9" gradientUnits="userSpaceOnUse">
			<stop offset="0" stop-color="#71d2f9"/>
			<stop offset="1" stop-color="#51b9f8"/>
		</linearGradient>
		<linearGradient id="g70" x1="464.1" y1="456.7" x2="423.4" y2="477.1" gradientUnits="userSpaceOnUse">
			<stop offset="0" stop-color="#71d2f9"/>
			<stop offset="1" stop-color="#51b9f8"/>
		</linearGradient>
		<linearGradient id="g71" x1="462.7" y1="463.8" x2="420.1" y2="485" gradientUnits="userSpaceOnUse">
			<stop offset="0" stop-color="#71d2f9"/>
			<stop offset="1" stop-color="#51b9f8"/>
		</linearGradient>
		<linearGradient id="g72" x1="542" y1="412.8" x2="500.9" y2="435.9" gradientUnits="userSpaceOnUse">
			<stop offset="0" stop-color="#71d2f9"/>
			<stop offset="1" stop-color="#51b9f8"/>
		</linearGradient>
		<linearGradient id="g73" x1="543.6" y1="417" x2="502.6" y2="440" gradientUnits="userSpaceOnUse">
			<stop offset="0" stop-color="#71d2f9"/>
			<stop offset="1" stop-color="#51b9f8"/>
		</linearGradient>
		<linearGradient id="g74" x1="545.3" y1="421.1" x2="504.3" y2="444.1" gradientUnits="userSpaceOnUse">
			<stop offset="0" stop-color="#71d2f9"/>
			<stop offset="1" stop-color="#51b9f8"/>
		</linearGradient>
		<linearGradient id="g75" x1="553.7" y1="425.7" x2="510.7" y2="449.9" gradientUnits="userSpaceOnUse">
			<stop offset="0" stop-color="#71d2f9"/>
			<stop offset="1" stop-color="#51b9f8"/>
		</linearGradient>
		<linearGradient id="g76" x1="554.1" y1="329.7" x2="511.9" y2="353.2" gradientUnits="userSpaceOnUse">
			<stop offset="0" stop-color="#71d2f9"/>
			<stop offset="1" stop-color="#51b9f8"/>
		</linearGradient>
		<linearGradient id="g77" x1="555.3" y1="332.6" x2="513" y2="356.1" gradientUnits="userSpaceOnUse">
			<stop offset="0" stop-color="#71d2f9"/>
			<stop offset="1" stop-color="#51b9f8"/>
		</linearGradient>
		<linearGradient id="g78" x1="563.2" y1="334.5" x2="518.9" y2="359.2" gradientUnits="userSpaceOnUse">
			<stop offset="0" stop-color="#71d2f9"/>
			<stop offset="1" stop-color="#51b9f8"/>
		</linearGradient>
		<linearGradient id="g79" x1="400.5" y1="721.9" x2="421.5" y2="721.9" gradientUnits="userSpaceOnUse">
			<stop offset="0" stop-color="#f4cfb3"/>
			<stop offset="1" stop-color="#f2bb9b"/>
		</linearGradient>
		<linearGradient id="g80" x1="399.6" y1="740.7" x2="444.9" y2="740.7" gradientUnits="userSpaceOnUse">
			<stop offset="0" stop-color="#1a2f79"/>
			<stop offset="1" stop-color="#160545"/>
		</linearGradient>
		<linearGradient id="g81" x1="299" y1="715.1" x2="322.9" y2="715.1" gradientUnits="userSpaceOnUse">
			<stop offset="0" stop-color="#f4cfb3"/>
			<stop offset="1" stop-color="#f2bb9b"/>
		</linearGradient>
		<linearGradient id="g82" x1="290.8" y1="723.8" x2="331.9" y2="723.8" gradientUnits="userSpaceOnUse">
			<stop offset="0" stop-color="#1a2f79"/>
			<stop offset="1" stop-color="#160545"/>
		</linearGradient>
		<linearGradient id="g83" x1="159" y1="734.7" x2="159" y2="513.9" gradientUnits="userSpaceOnUse">
			<stop offset="0" stop-color="#283770"/>
			<stop offset="1" stop-color="#141a5a"/>
		</linearGradient>
		<linearGradient id="g84" x1="438.2" y1="341.2" x2="438.7" y2="381.1" gradientUnits="userSpaceOnUse">
			<stop offset="0" stop-color="#f4cfb3"/>
			<stop offset="1" stop-color="#f2bb9b"/>
		</linearGradient>
		<linearGradient id="g85" x1="341.2" y1="431.9" x2="364.2" y2="431.9" gradientUnits="userSpaceOnUse">
			<stop offset="0" stop-color="#f4cfb3"/>
			<stop offset="1" stop-color="#f2bb9b"/>
		</linearGradient>
		<linearGradient id="g86" x1="390" y1="377.8" x2="390" y2="501.8" gradientUnits="userSpaceOnUse">
			<stop offset="0" stop-color="#49a5f7"/>
			<stop offset="1" stop-color="#1c6ceb"/>
		</linearGradient>
		<linearGradient id="g87" x1="370.9" y1="414.1" x2="370.9" y2="473.5" gradientUnits="userSpaceOnUse">
			<stop offset="0" stop-color="#6ec4f7"/>
			<stop offset="1" stop-color="#398ef6"/>
		</linearGradient>
		<linearGradient id="g88" x1="501.5" y1="377.8" x2="501.5" y2="501.2" gradientUnits="userSpaceOnUse">
			<stop offset="0" stop-color="#49a5f7"/>
			<stop offset="1" stop-color="#1c6ceb"/>
		</linearGradient>
		<linearGradient id="g89" x1="460.9" y1="406.4" x2="460.9" y2="517.3" gradientUnits="userSpaceOnUse">
			<stop offset="0" stop-color="#6ec4f7"/>
			<stop offset="1" stop-color="#398ef6"/>
		</linearGradient>
		<linearGradient id="g90" x1="493.6" y1="417.6" x2="493.3" y2="422.1" gradientUnits="userSpaceOnUse">
			<stop offset="0" stop-color="#f4cfb3"/>
			<stop offset="1" stop-color="#f2b091"/>
		</linearGradient>
		<linearGradient id="g91" x1="407.5" y1="417.2" x2="498.9" y2="417.2" gradientUnits="userSpaceOnUse">
			<stop offset="0" stop-color="#f4cfb3"/>
			<stop offset="1" stop-color="#f2bb9b"/>
		</linearGradient>
		<linearGradient id="g92" x1="443.6" y1="378.2" x2="443.6" y2="500.5" gradientUnits="userSpaceOnUse">
			<stop offset="0" stop-color="#49a5f7"/>
			<stop offset="1" stop-color="#1c6ceb"/>
		</linearGradient>
		<linearGradient id="g93" x1="422.5" y1="341.4" x2="423" y2="381.4" gradientUnits="userSpaceOnUse">
			<stop offset="0" stop-color="#f4cfb3"/>
			<stop offset="1" stop-color="#f2bb9b"/>
		</linearGradient>
		<linearGradient id="g94" x1="375.7" y1="564.6" x2="381.6" y2="564.6" gradientUnits="userSpaceOnUse">
			<stop offset="0" stop-color="#283770"/>
			<stop offset="1" stop-color="#141a5a"/>
		</linearGradient>
		<linearGradient id="g95" x1="187.1" y1="722.9" x2="167.7" y2="722.9" gradientUnits="userSpaceOnUse">
			<stop offset="0" stop-color="#f4cfb3"/>
			<stop offset="1" stop-color="#f2bb9b"/>
		</linearGradient>
		<linearGradient id="g96" x1="128.6" y1="718.3" x2="108.3" y2="716.5" gradientUnits="userSpaceOnUse">
			<stop offset="0" stop-color="#f4cfb3"/>
			<stop offset="1" stop-color="#f2bb9b"/>
		</linearGradient>
		<linearGradient id="g97" x1="205.9" y1="741.9" x2="164.7" y2="741.9" gradientUnits="userSpaceOnUse">
			<stop offset="0" stop-color="#1a2f79"/>
			<stop offset="1" stop-color="#160545"/>
		</linearGradient>
		<linearGradient id="g98" x1="228.2" y1="355.2" x2="216.8" y2="454.1" gradientUnits="userSpaceOnUse">
			<stop offset="0" stop-color="#f4cfb3"/>
			<stop offset="1" stop-color="#f2bb9b"/>
		</linearGradient>
		<linearGradient id="g99" x1="193.7" y1="380.8" x2="175.9" y2="492.2" gradientUnits="userSpaceOnUse">
			<stop offset="0" stop-color="#49a5f7"/>
			<stop offset="1" stop-color="#1c6ceb"/>
		</linearGradient>
		<linearGradient id="g100" x1="233.8" y1="413.2" x2="233.8" y2="436.9" gradientUnits="userSpaceOnUse">
			<stop offset="0" stop-color="#6ec4f7"/>
			<stop offset="1" stop-color="#398ef6"/>
		</linearGradient>
		<linearGradient id="g101" x1="-67.7" y1="726.1" x2="-67.7" y2="430.7" gradientUnits="userSpaceOnUse">
			<stop offset="0" stop-color="#283770"/>
			<stop offset="1" stop-color="#141a5a"/>
		</linearGradient>
		<linearGradient id="g102" x1="92.2" y1="738.7" x2="125.3" y2="738.7" gradientUnits="userSpaceOnUse">
			<stop offset="0" stop-color="#1a2f79"/>
			<stop offset="1" stop-color="#160545"/>
		</linearGradient>
		<linearGradient id="g103" x1="265.9" y1="383" x2="265.9" y2="494.5" gradientUnits="userSpaceOnUse">
			<stop offset="0" stop-color="#49a5f7"/>
			<stop offset="1" stop-color="#1c6ceb"/>
		</linearGradient>
		<linearGradient id="g104" x1="184.2" y1="427.4" x2="184.2" y2="487.1" gradientUnits="userSpaceOnUse">
			<stop offset="0" stop-color="#6ec4f7"/>
			<stop offset="1" stop-color="#398ef6"/>
		</linearGradient>
		<linearGradient id="g105" x1="172.5" y1="303.2" x2="147.5" y2="374.3" gradientUnits="userSpaceOnUse">
			<stop offset="0" stop-color="#f4cfb3"/>
			<stop offset="1" stop-color="#f2bb9b"/>
		</linearGradient>
		<linearGradient id="g106" x1="188.9" y1="361.9" x2="174.4" y2="361.9" gradientUnits="userSpaceOnUse">
			<stop offset="0" stop-color="#f4cfb3"/>
			<stop offset="1" stop-color="#f2bb9b"/>
		</linearGradient>
		<linearGradient id="g107" x1="145.7" y1="317.2" x2="131.7" y2="385.4" gradientUnits="userSpaceOnUse">
			<stop offset="0" stop-color="#f4cfb3"/>
			<stop offset="1" stop-color="#f2bb9b"/>
		</linearGradient>
		<linearGradient id="g108" x1="165.7" y1="319" x2="152.2" y2="385" gradientUnits="userSpaceOnUse">
			<stop offset="0" stop-color="#f4cfb3"/>
			<stop offset="1" stop-color="#f2bb9b"/>
		</linearGradient>
		<linearGradient id="g109" x1="205.7" y1="376.9" x2="143.3" y2="485.7" gradientUnits="userSpaceOnUse">
			<stop offset="0" stop-color="#6ec4f7"/>
			<stop offset="1" stop-color="#489ff6"/>
		</linearGradient>
		<linearGradient id="g110" x1="15.6" y1="365.6" x2="258.2" y2="440.7" gradientUnits="userSpaceOnUse">
			<stop offset="0" stop-color="#f4cfb3"/>
			<stop offset="1" stop-color="#f2bb9b"/>
		</linearGradient>
		<linearGradient id="g111" x1="86.8" y1="382.9" x2="86.8" y2="492.2" gradientUnits="userSpaceOnUse">
			<stop offset="0" stop-color="#49a5f7"/>
			<stop offset="1" stop-color="#1c6ceb"/>
		</linearGradient>
		<linearGradient id="g112" x1="323" y1="387.1" x2="244.9" y2="378.1" gradientUnits="userSpaceOnUse">
			<stop offset="0" stop-color="#6ec4f7"/>
			<stop offset="1" stop-color="#489ff6"/>
		</linearGradient>
		<linearGradient id="g113" x1="318.2" y1="364.3" x2="248.1" y2="356.2" gradientUnits="userSpaceOnUse">
			<stop offset="0" stop-color="#6ec4f7"/>
			<stop offset="1" stop-color="#489ff6"/>
		</linearGradient>
		<linearGradient id="g114" x1="317.7" y1="371.8" x2="247.1" y2="363.7" gradientUnits="userSpaceOnUse">
			<stop offset="0" stop-color="#6ec4f7"/>
			<stop offset="1" stop-color="#489ff6"/>
		</linearGradient>
		<linearGradient id="g115" x1="318.1" y1="365" x2="247.6" y2="356.9" gradientUnits="userSpaceOnUse">
			<stop offset="0" stop-color="#6ec4f7"/>
			<stop offset="1" stop-color="#489ff6"/>
		</linearGradient>
		<linearGradient id="g116" x1="317.2" y1="374.7" x2="246.8" y2="366.6" gradientUnits="userSpaceOnUse">
			<stop offset="0" stop-color="#6ec4f7"/>
			<stop offset="1" stop-color="#489ff6"/>
		</linearGradient>
		<linearGradient id="g117" x1="377.5" y1="371.3" x2="373.1" y2="471.8" gradientUnits="userSpaceOnUse">
			<stop offset="0" stop-color="#f4cfb3"/>
			<stop offset="1" stop-color="#f2bb9b"/>
		</linearGradient>
		<linearGradient id="g118" x1="682.5" y1="357.4" x2="423.4" y2="243.5" gradientUnits="userSpaceOnUse">
			<stop offset="0" stop-color="#cbe1f2"/>
			<stop offset="1" stop-color="#aed2ed"/>
		</linearGradient>
		<linearGradient id="g119" x1="675.5" y1="312.3" x2="449" y2="212.7" gradientUnits="userSpaceOnUse">
			<stop offset="0" stop-color="#cbe1f2"/>
			<stop offset="1" stop-color="#aed2ed"/>
		</linearGradient>
		<linearGradient id="g120" x1="671.8" y1="324.8" x2="442.8" y2="224.1" gradientUnits="userSpaceOnUse">
			<stop offset="0" stop-color="#cbe1f2"/>
			<stop offset="1" stop-color="#aed2ed"/>
		</linearGradient>
		<linearGradient id="g121" x1="676.9" y1="310.6" x2="448.7" y2="210.3" gradientUnits="userSpaceOnUse">
			<stop offset="0" stop-color="#cbe1f2"/>
			<stop offset="1" stop-color="#aed2ed"/>
		</linearGradient>
		<linearGradient id="g122" x1="670.1" y1="327.1" x2="442" y2="226.8" gradientUnits="userSpaceOnUse">
			<stop offset="0" stop-color="#cbe1f2"/>
			<stop offset="1" stop-color="#aed2ed"/>
		</linearGradient>
		<linearGradient id="g123" x1="311.4" y1="197.8" x2="431.8" y2="308.8" gradientUnits="userSpaceOnUse">
			<stop offset="0" stop-color="#71d2f9"/>
			<stop offset="1" stop-color="#51b9f8"/>
		</linearGradient>
		<linearGradient id="g124" x1="146.7" y1="498.2" x2="-119" y2="264.2" gradientUnits="userSpaceOnUse">
			<stop offset="0" stop-color="#b6dff6"/>
			<stop offset="1" stop-color="#ddeaf7"/>
		</linearGradient>
		<linearGradient id="g125" x1="1102.3" y1="630.7" x2="981.6" y2="532.8" gradientUnits="userSpaceOnUse">
			<stop offset="0" stop-color="#cbe1f2"/>
			<stop offset="1" stop-color="#aed2ed"/>
		</linearGradient>
		<linearGradient id="g126" x1="1108.8" y1="629.9" x2="961.1" y2="510.2" gradientUnits="userSpaceOnUse">
			<stop offset="0" stop-color="#cbe1f2"/>
			<stop offset="1" stop-color="#aed2ed"/>
		</linearGradient>
		<linearGradient id="g127" x1="1145.2" y1="619.7" x2="1021.4" y2="519.3" gradientUnits="userSpaceOnUse">
			<stop offset="0" stop-color="#cbe1f2"/>
			<stop offset="1" stop-color="#aed2ed"/>
		</linearGradient>
		<linearGradient id="g128" x1="960.6" y1="329.4" x2="960.6" y2="467.2" gradientUnits="userSpaceOnUse">
			<stop offset="0" stop-color="#cbe1f2"/>
			<stop offset="1" stop-color="#aed2ed"/>
		</linearGradient>
		<linearGradient id="g129" x1="938.8" y1="321.6" x2="938.8" y2="425.7" gradientUnits="userSpaceOnUse">
			<stop offset="0" stop-color="#71d2f9"/>
			<stop offset="1" stop-color="#51b9f8"/>
		</linearGradient>
	</defs>
	<style>
		.s0 { fill: url(#g1) } 
		.s1 { fill: url(#g2) } 
		.s2 { fill: url(#g3) } 
		.s3 { fill: #ffffff } 
		.s4 { fill: url(#g4) } 
		.s5 { fill: url(#g5) } 
		.s6 { fill: url(#g6) } 
		.s7 { fill: url(#g7) } 
		.s8 { fill: none;stroke: #ffffff;stroke-width: 2 } 
		.s9 { fill: url(#g8) } 
		.s10 { fill: url(#g9) } 
		.s11 { fill: url(#g10) } 
		.s12 { fill: url(#g11) } 
		.s13 { fill: url(#g12) } 
		.s14 { fill: url(#g13) } 
		.s15 { fill: url(#g14) } 
		.s16 { fill: url(#g15) } 
		.s17 { fill: url(#g16) } 
		.s18 { fill: url(#g17) } 
		.s19 { fill: url(#g18) } 
		.s20 { fill: url(#g19) } 
		.s21 { fill: url(#g20) } 
		.s22 { fill: url(#g21) } 
		.s23 { fill: url(#g22) } 
		.s24 { fill: url(#g23) } 
		.s25 { fill: url(#g24) } 
		.s26 { fill: url(#g25) } 
		.s27 { fill: url(#g26) } 
		.s28 { fill: url(#g27) } 
		.s29 { fill: url(#g28) } 
		.s30 { fill: url(#g29) } 
		.s31 { fill: url(#g30) } 
		.s32 { fill: url(#g31) } 
		.s33 { fill: url(#g32) } 
		.s34 { fill: url(#g33) } 
		.s35 { fill: url(#g34) } 
		.s36 { fill: url(#g35) } 
		.s37 { fill: url(#g36) } 
		.s38 { fill: url(#g37) } 
		.s39 { fill: url(#g38) } 
		.s40 { fill: url(#g39) } 
		.s41 { fill: url(#g40) } 
		.s42 { fill: url(#g41) } 
		.s43 { fill: url(#g42) } 
		.s44 { opacity: .5;mix-blend-mode: multiply;fill: url(#g43) } 
		.s45 { fill: url(#g44) } 
		.s46 { fill: url(#g45) } 
		.s47 { fill: url(#g46) } 
		.s48 { mix-blend-mode: multiply;fill: url(#g47) } 
		.s49 { fill: url(#g48) } 
		.s50 { fill: #192139 } 
		.s51 { fill: url(#g49) } 
		.s52 { mix-blend-mode: multiply;fill: url(#g50) } 
		.s53 { fill: url(#g51) } 
		.s54 { fill: url(#g52) } 
		.s55 { mix-blend-mode: multiply;fill: url(#g53) } 
		.s56 { fill: url(#g54) } 
		.s57 { fill: url(#g55) } 
		.s58 { fill: url(#g56) } 
		.s59 { fill: url(#g57) } 
		.s60 { fill: url(#g58) } 
		.s61 { fill: url(#g59) } 
		.s62 { fill: url(#g60) } 
		.s63 { opacity: .5;mix-blend-mode: multiply;fill: url(#g61) } 
		.s64 { fill: url(#g62) } 
		.s65 { fill: url(#g63) } 
		.s66 { fill: url(#g64) } 
		.s67 { fill: #eef6fd } 
		.s68 { fill: url(#g65) } 
		.s69 { opacity: .5;fill: url(#g66) } 
		.s70 { fill: url(#g67) } 
		.s71 { fill: url(#g68) } 
		.s72 { fill: url(#g69) } 
		.s73 { fill: url(#g70) } 
		.s74 { fill: url(#g71) } 
		.s75 { fill: url(#g72) } 
		.s76 { fill: url(#g73) } 
		.s77 { fill: url(#g74) } 
		.s78 { fill: url(#g75) } 
		.s79 { opacity: .4;fill: url(#g76) } 
		.s80 { opacity: .4;fill: url(#g77) } 
		.s81 { opacity: .4;fill: url(#g78) } 
		.s82 { fill: url(#g79) } 
		.s83 { fill: url(#g80) } 
		.s84 { fill: url(#g81) } 
		.s85 { fill: url(#g82) } 
		.s86 { fill: url(#g83) } 
		.s87 { fill: url(#g84) } 
		.s88 { fill: #e9cdb2 } 
		.s89 { fill: url(#g85) } 
		.s90 { fill: url(#g86) } 
		.s91 { mix-blend-mode: multiply;fill: url(#g87) } 
		.s92 { fill: url(#g88) } 
		.s93 { mix-blend-mode: multiply;fill: url(#g89) } 
		.s94 { fill: url(#g90) } 
		.s95 { fill: url(#g91) } 
		.s96 { fill: url(#g92) } 
		.s97 { fill: url(#g93) } 
		.s98 { opacity: .5;mix-blend-mode: multiply;fill: url(#g94) } 
		.s99 { fill: url(#g95) } 
		.s100 { fill: url(#g96) } 
		.s101 { fill: url(#g97) } 
		.s102 { fill: url(#g98) } 
		.s103 { fill: url(#g99) } 
		.s104 { mix-blend-mode: multiply;fill: url(#g100) } 
		.s105 { fill: url(#g101) } 
		.s106 { fill: url(#g102) } 
		.s107 { fill: url(#g103) } 
		.s108 { mix-blend-mode: multiply;fill: url(#g104) } 
		.s109 { fill: url(#g105) } 
		.s110 { mix-blend-mode: multiply;fill: url(#g106) } 
		.s111 { fill: url(#g107) } 
		.s112 { fill: url(#g108) } 
		.s113 { fill: url(#g109) } 
		.s114 { fill: url(#g110) } 
		.s115 { fill: url(#g111) } 
		.s116 { fill: url(#g112) } 
		.s117 { fill: url(#g113) } 
		.s118 { fill: url(#g114) } 
		.s119 { fill: url(#g115) } 
		.s120 { fill: url(#g116) } 
		.s121 { fill: url(#g117) } 
		.s122 { fill: url(#g118) } 
		.s123 { fill: url(#g119) } 
		.s124 { fill: url(#g120) } 
		.s125 { fill: url(#g121) } 
		.s126 { fill: url(#g122) } 
		.s127 { fill: url(#g123) } 
		.s128 { fill: url(#g124) } 
		.s129 { fill: none;stroke: #ffffff } 
		.s130 { fill: url(#g125) } 
		.s131 { fill: url(#g126) } 
		.s132 { fill: url(#g127) } 
		.s133 { fill: url(#g128) } 
		.s134 { fill: url(#g129) } 
	</style>
	<g id="OBJECTS">
		<g id="&lt;Group&gt;">
			<g id="&lt;Group&gt;">
				<path id="&lt;Path&gt;" class="s0" d="m549.5 17.8c-281.1 0-509.1 228-509.1 509.1 0 82.8 19.7 160.9 54.7 229.9h908.9c35-69 54.7-147.1 54.7-229.9 0-281.1-228-509.1-509.2-509.1z"/>
				<path id="&lt;Path&gt;" class="s1" d="m245.4 58.7c0 21.1-17.2 38.2-38.3 38.2-21.1 0-38.2-17.1-38.2-38.2 0-21.1 17.1-38.2 38.2-38.2 21.1 0 38.3 17.1 38.3 38.2z"/>
				<path id="&lt;Path&gt;" class="s2" d="m1141.5 624.5c0 12.4-10 22.4-22.4 22.4-12.3 0-22.4-10-22.4-22.4 0-12.3 10.1-22.4 22.4-22.4 12.4 0 22.4 10.1 22.4 22.4z"/>
				<path id="&lt;Path&gt;" class="s3" d="m683 104.9c0 6-4.9 10.8-10.9 10.8-6 0-10.8-4.8-10.8-10.8 0-6 4.8-10.9 10.8-10.9 6 0 10.9 4.9 10.9 10.9z"/>
				<path id="&lt;Path&gt;" class="s4" d="m828 11.1c0 6-4.8 10.9-10.8 10.9-6 0-10.8-4.9-10.8-10.9 0-6 4.8-10.8 10.8-10.8 6 0 10.8 4.8 10.8 10.8z"/>
				<path id="&lt;Path&gt;" class="s3" d="m1069.5 365.8c0 20.2-16.4 36.6-36.6 36.6-20.3 0-36.7-16.4-36.7-36.6 0-20.3 16.4-36.7 36.7-36.7 20.2 0 36.6 16.4 36.6 36.7z"/>
				<path id="&lt;Path&gt;" class="s3" d="m103.5 512.7c0 4.4-3.5 7.9-7.8 7.9-4.4 0-7.9-3.5-7.9-7.9 0-4.3 3.5-7.9 7.9-7.9 4.3 0 7.8 3.6 7.8 7.9z"/>
				<path id="&lt;Path&gt;" class="s3" d="m315.6 618c0 4.4-3.5 7.9-7.9 7.9-4.3 0-7.8-3.5-7.8-7.9 0-4.4 3.5-7.9 7.8-7.9 4.4 0 7.9 3.5 7.9 7.9z"/>
				<path id="&lt;Path&gt;" class="s5" d="m150.1 657.8c0 39.6-32.1 71.6-71.6 71.6-39.6 0-71.6-32-71.6-71.6 0-39.5 32-71.6 71.6-71.6 39.5 0 71.6 32.1 71.6 71.6z"/>
			</g>
			<g id="&lt;Group&gt;">
				<path id="&lt;Path&gt;" class="s3" d="m596.2 651c0.3-9.1-0.9-17.6-2.7-25.3-1.5-6.3-2-12.7-1.3-19 0.3-3.2 0.4-7-0.1-11.4-1.3-14.3-16.8-46.5-43.6-51.1 0 0 4.7 16.7 8.8 29.5 5.4 16.5 11.3 26.8 20.4 35.8 9.2 9.1 15.2 21 15.9 34q0.2 3.6 0.1 7.4z"/>
				<path id="&lt;Path&gt;" class="s6" d="m602.5 625.7c-0.3-6.2 0.3-12.5 2-18.4 2.3-7.8 4.2-19.3 1.5-32.1-5.4-26.1-35.9-51.9-35.9-51.9 0 0 5 38.2 10.7 54.9 3 8.8 8 18.7 12.3 26.3 4.3 7.8 6.8 16.4 7.1 25.3 0.9 24.3-1.5 41.6-1.5 41.9l2.4 0.4c0.1-0.3 2.8-19.8 1.4-46.4z"/>
				<path id="&lt;Path&gt;" class="s3" d="m646.5 502.5c0 0-28 18.4-35.3 47.8-2.3 9-1.7 16.9-0.3 22.9 2 8.7 1.9 17.8 0.3 26.5-7.1 39.4-3.4 73.1-3.4 73.5l2.5-0.3c0-0.4-3.4-30.8 2.5-67.5 1.7-10.8 6.2-20.9 13.2-29.2 4.5-5.4 9.8-13.7 14.3-26.1 8.3-22.6 6.2-47.6 6.2-47.6z"/>
				<path id="&lt;Path&gt;" class="s7" d="m614.7 592.2c-3.2 12-2.3 21.7-0.6 28.3 1.4 5.5 1.7 11.2 0.7 16.8-4.6 27.3-3.5 53.3-3.5 53.7l2.5-0.2c0-0.3-1-24.2 3-50.1 1.1-7.1 4.1-13.7 8.7-19.2 4.3-5.1 9.2-12.5 13-20.9 10.2-23 13.8-51.9 13.8-51.9 0 0-30.6 17.8-37.6 43.5z"/>
				<path id="&lt;Path&gt;" class="s3" d="m641.1 638.9h-70c0 0 2.2 104.4 23.8 117.1h22.4c21.6-12.7 23.8-117.1 23.8-117.1z"/>
			</g>
			<g id="&lt;Group&gt;">
				<path id="&lt;Path&gt;" class="s8" d="m956.4 432.7h19.9c6 0 11 4.9 11 10.9v313.4"/>
				<path id="&lt;Path&gt;" class="s8" d="m956.4 504.1h19.9c6 0 11 5 11 11v241.9"/>
				<path id="&lt;Path&gt;" class="s8" d="m956.4 575.6h19.9c6 0 11 4.9 11 11v170.4"/>
				<path id="&lt;Path&gt;" class="s8" d="m956.4 647.1h19.9c6 0 11 4.9 11 11v98.9"/>
				<path id="&lt;Path&gt;" class="s8" d="m956.4 718.6h19.9c6 0 11 4.9 11 10.9v27.5"/>
				<path id="&lt;Path&gt;" class="s8" d="m514 521.3v235.5"/>
			</g>
			<g id="&lt;Group&gt;">
				<g id="&lt;Group&gt;">
					<path id="&lt;Path&gt;" class="s3" d="m546.8 113.3c0 18.9-15.3 34.2-34.1 34.2-18.9 0-34.2-15.3-34.2-34.2 0-18.9 15.3-34.2 34.2-34.2 18.8 0 34.1 15.3 34.1 34.2z"/>
					<path id="&lt;Path&gt;" class="s9" d="m523.9 108.4c0 7.1-5 12.8-11.2 12.8-6.2 0-11.3-5.7-11.3-12.8 0-7.1 5.1-12.8 11.3-12.8 6.2 0 11.2 5.7 11.2 12.8z"/>
					<path id="&lt;Path&gt;" class="s10" d="m537.7 136.5c-6.2 6.8-15.1 11-25 11-9.9 0-18.9-4.2-25.1-11q1.8-2.4 4.1-4.3c4.6-4 10.3-6.6 16.5-7.3 3-0.4 6-0.4 8.9 0 8.3 1 15.7 5.3 20.6 11.6z"/>
				</g>
				<g id="&lt;Group&gt;">
					<path id="&lt;Path&gt;" class="s3" d="m923.5 309.6c0 9.4-7.7 17.1-17.1 17.1-9.5 0-17.1-7.7-17.1-17.1 0-9.4 7.6-17.1 17.1-17.1 9.4 0 17.1 7.7 17.1 17.1z"/>
					<path id="&lt;Path&gt;" class="s11" d="m912 307.2c0 3.5-2.5 6.4-5.6 6.4-3.1 0-5.7-2.9-5.7-6.4 0-3.6 2.6-6.4 5.7-6.4 3.1 0 5.6 2.8 5.6 6.4z"/>
					<path id="&lt;Path&gt;" class="s12" d="m918.9 321.2c-3.1 3.4-7.6 5.5-12.5 5.5-5 0-9.5-2.1-12.6-5.5q0.9-1.2 2.1-2.1c2.3-2 5.1-3.3 8.2-3.7q2.3-0.3 4.5 0c4.1 0.5 7.8 2.6 10.3 5.8z"/>
				</g>
				<g id="&lt;Group&gt;">
					<path id="&lt;Path&gt;" class="s3" d="m106.2 428.2c0 12.9-10.5 23.4-23.4 23.4-13 0-23.4-10.5-23.4-23.4 0-13 10.4-23.5 23.4-23.5 12.9 0 23.4 10.5 23.4 23.5z"/>
					<path id="&lt;Path&gt;" class="s13" d="m90.5 424.8c0 4.9-3.5 8.8-7.7 8.8-4.3 0-7.7-3.9-7.7-8.8 0-4.8 3.4-8.7 7.7-8.7 4.2 0 7.7 3.9 7.7 8.7z"/>
					<path id="&lt;Path&gt;" class="s14" d="m100 444.1c-4.3 4.6-10.4 7.5-17.2 7.5-6.8 0-12.9-2.9-17.2-7.5q1.3-1.6 2.8-3c3.1-2.7 7.1-4.5 11.4-5q3-0.3 6 0c5.7 0.7 10.8 3.6 14.2 8z"/>
				</g>
			</g>
			<g id="&lt;Group&gt;">
				<path id="&lt;Path&gt;" class="s3" d="m409.9 125.8c0 5.4-4.4 9.8-9.8 9.8-5.4 0-9.9-4.4-9.9-9.8 0-5.5 4.5-9.9 9.9-9.9 5.4 0 9.8 4.4 9.8 9.9z"/>
				<g id="&lt;Group&gt;">
					<g id="&lt;Group&gt;">
						<path id="&lt;Path&gt;" class="s3" d="m385.3 119q-0.8 0-1.4-0.4c-1.3-0.8-1.6-2.4-0.9-3.6 3.8-5.9 10.1-9.4 17.1-9.4 6.9 0 13.3 3.5 17 9.4 0.8 1.2 0.5 2.8-0.8 3.6-1.2 0.8-2.8 0.4-3.6-0.8-2.8-4.3-7.5-6.9-12.6-6.9-5.1 0-9.9 2.6-12.6 6.9-0.5 0.8-1.4 1.2-2.2 1.2z"/>
					</g>
					<g id="&lt;Group&gt;">
						<path id="&lt;Path&gt;" class="s3" d="m380.1 112.3c-0.6 0-1.2-0.2-1.6-0.6-1.2-0.9-1.4-2.6-0.4-3.7 5.4-6.7 13.4-10.5 22-10.5 8.6 0 16.6 3.8 22 10.5 0.9 1.1 0.8 2.8-0.4 3.7-1.1 0.9-2.8 0.7-3.7-0.4-4.4-5.4-10.9-8.6-17.9-8.6-7 0-13.5 3.2-17.9 8.6-0.6 0.7-1.3 1-2.1 1z"/>
					</g>
					<g id="&lt;Group&gt;">
						<path id="&lt;Path&gt;" class="s3" d="m425.1 105.7c-0.7 0-1.4-0.3-1.9-0.9-5.9-6.5-14.3-10.2-23.1-10.2-8.8 0-17.2 3.7-23.1 10.2-1 1.1-2.6 1.2-3.7 0.2-1.1-1-1.2-2.6-0.2-3.7 6.9-7.6 16.7-12 27-12 10.2 0 20.1 4.4 27 12 1 1.1 0.9 2.7-0.2 3.7-0.5 0.5-1.1 0.7-1.8 0.7z"/>
					</g>
					<g id="&lt;Group&gt;">
						<path id="&lt;Path&gt;" class="s3" d="m430.1 99.2c-0.7 0-1.3-0.3-1.9-0.8-7.4-7.7-17.4-11.9-28.1-11.9-10.7 0-20.7 4.2-28.2 11.9-1 1-2.6 1-3.7 0-1-1-1.1-2.7 0-3.7 8.4-8.7 19.8-13.5 31.9-13.5 12.1 0 23.5 4.8 31.9 13.5 1 1 1 2.7 0 3.7-0.5 0.5-1.2 0.8-1.9 0.8z"/>
					</g>
					<path id="&lt;Path&gt;" class="s3" d=""/>
				</g>
			</g>
			<g id="&lt;Group&gt;">
				<g id="&lt;Group&gt;">
					<g id="&lt;Group&gt;">
						<path id="&lt;Path&gt;" class="s15" d="m931 748.5h-285c-9.7 0-17.7-8-17.7-17.7v-28.1c0-9.8 8-17.7 17.7-17.7h285c9.7 0 17.7 7.9 17.7 17.7v28.1c0 9.7-8 17.7-17.7 17.7z"/>
						<g id="&lt;Group&gt;">
							<path id="&lt;Path&gt;" class="s16" d="m666.8 734.3h-20.2c-1.4 0-2.6-1.1-2.6-2.5v-30.1c0-1.4 1.2-2.6 2.6-2.6h20.2c1.4 0 2.6 1.2 2.6 2.6v30.1c0 1.4-1.2 2.5-2.6 2.5z"/>
							<path id="&lt;Path&gt;" class="s17" d="m699.1 734.3h-20.2c-1.4 0-2.6-1.1-2.6-2.5v-30.1c0-1.4 1.2-2.6 2.6-2.6h20.2c1.4 0 2.6 1.2 2.6 2.6v30.1c0 1.4-1.2 2.5-2.6 2.5z"/>
							<path id="&lt;Path&gt;" class="s3" d="m850.6 734.3h-139.4c-1.5 0-2.6-1.1-2.6-2.5v-30.1c0-1.4 1.1-2.6 2.6-2.6h139.4c1.4 0 2.6 1.2 2.6 2.6v30.1c0 1.4-1.2 2.5-2.6 2.5z"/>
							<path id="&lt;Path&gt;" class="s18" d="m880.3 716.8c0 5-4 9-9 9-5 0-9.1-4-9.1-9 0-5 4.1-9.1 9.1-9.1 5 0 9 4.1 9 9.1z"/>
							<path id="&lt;Path&gt;" class="s3" d="m905 716.8c0 5-4 9-9 9-5 0-9.1-4-9.1-9 0-5 4.1-9.1 9.1-9.1 5 0 9 4.1 9 9.1z"/>
							<path id="&lt;Path&gt;" class="s19" d="m931.3 720.7h-19.2c-1 0-1.7-0.8-1.7-1.7v-4.5c0-0.9 0.7-1.7 1.7-1.7h19.2c0.9 0 1.7 0.8 1.7 1.7v4.5c0 0.9-0.8 1.7-1.7 1.7z"/>
						</g>
					</g>
					<path id="&lt;Path&gt;" class="s3" d="m679.4 756h-22.7v-7.5h22.7z"/>
					<path id="&lt;Path&gt;" class="s3" d="m921.7 756h-22.7v-7.5h22.7z"/>
					<path id="&lt;Path&gt;" class="s20" d="m953.4 724.9h-4.7v-16.3h4.7c1.6 0 3 1.3 3 3v10.2c0 1.7-1.4 3.1-3 3.1z"/>
				</g>
				<g id="&lt;Group&gt;">
					<g id="&lt;Group&gt;">
						<path id="&lt;Path&gt;" class="s21" d="m931 677.4h-285c-9.7 0-17.7-7.9-17.7-17.6v-28.1c0-9.8 8-17.7 17.7-17.7h285c9.7 0 17.7 7.9 17.7 17.7v28.1c0 9.7-8 17.6-17.7 17.6z"/>
						<g id="&lt;Group&gt;">
							<path id="&lt;Path&gt;" class="s22" d="m666.8 663.3h-20.2c-1.4 0-2.6-1.1-2.6-2.6v-30c0-1.4 1.2-2.6 2.6-2.6h20.2c1.4 0 2.6 1.2 2.6 2.6v30c0 1.5-1.2 2.6-2.6 2.6z"/>
							<path id="&lt;Path&gt;" class="s3" d="m699.1 663.3h-20.2c-1.4 0-2.6-1.1-2.6-2.6v-30c0-1.4 1.2-2.6 2.6-2.6h20.2c1.4 0 2.6 1.2 2.6 2.6v30c0 1.5-1.2 2.6-2.6 2.6z"/>
							<path id="&lt;Path&gt;" class="s3" d="m850.6 663.3h-139.4c-1.5 0-2.6-1.1-2.6-2.6v-30c0-1.4 1.1-2.6 2.6-2.6h139.4c1.4 0 2.6 1.2 2.6 2.6v30c0 1.5-1.2 2.6-2.6 2.6z"/>
							<path id="&lt;Path&gt;" class="s23" d="m880.3 645.8c0 5-4 9-9 9-5 0-9.1-4-9.1-9 0-5 4.1-9.1 9.1-9.1 5 0 9 4.1 9 9.1z"/>
							<path id="&lt;Path&gt;" class="s3" d="m905 645.8c0 5-4 9-9 9-5 0-9.1-4-9.1-9 0-5 4.1-9.1 9.1-9.1 5 0 9 4.1 9 9.1z"/>
							<path id="&lt;Path&gt;" class="s3" d="m931.3 649.6h-19.2c-1 0-1.7-0.7-1.7-1.7v-4.4c0-1 0.7-1.7 1.7-1.7h19.2c0.9 0 1.7 0.7 1.7 1.7v4.4c0 1-0.8 1.7-1.7 1.7z"/>
						</g>
					</g>
					<path id="&lt;Path&gt;" class="s3" d="m679.4 685h-22.7v-7.6h22.7z"/>
					<path id="&lt;Path&gt;" class="s3" d="m921.7 685h-22.7v-7.6h22.7z"/>
					<path id="&lt;Path&gt;" class="s24" d="m953.4 653.9h-4.7v-16.4h4.7c1.6 0 3 1.4 3 3.1v10.2c0 1.7-1.4 3.1-3 3.1z"/>
				</g>
				<g id="&lt;Group&gt;">
					<g id="&lt;Group&gt;">
						<path id="&lt;Path&gt;" class="s25" d="m931 606.4h-285c-9.7 0-17.7-7.9-17.7-17.7v-28.1c0-9.7 8-17.6 17.7-17.6h285c9.7 0 17.7 7.9 17.7 17.6v28.2c0 9.7-8 17.6-17.7 17.6z"/>
						<g id="&lt;Group&gt;">
							<path id="&lt;Path&gt;" class="s26" d="m666.8 592.3h-20.2c-1.4 0-2.6-1.1-2.6-2.6v-30c0-1.5 1.2-2.6 2.6-2.6h20.2c1.4 0 2.6 1.1 2.6 2.6v30c0 1.5-1.2 2.6-2.6 2.6z"/>
							<path id="&lt;Path&gt;" class="s27" d="m699.1 592.3h-20.2c-1.4 0-2.6-1.1-2.6-2.6v-30c0-1.5 1.2-2.6 2.6-2.6h20.2c1.4 0 2.6 1.1 2.6 2.6v30c0 1.5-1.2 2.6-2.6 2.6z"/>
							<path id="&lt;Path&gt;" class="s3" d="m850.6 592.3h-139.4c-1.5 0-2.6-1.1-2.6-2.6v-30c0-1.5 1.1-2.6 2.6-2.6h139.4c1.4 0 2.6 1.1 2.6 2.6v30c0 1.5-1.2 2.6-2.6 2.6z"/>
							<path id="&lt;Path&gt;" class="s28" d="m880.3 574.8c0 5-4 9-9 9-5 0-9.1-4-9.1-9 0-5 4.1-9.1 9.1-9.1 5 0 9 4.1 9 9.1z"/>
							<path id="&lt;Path&gt;" class="s29" d="m905 574.8c0 5-4 9-9 9-5 0-9.1-4-9.1-9 0-5 4.1-9.1 9.1-9.1 5 0 9 4.1 9 9.1z"/>
							<path id="&lt;Path&gt;" class="s3" d="m931.3 578.6h-19.2c-1 0-1.7-0.7-1.7-1.7v-4.4c0-1 0.7-1.7 1.7-1.7h19.2c0.9 0 1.7 0.7 1.7 1.7v4.4c0 1-0.8 1.7-1.7 1.7z"/>
						</g>
					</g>
					<path id="&lt;Path&gt;" class="s3" d="m679.4 614h-22.7v-7.6h22.7z"/>
					<path id="&lt;Path&gt;" class="s3" d="m921.7 614h-22.7v-7.6h22.7z"/>
					<path id="&lt;Path&gt;" class="s30" d="m953.4 582.9h-4.7v-16.4h4.7c1.6 0 3 1.4 3 3.1v10.2c0 1.7-1.4 3.1-3 3.1z"/>
				</g>
				<g id="&lt;Group&gt;">
					<g id="&lt;Group&gt;">
						<path id="&lt;Path&gt;" class="s31" d="m931 535.4h-285c-9.7 0-17.7-7.9-17.7-17.7v-28.1c0-9.7 8-17.6 17.7-17.6h285c9.7 0 17.7 7.9 17.7 17.6v28.1c0 9.8-8 17.7-17.7 17.7z"/>
						<g id="&lt;Group&gt;">
							<path id="&lt;Path&gt;" class="s32" d="m666.8 521.3h-20.2c-1.4 0-2.6-1.2-2.6-2.6v-30c0-1.5 1.2-2.6 2.6-2.6h20.2c1.4 0 2.6 1.1 2.6 2.6v30c0 1.4-1.2 2.6-2.6 2.6z"/>
							<path id="&lt;Path&gt;" class="s3" d="m699.1 521.3h-20.2c-1.4 0-2.6-1.2-2.6-2.6v-30c0-1.5 1.2-2.6 2.6-2.6h20.2c1.4 0 2.6 1.1 2.6 2.6v30c0 1.4-1.2 2.6-2.6 2.6z"/>
							<path id="&lt;Path&gt;" class="s3" d="m850.6 521.3h-139.4c-1.5 0-2.6-1.2-2.6-2.6v-30c0-1.5 1.1-2.6 2.6-2.6h139.4c1.4 0 2.6 1.1 2.6 2.6v30c0 1.4-1.2 2.6-2.6 2.6z"/>
							<path id="&lt;Path&gt;" class="s33" d="m880.3 503.7c0 5-4 9.1-9 9.1-5 0-9.1-4.1-9.1-9.1 0-5 4.1-9 9.1-9 5 0 9 4 9 9z"/>
							<path id="&lt;Path&gt;" class="s34" d="m905 503.7c0 5-4 9.1-9 9.1-5 0-9.1-4.1-9.1-9.1 0-5 4.1-9 9.1-9 5 0 9 4 9 9z"/>
							<path id="&lt;Path&gt;" class="s3" d="m931.3 507.6h-19.2c-1 0-1.7-0.7-1.7-1.7v-4.4c0-1 0.7-1.8 1.7-1.8h19.2c0.9 0 1.7 0.8 1.7 1.8v4.4c0 1-0.8 1.7-1.7 1.7z"/>
						</g>
					</g>
					<path id="&lt;Path&gt;" class="s3" d="m679.4 543h-22.7v-7.6h22.7z"/>
					<path id="&lt;Path&gt;" class="s3" d="m921.7 543h-22.7v-7.6h22.7z"/>
					<path id="&lt;Path&gt;" class="s35" d="m953.4 511.9h-4.7v-16.4h4.7c1.6 0 3 1.4 3 3.1v10.2c0 1.7-1.4 3.1-3 3.1z"/>
				</g>
				<g id="&lt;Group&gt;">
					<g id="&lt;Group&gt;">
						<path id="&lt;Path&gt;" class="s36" d="m931 464.4h-285c-9.7 0-17.7-7.9-17.7-17.7v-28.1c0-9.7 8-17.7 17.7-17.7h285c9.7 0 17.7 8 17.7 17.7v28.1c0 9.8-8 17.7-17.7 17.7z"/>
						<g id="&lt;Group&gt;">
							<path id="&lt;Path&gt;" class="s3" d="m666.8 450.3h-20.2c-1.4 0-2.6-1.2-2.6-2.6v-30.1c0-1.4 1.2-2.5 2.6-2.5h20.2c1.4 0 2.6 1.1 2.6 2.5v30.1c0 1.4-1.2 2.6-2.6 2.6z"/>
							<path id="&lt;Path&gt;" class="s3" d="m699.1 450.3h-20.2c-1.4 0-2.6-1.2-2.6-2.6v-30.1c0-1.4 1.2-2.5 2.6-2.5h20.2c1.4 0 2.6 1.1 2.6 2.5v30.1c0 1.4-1.2 2.6-2.6 2.6z"/>
							<path id="&lt;Path&gt;" class="s3" d="m850.6 450.3h-139.4c-1.5 0-2.6-1.2-2.6-2.6v-30.1c0-1.4 1.1-2.5 2.6-2.5h139.4c1.4 0 2.6 1.1 2.6 2.5v30.1c0 1.4-1.2 2.6-2.6 2.6z"/>
							<path id="&lt;Path&gt;" class="s3" d="m880.3 432.7c0 5-4 9.1-9 9.1-5 0-9.1-4.1-9.1-9.1 0-5 4.1-9 9.1-9 5 0 9 4 9 9z"/>
							<path id="&lt;Path&gt;" class="s37" d="m905 432.7c0 5-4 9.1-9 9.1-5 0-9.1-4.1-9.1-9.1 0-5 4.1-9 9.1-9 5 0 9 4 9 9z"/>
							<path id="&lt;Path&gt;" class="s3" d="m931.3 436.6h-19.2c-1 0-1.7-0.8-1.7-1.7v-4.5c0-0.9 0.7-1.7 1.7-1.7h19.2c0.9 0 1.7 0.8 1.7 1.7v4.5c0 0.9-0.8 1.7-1.7 1.7z"/>
						</g>
					</g>
					<path id="&lt;Path&gt;" class="s3" d="m679.4 472h-22.7v-7.6h22.7z"/>
					<path id="&lt;Path&gt;" class="s3" d="m921.7 472h-22.7v-7.6h22.7z"/>
					<path id="&lt;Path&gt;" class="s38" d="m953.4 440.8h-4.7v-16.3h4.7c1.6 0 3 1.4 3 3.1v10.2c0 1.7-1.4 3-3 3z"/>
				</g>
			</g>
			<g id="&lt;Group&gt;">
				<path id="&lt;Path&gt;" class="s39" d="m687.5 527.2c0 0 1.9 4 3.1 7.1 1.1 3.1-0.4 8.7-0.4 8.7h-2.4c0 0-9.7 7.2-14.5 10.1-4.7 2.9-6.7 4-9.2 4-1.9 0-6.6-1.4-6.1-4.4 0.4-2.9 15.7-23.3 15.7-23.3 0 0 10.4 0.2 13.8-2.2z"/>
				<path id="&lt;Path&gt;" class="s40" d="m636.6 454.9c0 0 2.3 2.6 4.7 6.2 2.5 3.6 2.7 10.9 2.7 10.9l-37.3 17.7c0 0-6.5-4.1-0.7-11 7.6-9 15-18 15-18 0 0 9.2-0.9 15.6-5.8z"/>
				<path id="&lt;Path&gt;" class="s41" d="m617.5 448.9l3.5 11.8c0 0 9.5 0.6 15.6-5.8l-2.3-10.3"/>
				<path id="&lt;Path&gt;" class="s42" d="m653.5 358.5c0 0 14.1 1.9 22.1 1 9.3-1.1 0.7-9.9 0.7-9.9l-21.8 5.3z"/>
				<path id="&lt;Path&gt;" class="s43" d="m698.9 371.3l-2.5 29.6h-29.6c0 0-11.6-3-25.7-8.5-4.9-2-10.2-4.3-15.4-6.8 1.9 4 2.7 7.8 3.7 16.1 3.5 27 6.4 46.7 6.4 46.7-9 6-18 5.4-18 5.4 0 0-22-59.8-25.4-80.8-1.9-11.5 6.1-24.1 31.6-20.9 9.1 1.2 32.5 7.2 41 9.2 20.3 4.9 33.9 10 33.9 10z"/>
				<path id="&lt;Path&gt;" class="s44" d="m686.5 400.9h-19.7c0 0-11.6-3-25.7-8.5 0 0 18.7 5.5 37.4 5.6 5.4 0 7.5 0.4 8 2.9z"/>
				<path id="&lt;Path&gt;" class="s45" d="m671.4 518.6l2.3 10.8c0 0 10.4 1.9 13.8-2.2l-0.7-7.6"/>
				<path id="&lt;Path&gt;" class="s46" d="m737 367c0 0-27 7.6-40.4 0.4 0 0-41.6 50.9-43.2 70-0.4 5 6.3 31.8 11.5 54.5 4.3 18.7 7.1 34.5 7.1 34.5 0 0 9.9 0.2 15.9-2.1 0 0-1.5-66.1-6.7-82.5 12.7-9.1 32.7-22.9 44.5-37.1 1.9-2.3 4.7-3.8 7.8-3.8 0 0 10.1-12.7 3.5-33.9z"/>
				<path id="&lt;Path&gt;" class="s47" d="m674.4 318.8q-2.1-0.6-4.1-1.1c-13.5-4-17.2-8.7-17.2-8.7 8.4-23.8 13.8-29.1 17.8-33.5 7.3-8.1 1.7 17.7 0.9 18.1z"/>
				<path id="&lt;Path&gt;" class="s48" d="m671.5 295.2l-3.1 14.4 7.5-1.9z"/>
				<path id="&lt;Path&gt;" class="s49" d="m737.6 364.7c0.4 3.8 2.7 5.3 2.7 9.7 0 1-3.7 5.6-12.9 7.2 0 0-19.7 8.8-38.7-7-9.2-7.6-19.4-12.3-19.4-12.3-0.5-0.2-0.4-1 0.1-1.7 0.4-0.6 2.7-4 2.8-4.3 3.7-19.9 0.6-21.9 0.4-37.2q0-0.5-0.1-1.1c-0.4-23.5-2.7-35.3-1.6-42.5 5.4-6.1 20.4-10.9 21.4-11.1 0 0 15.8-0.1 19.3 0 7.8 2 21.8 6.2 28.7 18-0.4 9.5 0.2 20.9-0.9 35.6-0.2 2.3-3.8 30.3-1.8 46.7z"/>
				<g id="&lt;Group&gt;">
					<path id="&lt;Path&gt;" class="s50" d="m676.5 228.2c0 0-1.2 8.2 2.6 9.7l1.5-9"/>
					<path id="&lt;Path&gt;" class="s51" d="m696.4 276.1c-9.2-1.1-5.1-10.6-4.1-11.8 0 0 1.5-10 1.7-10.5l15.6-6.8c0 0 0.4 17.1 2 17.3 2.3 1.1-0.8 13.5-15.2 11.8z"/>
					<path id="&lt;Path&gt;" class="s52" d="m704.2 252.7c0 0-3.4 7.4-11.5 8.9l1.3-7.8z"/>
					<path id="&lt;Path&gt;" class="s53" d="m678.4 227.8c0 0-3.6 27 8.3 31.5 0 0 11.9 1.1 18.8-8.2 2-2.7 4.5-3.3 5.3-6.5 1.4-5.3 3.2-15 0.8-20.8-3.4-8.3-32.9-16.2-33.2 4z"/>
					<path id="&lt;Path&gt;" class="s50" d="m686.3 208.9c0 0 2.8-6.4 11.3-3.4 6 2.2 9.1 6.6 9.1 6.6 0 0 2.4-1.9 4.5 1 1.5 2 0.6 6.1 0.6 6.1 14.2 2.6-0.2 32.8-0.4 33.7l-1.5 0.9c-0.4-4.4-0.2-8.4-0.5-11.5-0.1-0.9-1.6-1.5-1.9-2.1-2.8 0.4-5.5 0.4-7.1-1-2.8-2.3-3.4-6.2-3.6-8.8-2.7 0.8-24.4 4.3-23.3-8.1 0 0-1-1.9-1.3-3.8-2.5-15.4 14.1-9.6 14.1-9.6z"/>
					<path id="&lt;Path&gt;" class="s54" d="m704.7 246.1c5.4 2 7.1-11.2 2-11.8-3.9-0.4-4.1 5-4.1 5 0 0-1 5.6 2.1 6.8z"/>
				</g>
				<path id="&lt;Path&gt;" class="s55" d="m717.8 300.5l6.2 20.4 12.5 1.7z"/>
				<path id="&lt;Path&gt;" class="s56" d="m757.9 324.3c-5.1-15.4-14.2-33.8-14.2-33.8l-20.9 12c0 0 8 16 13.3 27.1-5.1 1.3-18.3 4.6-28.4 7.8-12.8 4.2-24.7 5.3-24.7 5.3 0.5 3.9 0.5 7.5 0.5 7.5 12.5 0.7 36 0.9 52.7-0.2 6.8-0.5 12.7-1.1 15.8-2.2 4.9-1.7 8.2-3 8.4-8.1 0.4-7.5-2.4-15.2-2.5-15.4z"/>
				<path id="&lt;Path&gt;" class="s3" d="m707.5 356.3h-29v-2.9h29c0.8 0 1.4 0.7 1.4 1.5 0 0.7-0.6 1.4-1.4 1.4z"/>
				<path id="&lt;Path&gt;" class="s3" d="m691.8 356.3h-69.2c-0.8 0-1.6-0.6-1.8-1.4l-14.9-53.5c-0.3-1.1 0.6-2.3 1.8-2.3h66.8c1.7 0 3.1 1.1 3.5 2.7l14.8 53.2c0.2 0.6-0.3 1.3-1 1.3z"/>
				<path id="&lt;Path&gt;" class="s57" d="m689.2 356.3h-69.2c-0.9 0-1.6-0.6-1.9-1.4l-14.8-53.5c-0.3-1.1 0.6-2.3 1.8-2.3h66.8c1.6 0 3.1 1.1 3.5 2.7l14.8 53.2c0.2 0.6-0.3 1.3-1 1.3z"/>
				<path id="&lt;Path&gt;" class="s58" d="m628.1 356.3c0 0 1.2 2.7 6.7 3.2l-0.4-3.2z"/>
				<path id="&lt;Path&gt;" class="s59" d="m629.4 347.2c0.1-0.5 1.3-1.1 2.3-0.7-0.4-1.2-0.7-2.2-0.7-2.3 0.1-1.5 1.4-1.3 2.2-0.8 0.9 0.5 2 2.8 2.3 3.1-0.4-0.8-0.7-1.7-0.7-1.8 0.2-0.8 2-1.5 3.1-0.5 0.5 0.5 2.2 3.2 2.6 3.9-0.2-0.5-0.2-0.8-0.2-0.9 0.2-0.8 1.8-1.1 2.8-0.1 1.6 1.4 3.8 6.6 3.8 6.6 1 2.3 2 2.6 2.3 2.6 0.7 0 5.7 0 5.7 0 0 0-0.5 2.3-3.1 3.2-2.7 0.9-6.8 1.5-12 1.3-2.6 0-5.6-0.9-7.2-3.3-0.5-0.8-1.6-4.9-2-6.4-0.2-0.8-1.2-3.8-1.2-3.9z"/>
				<path id="&lt;Path&gt;" class="s60" d="m740.3 282.4c0 0 4.6 5.8 12.9 25.8 0 0-12.4 7.3-27.6 10.3 0 0-3.2-6.4-10.7-25.2"/>
			</g>
			<g id="&lt;Group&gt;">
				<g id="&lt;Group&gt;">
					<path id="&lt;Path&gt;" class="s61" d="m447.7 757.3h45.2v-278.6h-45.2z"/>
					<path id="&lt;Path&gt;" class="s62" d="m445.1 757.3h41.8v-278.6h-41.8z"/>
					<path id="&lt;Path&gt;" class="s63" d="m486.9 533.4h-41.8v-9.9h41.8z"/>
				</g>
				<g id="&lt;Group&gt;">
					<path id="&lt;Path&gt;" class="s64" d="m382.4 518.7l8.1-0.9 21.6-136.5c0.2-1.3 1.4-2.3 2.7-2.3h149.7l1.5-4.7 5.9 3.8q0.1 0.1 0.2 0.1c0.7 0.6 1.1 1.6 1 2.6l-22.3 140.4c-0.2 1.3-1.3 2.3-2.6 2.3h-157.7c-0.7 0-1.3-0.3-1.8-0.7z"/>
					<path id="&lt;Path&gt;" class="s65" d="m384.1 519.4h157.7c1.3 0 2.5-1 2.7-2.3l22.2-140.4c0.3-1.6-1-3.1-2.6-3.1h-157.7c-1.3 0-2.4 0.9-2.6 2.2l-22.3 140.5c-0.3 1.6 1 3.1 2.6 3.1z"/>
					<path id="&lt;Path&gt;" class="s3" d="m391.5 512.7h144.8c0.8 0 1.5-0.6 1.6-1.4l20.5-129.1c0.2-1-0.6-1.9-1.7-1.9h-144.7c-0.8 0-1.6 0.6-1.7 1.4l-20.5 129.1c-0.1 1 0.7 1.9 1.7 1.9z"/>
					<path id="&lt;Path&gt;" class="s66" d="m441.6 451.9h48.1c1.1 0 2-0.8 2.2-1.8l6.7-42.6c0.2-1.3-0.8-2.5-2.1-2.5h-48.1c-1.1 0-2 0.8-2.1 1.8l-6.8 42.6c-0.2 1.3 0.8 2.5 2.1 2.5z"/>
					<g id="&lt;Group&gt;">
						<path id="&lt;Path&gt;" class="s67" d="m450.8 446.1h-3.3c-0.5 0-0.9-0.4-0.8-0.9l4-25c0.1-0.5 0.5-0.9 1-0.9h3.3c0.5 0 0.9 0.4 0.8 0.9l-4 25c-0.1 0.5-0.5 0.9-1 0.9z"/>
						<path id="&lt;Path&gt;" class="s67" d="m459.4 446.1h-3.4c-0.4 0-0.8-0.4-0.7-0.9l3.1-19.8c0.1-0.5 0.6-0.9 1.1-0.9h3.3c0.5 0 0.8 0.4 0.7 0.9l-3.1 19.8c-0.1 0.5-0.6 0.9-1 0.9z"/>
						<path id="&lt;Path&gt;" class="s67" d="m467.9 446.1h-3.3c-0.5 0-0.8-0.4-0.7-0.9l3.7-23.5c0.1-0.5 0.5-0.9 1-0.9h3.4c0.4 0 0.8 0.4 0.7 0.9l-3.7 23.5c-0.1 0.5-0.6 0.9-1.1 0.9z"/>
						<path id="&lt;Path&gt;" class="s67" d="m476.5 446.1h-3.3c-0.5 0-0.8-0.4-0.8-0.9l5.6-35.2c0.1-0.4 0.6-0.8 1.1-0.8h3.3c0.5 0 0.8 0.4 0.7 0.8l-5.6 35.2c0 0.5-0.5 0.9-1 0.9z"/>
						<path id="&lt;Path&gt;" class="s67" d="m485.1 446.1h-3.3c-0.5 0-0.9-0.4-0.8-0.9l4.5-27.9c0-0.4 0.5-0.8 1-0.8h3.3c0.5 0 0.8 0.4 0.7 0.8l-4.4 27.9c-0.1 0.5-0.5 0.9-1 0.9z"/>
					</g>
					<path id="&lt;Path&gt;" class="s68" d="m502.7 482h26.4c0.6 0 1.1-0.5 1.2-1l3.7-23.4c0.1-0.7-0.5-1.4-1.2-1.4h-26.4c-0.6 0-1.1 0.4-1.2 1l-3.7 23.4c-0.1 0.7 0.5 1.4 1.2 1.4z"/>
					<path id="&lt;Path&gt;" class="s69" d="m448.7 499.8h58.6c0.8 0 1.5-0.6 1.6-1.4l5.1-31.8c0.1-1-0.6-1.8-1.6-1.8h-58.6c-0.8 0-1.5 0.5-1.6 1.3l-5.1 31.8c-0.1 1 0.6 1.9 1.6 1.9z"/>
					<path id="&lt;Path&gt;" class="s3" d="m455.6 478.4l-2.1 13.5h51.6l2.6-16.7c0 0-3.2-1.7-7.6 0.7-3.4 1.9-8.3 7.3-11.7 6.9-3.4-0.4-5.5-9.1-10.1-9.1-4.7 0.1-8.4 9.6-12.2 9.7-3.7 0.1-8.1-5.1-10.5-5z"/>
					<path id="&lt;Path&gt;" class="s70" d="m510.1 416.6h28.5c0.4 0 0.7-0.3 0.8-0.7l2.4-15.5c0.1-0.4-0.3-0.9-0.7-0.9h-28.5c-0.4 0-0.8 0.3-0.8 0.7l-2.5 15.5c0 0.4 0.3 0.9 0.8 0.9z"/>
					<g id="&lt;Group&gt;" style="opacity: .4">
						<path id="&lt;Path&gt;" class="s71" d="m512.9 422h19.8c0.6 0 1.2-0.4 1.3-1 0.1-0.6-0.3-1.1-0.9-1.1h-19.9c-0.6 0-1.1 0.5-1.2 1.1-0.1 0.6 0.3 1 0.9 1z"/>
						<path id="&lt;Path&gt;" class="s72" d="m512.3 426h19.8c0.6 0 1.2-0.5 1.2-1 0.1-0.6-0.3-1.1-0.8-1.1h-19.9c-0.6 0-1.1 0.5-1.2 1.1-0.1 0.5 0.3 1 0.9 1z"/>
						<path id="&lt;Path&gt;" class="s73" d="m511.6 430h19.9c0.6 0 1.1-0.5 1.2-1.1 0.1-0.6-0.3-1-0.9-1h-19.8c-0.6 0-1.2 0.4-1.3 1-0.1 0.6 0.3 1.1 0.9 1.1z"/>
						<path id="&lt;Path&gt;" class="s74" d="m522 433.9h8.9c0.5 0 1.1-0.4 1.2-1 0.1-0.6-0.3-1.1-0.9-1.1h-8.9c-0.6 0-1.1 0.5-1.2 1.1-0.1 0.6 0.3 1 0.9 1z"/>
					</g>
					<g id="&lt;Group&gt;" style="opacity: .4">
						<path id="&lt;Path&gt;" class="s75" d="m412.3 480.5h27.9c0.8 0 1.6-0.7 1.7-1.5 0.2-0.8-0.4-1.5-1.2-1.5h-27.9c-0.8 0-1.6 0.7-1.7 1.5-0.2 0.8 0.4 1.5 1.2 1.5z"/>
						<path id="&lt;Path&gt;" class="s76" d="m411.4 486.1h27.9c0.9 0 1.6-0.7 1.8-1.5 0.1-0.8-0.5-1.5-1.3-1.5h-27.9c-0.8 0-1.6 0.7-1.7 1.5-0.1 0.8 0.4 1.5 1.2 1.5z"/>
						<path id="&lt;Path&gt;" class="s77" d="m410.6 491.6h27.9c0.8 0 1.6-0.6 1.7-1.5 0.1-0.8-0.4-1.4-1.3-1.4h-27.9c-0.8 0-1.6 0.6-1.7 1.4-0.1 0.9 0.4 1.5 1.3 1.5z"/>
						<path id="&lt;Path&gt;" class="s78" d="m425.1 497.2h12.5c0.8 0 1.6-0.7 1.7-1.5 0.1-0.8-0.4-1.5-1.2-1.5h-12.5c-0.8 0-1.6 0.7-1.7 1.5-0.2 0.8 0.4 1.5 1.2 1.5z"/>
					</g>
					<g id="&lt;Group&gt;" style="opacity: .5">
						<path id="&lt;Path&gt;" class="s79" d="m419 401.6h19c0.6 0 1.1-0.5 1.2-1.1 0.1-0.5-0.3-1-0.8-1h-19.1c-0.6 0-1.1 0.5-1.2 1-0.1 0.6 0.3 1.1 0.9 1.1z"/>
						<path id="&lt;Path&gt;" class="s80" d="m418.3 405.4h19.1c0.6 0 1.1-0.5 1.2-1.1 0.1-0.5-0.3-1-0.9-1h-19c-0.6 0-1.1 0.5-1.2 1-0.1 0.6 0.3 1.1 0.8 1.1z"/>
						<path id="&lt;Path&gt;" class="s81" d="m428.3 409.2h8.5c0.6 0 1.1-0.5 1.2-1.1 0.1-0.5-0.3-1-0.9-1h-8.5c-0.5 0-1.1 0.5-1.2 1 0 0.6 0.3 1.1 0.9 1.1z"/>
					</g>
				</g>
			</g>
			<g id="&lt;Group&gt;">
				<g id="&lt;Group&gt;">
					<path id="&lt;Path&gt;" class="s82" d="m400.5 722.4l1.2 18.3c0 0 10.9 3.8 17.9 0l1.9-18.8"/>
					<path id="&lt;Path&gt;" class="s83" d="m444.9 756h-45.2c0-1.5-0.3-5.5 0.2-8.8 0.5-3.8 1.8-6.5 1.8-6.5 8.5 1.8 17.9 0 17.9 0 0 0 14.6 4.4 20.4 7.7 4.4 2.6 5.1 6.1 4.9 7.6z"/>
				</g>
				<g id="&lt;Group&gt;">
					<path id="&lt;Path&gt;" class="s84" d="m304 715.1l-5 16.3c0 0 6.9 7.1 15.6 5.7l8.3-20.1"/>
					<path id="&lt;Path&gt;" class="s85" d="m331.1 756c-0.1 0-0.4 0-0.4 0h-17.8q-0.5 0-0.9 0c-4.6-4.1-21.5-18.5-21.2-19.3 0.3-0.9 1.8-3.8 4.2-7.3 2.6-3.8 6.3-5.6 6.3-5.6 7.1 6 16.2 6.3 16.2 6.3 0 0 4.4 11.7 6.9 13.9 2.9 0.4 9.9 4.3 6.7 12z"/>
				</g>
				<path id="&lt;Path&gt;" class="s86" d="m421.5 733.2c-14.6 3.9-21.8-0.8-21.8-0.8 0 0-4.3-67-4.5-79.1-0.3-13.2 0.6-24.5 0.6-24.5-6.1-11.3-14.2-43.9-14.2-43.9 0 0-2.8 11.6-5.9 22.9-2 7.5-4.1 14.9-5.5 18.8-4.2 11.2-47.6 100.5-47.6 100.5-17.9-1.7-20.7-7.3-20.7-7.3 0 0 11.7-39.5 20.8-65.4 9.1-26 15-37.9 15-37.9l7-68.9c0 0-3.6-9.5-3.2-16.9 0.4-8.6 6.3-22.5 6.3-22.5l61-3.1 6.8 12.1c0 0 12.9 93.6 13.8 107.8 0.9 14.3-7.9 108.2-7.9 108.2z"/>
				<path id="&lt;Path&gt;" class="s87" d="m428.2 348.4c-0.3 3.7-2.1 8.4-3.1 14-0.7 4-2.1 9.4-4.3 13.8-2.2 4.3-4.6 7.6-7.2 8.2-5.3 1.2-23.8-4.3-29-24.4-6.1-23.8 11.1-30.3 19.5-29.1 8.5 1.2 25 4.9 24.1 17.5z"/>
				<g id="&lt;Group&gt;">
					<path id="&lt;Path&gt;" class="s88" d="m406.1 372.8c0 0-2.5 8.1-3.3 18.3 0 0-16.1 2.7-24.9-2.1 0 0 9.1-18.4 10-34.5"/>
				</g>
				<path id="&lt;Path&gt;" class="s89" d="m346.9 431.9c0 0-6.5 22.6-5.6 31.1 0.3 3.1 19.3 11.3 19.3 11.3l3.6-32.2z"/>
				<path id="&lt;Path&gt;" class="s90" d="m363.3 447.6q-0.6 0-1.2-0.1c-4.8-0.3-8.7-1.2-11.8-2.3-4.8-1.6-7.4-3.5-7.4-3.5 5.3-22.2 9.8-33 9.8-33z"/>
				<path id="&lt;Path&gt;" class="s91" d="m362.1 447.5c-4.8-0.3-8.7-1.2-11.8-2.3 1.1-6.8 2.1-16.3 2.1-16.3l2.1 2.9z"/>
				<path id="&lt;Path&gt;" class="s92" d="m416.4 512.8c0.4 2.8-0.8 4.4-0.8 4.4-24.9-7.1-49 29.6-77.5 6.3-1.2-0.9 8.2-17.4 13.1-45.6 1.6-9.1 1.9-20.4 2.2-31.5 0.3-15.3-3.8-29.1-0.7-37.4 4.1-10.9 17.7-18.3 23.8-19.3 0-0.1 10.4-2.4 24 1.5 11.5 3.3 20.6 18.3 20.6 18.3 0.4 7.2-2.5 19.7-5.1 33.6-1.7 8.9-3.3 18.4-3.7 27.4q0 0.7 0 1.5c-0.4 14.1 3.1 32.1 4.1 40.8z"/>
				<path id="&lt;Path&gt;" class="s93" d="m416 443.1c-1.7 8.9-3.3 18.4-3.7 27.4q0 0.7 0 1.5l-0.1 0.3-12.1-41 6 0.6z"/>
				<path id="&lt;Path&gt;" class="s94" d="m481.5 427.1c0 0 1.1-3.4 1.6-5.4 0.4-1.9 0.7-4.1 1.4-3.9 0.7 0.1 1.5 1.3 1.9 2.8 0.3 1.5 0 4.8 0 4.8z"/>
				<path id="&lt;Path&gt;" class="s95" d="m498.4 419.7c-0.4-0.1-1.6 0.5-2.8 1.1-1.7 0.7-3.6 1.5-3.6 1.5l-3.9 2.5c0.7-0.8 1.6-1.6 2.5-2.3 1.3-1.2 2.6-2.1 2.9-2.4 2.1-2.1 0.7-3.4-0.6-2.7-1.2 0.7-4 2.1-4.9 2.8-1.6 1.2-5.2 4.9-5.5 5.2-0.5 0.5-4.6 9.1-5.5 10.3-1 1.4-4.5 3.4-4.5 3.4-10.7 4.5-32.4 13.2-32.4 13.2l-8.5-17.5-24.1 5.4c0 0 16.9 30.2 22 33.7 11.1 7.5 41.8-24.1 51.6-29.3 0 0 4.9-2.2 6.9-4.1 1.1-1.1 1.8-2.5 2.1-3.5l1-2c0 0 0.2 2.8 0.4 4.1 0.2 1.2 1.5 1.8 2 1.3 0.3-0.2 0.3-1.8 0.5-3.6 0.3-2.1 0.6-4.5 0.4-4.8-0.4-0.5-1.5-1.9-1.5-1.9 0 0 0.2-0.9-0.2-1.2-0.4-0.3-1.3-1-1.9-1.2l3.3-2.6c0 0 1.3-0.8 3.2-2 2-1.3 1.8-3.3 1.1-3.4z"/>
				<path id="&lt;Path&gt;" class="s96" d="m397.5 416.7c-1.2 12.2 11.8 34.1 11.8 34.1 0 0 13.4-2.4 24.8-12.9 0 0-8.6-22.1-13-28.4-4.8-6.7-22.4-5-23.6 7.2z"/>
				<g id="&lt;Group&gt;">
					<path id="&lt;Path&gt;" class="s50" d="m434.1 346.2c1.6-4.3 0.7-9-7.1-9.1-9-15.2-26.5-12-31.9-10.6-14.5 3.5-22.1 19.9-20.5 31.9 1.9 14 5.7 16.4 7.1 18.4 1.4 1.9 13.2 4.8 19.1 2 1.9-1 7.7-18.2 8.4-20.1 0.1-0.5 0.3-0.9 0.6-1.3 0.6-0.4 1.4-0.3 2.1-0.3q0.3 0 0.5 0c-0.1 1.8 0.2 4 2.3 3.5 1.8-0.5 3.2-2.2 4-3.7 10.2-1.9 14.4-8 15.4-10.7z"/>
				</g>
				<path id="&lt;Path&gt;" class="s97" d="m414.7 360.3c0 0 0.1-6.9-5-6-4.5 0.8-5.5 13.8-1.3 14.8 4.2 0.9 6.7-3.4 6.3-8.8z"/>
				<path id="&lt;Path&gt;" class="s50" d="m377.1 342.7c0 0-20 27.4-13.2 46.3 2.8 8 38.9 17.3 48.3 2.8-8.1-2.4-5.9-25-5.9-25z"/>
				<path id="&lt;Path&gt;" class="s98" d="m381.6 584.9c0 0-2.8 11.6-5.9 22.9v-43.2z"/>
			</g>
			<g id="&lt;Group&gt;">
				<g id="&lt;Group&gt;">
					<g id="&lt;Group&gt;">
						<path id="&lt;Path&gt;" class="s99" d="m168.5 722.9l-0.8 19c0 0 8.2 3.4 14.6 0l4.8-18"/>
					</g>
				</g>
				<g id="&lt;Group&gt;">
					<path id="&lt;Path&gt;" class="s100" d="m110.9 716.7l-4.7 22.6c0 0 9.1 4.4 16.2 1.4l5.9-18.7"/>
					<path id="&lt;Path&gt;" class="s101" d="m165.1 756.3h40c0.5 0 0.9-0.4 0.8-0.9-0.4-1.7-2.8-4.3-7.3-6.6-4.7-2.5-16.3-6.9-16.3-6.9 0 0-8.2 1.4-14.6 0 0 0-2.3 2.3-2.8 5.7-0.5 3.5 0.2 7.9 0.2 8.7z"/>
				</g>
				<path id="&lt;Path&gt;" class="s102" d="m237.3 413.2l29.1 42.4c0 0 3 12.3-11.1 10.8-14.1-1.6-35.4-36.1-35.4-36.1"/>
				<path id="&lt;Path&gt;" class="s103" d="m247.5 427.2c0 0-7.9 12.6-20.8 20.1l-19.9-19.3-0.6-43.8c0 0 11.4 4.6 22.9 18.1 4.5 5.4 9.3 11.4 18.4 24.9z"/>
				<path id="&lt;Path&gt;" class="s104" d="m226 414.2l6.1 13.7-12.2-2.3z"/>
				<path id="&lt;Path&gt;" class="s105" d="m149.4 496.4c0 0-14.2 43.8-19 82.5-4.7 38.8-3 29.8-4.5 39.7-1.4 9-3.6 21.9-7.8 40.5-4.1 18.6-10.3 70.1-10.3 70.1 0 0 8.6 3.8 18.1 2.5 0 0 23-59.1 26.2-75.8 3.2-16.7 4.2-35 4.2-35 0 0 17.5-35 24.3-60.3l3.7-1-0.8 69c0 0-11.1 25.2-12.9 45.8-1.8 20.7-2.9 57.9-2.9 57.9 0 0 13.1 4 17.6 0.9 0 0 22.2-85 27.6-106.3 5.4-21.3 13.9-70 14.5-79.8 2-34.3-2.9-49-2.9-49z"/>
				<path id="&lt;Path&gt;" class="s106" d="m122.7 739.9c0 0-8.8 1.1-16.4-1.2l-1 3.2c0 0-7.4 2.5-10.3 5.6-4.3 4.7-2.4 8.8-2.4 8.8h32.3c0 0 1.8-8-2.2-16.4z"/>
				<path id="&lt;Path&gt;" class="s107" d="m225.3 495.8c-0.5 4-2.6 4.9-2.6 4.9 0 0-15.7 8.2-74.4-0.8 0 0-2.1-0.4-1.3-4.3 2.1-10.1 3.4-22.2 2.8-31-0.2-3.1-0.7-5.8-1.4-7.9-2.2-6.1-5.4-14.8-8-23.7-3.3-10.9-5.8-22.1-4.8-30.1 2-16.2 30.5-23.1 30.5-23.1l24.3-0.2c0 0 21.5 2.2 31.5 17.3 7.8 11.7 4.1 52 2.2 79.2-0.5 8 1.7 15.1 1.2 19.7z"/>
				<path id="&lt;Path&gt;" class="s108" d="m157.1 430.1l-4.3 34.5h-3c-0.2-3.1-0.7-5.8-1.4-7.9-2.2-6.1-5.4-14.8-8-23.7z"/>
				<g id="&lt;Group&gt;">
					<path id="&lt;Path&gt;" class="s50" d="m200.8 325c0 0 4 15.2-1.9 18.1-4.8 2.3-5.2-4.5-5.2-4.5l-1.1-7.4"/>
					<path id="&lt;Path&gt;" class="s109" d="m166 379.8c0 0 4 10.3 19.1 8.8 13.2-1.2 5.3-9 5.3-9 0 0-0.7-2.1-1.5-4.8-0.8-2.7-1.8-6-2.4-8.6l-5.2-4.3-11.2-9.2c0 0 1.5 19.9-4.1 27.1z"/>
					<path id="&lt;Path&gt;" class="s110" d="m174.4 362c0 0 4.6 9.7 14.5 12.8-0.8-2.7-1.8-6-2.4-8.6l-5.2-4.3z"/>
					<path id="&lt;Path&gt;" class="s111" d="m198.5 333.9c0 0 6.3 30.4-2.5 35.2 0 0-10 3.7-20.5-4.8-3-2.4-5.4-5.5-7.2-8.9-3.1-5.6-8-15.9-6.9-23.2 1.4-10.4 30.9-21.1 37.1 1.7z"/>
					<path id="&lt;Path&gt;" class="s112" d="m175.5 347.7c0 0-1.8-5.6-5.7-4-5.1 2.2 0.6 15.4 5.6 11.7"/>
					<path id="&lt;Path&gt;" class="s50" d="m159.4 323.7c6.6-13 18.8-6.8 32.4-8.1 4.6-4.5 9.5-4.7 11.9-3.4 3.4 1.7 3.3 8.5 3 11.4-1.9 17.9-21.6 16.5-27.4 15.7-0.2 1.4-0.5 2.7-1.3 3.8-0.8 1.1-2.1 1.8-3.6 2.3-0.7-1-1.8-2-3.1-2q-0.7 0-1.5 0.3c-1 0.5-1.6 1.4-1.9 2.5-0.4 2.3 0.9 5.8 2.5 7.9 0.1 3.9-0.2 7.4-0.2 9.7 0 0-3.2-5.2-5.2-7.5-1.1-1.3-4.2-5.5-6.1-10.9q0 0 0-0.1c-1.2-1.9-8.8-15.4 0.5-21.6z"/>
				</g>
				<path id="&lt;Path&gt;" class="s113" d="m225.4 485.5l-43.2-1.2c-2.1 0-3.5-2.1-2.9-4.1l20.1-59.2c0.8-2.3 2.9-3.7 5.2-3.7l43.2 1.2c2.1 0.1 3.5 2.1 2.9 4.1l-20.1 59.3c-0.8 2.2-2.9 3.7-5.2 3.6z"/>
				<path id="&lt;Path&gt;" class="s114" d="m207.7 452.9c-0.4-1-2.3-0.6-2.9-0.4-0.5 0.2-1.2 0.5-2.2 1q-0.4 0.1-0.8 0.3c1.6-0.9 2.7-1.6 2.3-2.5-0.4-1-2.3-0.6-2.9-0.4-0.5 0.2-1.2 0.5-2.2 1-1.5 0.6-3.7 1.5-5 2.1-2.3 0.4-5.1 1.1-5.1 1 0.1-0.8 0.7-1.9 0.8-2.8 0.4-0.9 1.8-4.2 0.9-5.3-1-1.3-1.7-0.8-2.4 0.8-0.8 1.6-3.1 3.9-3.9 4.8-0.8 0.9-0.9 1.9-2 3.2-1.3 1.5-3.3 2.2-4.4 2.5-2.1 0.5-20.8 1.2-33.8 1.5 3.8-12.7 6.3-31.7 6.3-31.7l-24.4-9.3c0 0-9.2 54.8-6.2 59.8 2.1 3.6 7.6 5.4 13.3 4.7 7.6-0.8 23.7-6.8 47.5-13.5 3.8-0.5 6.2-1 11.1-1.6 1.5-0.2 3-0.6 4.2-1.1q0.1 0 0.2 0 0.1-0.1 0.3-0.2c0.8-0.3 2.7-1.2 4.4-2.2 2.2-1.4 4.8-3.1 4.3-4.3-0.2-0.6-1-0.7-1.7-0.6 2-1.2 3.7-2.3 3.3-3.4-0.2-0.4-0.8-0.6-1.3-0.6 1.6-1 2.7-1.8 2.3-2.8z"/>
				<path id="&lt;Path&gt;" class="s115" d="m132.4 399.7c3-5.6 14.7-11.9 14.7-11.9l11.7 27.6c0.1 9.9-6 35.5-6 35.5-3.4 0.3-11-0.1-16.9-1-7.1-1.1-14.6-3.5-14.6-3.5 0 0 3.9-33.3 11.1-46.7z"/>
				<g id="&lt;Group&gt;">
					<path id="&lt;Path&gt;" class="s3" d="m323.7 375.9l-72.3 9.1c-5.2 0.7-9.9-3-10.6-8.2l-1.3-11c-0.7-5.2 3-9.9 8.2-10.6l72.2-9.1c5.2-0.6 10 3.1 10.6 8.3l1.4 10.9c0.6 5.2-3 10-8.2 10.6z"/>
					<path id="&lt;Path&gt;" class="s116" d="m258.4 377l-5.9 0.8c-2.7 0.3-5.2-1.6-5.6-4.4l-0.7-5.9c-0.4-2.7 1.6-5.2 4.3-5.6l5.9-0.7c2.8-0.4 5.3 1.6 5.6 4.3l0.8 6c0.3 2.7-1.6 5.2-4.4 5.5z"/>
					<g id="&lt;Group&gt;">
						<path id="&lt;Path&gt;" class="s117" d="m320.6 358.1l-53.6 6.7c-0.5 0.1-0.9-0.2-0.9-0.6v-0.1c-0.1-0.4 0.2-0.8 0.7-0.9l53.6-6.7c0.4 0 0.8 0.3 0.9 0.7 0 0.5-0.3 0.9-0.7 0.9z"/>
						<path id="&lt;Path&gt;" class="s118" d="m289.7 365.9l-22.2 2.8c-0.5 0-0.9-0.3-0.9-0.7v-0.1c-0.1-0.4 0.2-0.8 0.7-0.8l22.2-2.8c0.4-0.1 0.8 0.2 0.9 0.7 0 0.4-0.3 0.8-0.7 0.9z"/>
						<path id="&lt;Path&gt;" class="s119" d="m321.1 361.9l-28.2 3.6c-0.5 0-0.9-0.3-0.9-0.7-0.1-0.5 0.2-0.9 0.7-0.9l28.2-3.6c0.4 0 0.8 0.3 0.8 0.7v0.1c0.1 0.4-0.2 0.8-0.6 0.8z"/>
						<path id="&lt;Path&gt;" class="s120" d="m296.9 368.9l-29 3.6c-0.4 0-0.8-0.3-0.8-0.7h-0.1c0-0.5 0.3-0.9 0.7-0.9l29-3.7c0.4 0 0.8 0.3 0.9 0.7v0.1c0 0.4-0.3 0.8-0.7 0.9z"/>
					</g>
				</g>
				<path id="&lt;Path&gt;" class="s121" d="m271 382.5q-0.2 0-0.2 0c0 0 0.6-1.7 1.1-3.5 0.5-0.9 1.7-2.9 1.7-4 0-3.5-2.6-1.1-4.1 0.5-3.8 3.2-6.5 6.1-6.5 9.3 0 6.1-0.2 10.8-0.2 10.8-5.1 14.5-15.3 43.9-15.3 43.9l18.2 23c0 0 3.7-6.2 5.1-35.5 0.5-11.3 2.7-23.5 3.6-28.4 0 0 4.5-5.3 6-9 0.9-1.4 1.7-2.6 2.1-3.1 1.3-1.7 2.1-5.7 2.1-5.7z"/>
			</g>
			<g id="&lt;Group&gt;">
				<path id="&lt;Path&gt;" class="s3" d="m603.4 286.9h-101c-5.2 0-9.5-4.2-9.5-9.5v-20.3c0-5.2 4.3-9.5 9.5-9.5h101c5.2 0 9.5 4.3 9.5 9.5v20.3c0 5.3-4.3 9.5-9.5 9.5z"/>
				<path id="&lt;Path&gt;" class="s122" d="m517.2 277.7h-10.9c-2.7 0-5-2.2-5-5v-10.9c0-2.7 2.3-5 5-5h10.9c2.8 0 5 2.3 5 5v10.9c0 2.8-2.2 5-5 5z"/>
				<g id="&lt;Group&gt;">
					<path id="&lt;Path&gt;" class="s123" d="m599.4 263.3h-70.6c-0.6 0-1.1-0.5-1.1-1.1 0-0.5 0.5-1 1.1-1h70.6c0.5 0 1 0.5 1 1 0 0.6-0.5 1.1-1 1.1z"/>
					<path id="&lt;Path&gt;" class="s124" d="m558 268.3h-29.2c-0.6 0-1.1-0.4-1.1-1 0-0.6 0.5-1.1 1.1-1.1h29.2c0.6 0 1.1 0.5 1.1 1.1 0 0.6-0.5 1-1.1 1z"/>
					<path id="&lt;Path&gt;" class="s125" d="m599.4 268.3h-37.1c-0.6 0-1.1-0.4-1.1-1 0-0.6 0.5-1.1 1.1-1.1h37.1c0.5 0 1 0.5 1 1.1 0 0.6-0.5 1-1 1z"/>
					<path id="&lt;Path&gt;" class="s126" d="m566.9 273.4h-38.1c-0.6 0-1.1-0.5-1.1-1.1 0-0.6 0.5-1.1 1.1-1.1h38.1c0.6 0 1.1 0.5 1.1 1.1 0 0.6-0.5 1.1-1.1 1.1z"/>
				</g>
			</g>
			<g id="&lt;Group&gt;">
				<path id="&lt;Path&gt;" class="s127" d="m340 271.7h-64.5c-7 0-12.7-5.7-12.7-12.7v-33.9c0-7 5.7-12.7 12.7-12.7h64.5c7 0 12.7 5.7 12.7 12.7v33.9c0 7-5.7 12.7-12.7 12.7z"/>
				<path id="&lt;Path&gt;" class="s3" d="m302.1 231.1l15 8.6c2.5 1.4 2.5 5 0 6.4l-15 8.7c-2.5 1.4-5.6-0.4-5.6-3.2v-17.3c0-2.9 3.1-4.7 5.6-3.2z"/>
			</g>
			<g id="&lt;Group&gt;">
				<path id="&lt;Path&gt;" class="s128" d="m115 372h-101.3c-7.2 0-13-5.8-13-13v-98.5c0-7.2 5.8-13 13-13h101.3c7.2 0 13 5.8 13 13v98.5c0 7.2-5.8 13-13 13z"/>
				<path id="&lt;Path&gt;" class="s129" d="m83.5 294.9h-55.5c-6.7 0-12.1-5.4-12.1-12.1 0-6.7 5.4-12.2 12.1-12.2h55.5c6.7 0 12.2 5.5 12.2 12.2 0 6.7-5.5 12.1-12.2 12.1z"/>
				<path id="&lt;Path&gt;" class="s129" d="m100.7 334h-55.5c-6.7 0-12.1-5.4-12.1-12.1 0-6.7 5.4-12.2 12.1-12.2h55.5c6.7 0 12.1 5.5 12.1 12.2 0 6.7-5.4 12.1-12.1 12.1z"/>
				<g id="&lt;Group&gt;">
					<path id="&lt;Path&gt;" class="s3" d="m85.5 278.1h-56.7c-0.8 0-1.5-0.6-1.5-1.4 0-0.9 0.7-1.5 1.5-1.5h56.7c0.8 0 1.5 0.6 1.5 1.5 0 0.8-0.7 1.4-1.5 1.4z"/>
					<path id="&lt;Path&gt;" class="s3" d="m85.5 284.2h-56.7c-0.8 0-1.5-0.6-1.5-1.4 0-0.8 0.7-1.5 1.5-1.5h56.7c0.8 0 1.5 0.7 1.5 1.5 0 0.8-0.7 1.4-1.5 1.4z"/>
					<path id="&lt;Path&gt;" class="s3" d="m55.7 290.4h-26.9c-0.8 0-1.5-0.7-1.5-1.5 0-0.8 0.7-1.5 1.5-1.5h26.9c0.8 0 1.5 0.7 1.5 1.5 0 0.8-0.7 1.5-1.5 1.5z"/>
				</g>
				<g id="&lt;Group&gt;">
					<path id="&lt;Path&gt;" class="s3" d="m43.7 317.2h56.8c0.8 0 1.4-0.6 1.4-1.4 0-0.9-0.6-1.5-1.4-1.5h-56.8c-0.8 0-1.4 0.6-1.4 1.5 0 0.8 0.6 1.4 1.4 1.4z"/>
					<path id="&lt;Path&gt;" class="s3" d="m65.1 323.4h35.4c0.8 0 1.4-0.7 1.4-1.5 0-0.8-0.6-1.5-1.4-1.5h-35.4c-0.8 0-1.4 0.7-1.4 1.5 0 0.8 0.6 1.5 1.4 1.5z"/>
					<path id="&lt;Path&gt;" class="s3" d="m43.7 323.4h15.2c0.8 0 1.4-0.7 1.4-1.5 0-0.8-0.6-1.5-1.4-1.5h-15.2c-0.8 0-1.4 0.7-1.4 1.5 0 0.8 0.6 1.5 1.4 1.5z"/>
					<path id="&lt;Path&gt;" class="s3" d="m73.6 329.5h26.9c0.8 0 1.4-0.7 1.4-1.5 0-0.8-0.6-1.5-1.4-1.5h-26.9c-0.9 0-1.5 0.7-1.5 1.5 0 0.8 0.6 1.5 1.5 1.5z"/>
				</g>
				<g id="&lt;Group&gt;">
					<path id="&lt;Path&gt;" class="s3" d="m21.6 350.2c0 1.6-1.3 2.9-2.9 2.9-1.5 0-2.8-1.3-2.8-2.9 0-1.5 1.3-2.8 2.8-2.8 1.6 0 2.9 1.3 2.9 2.8z"/>
					<path id="&lt;Path&gt;" class="s3" d="m33 350.2c0 1.6-1.3 2.9-2.8 2.9-1.6 0-2.9-1.3-2.9-2.9 0-1.5 1.3-2.8 2.9-2.8 1.5 0 2.8 1.3 2.8 2.8z"/>
					<path id="&lt;Path&gt;" class="s3" d="m44.5 350.2c0 1.6-1.3 2.9-2.9 2.9-1.5 0-2.8-1.3-2.8-2.9 0-1.5 1.3-2.8 2.8-2.8 1.6 0 2.9 1.3 2.9 2.8z"/>
				</g>
			</g>
			<g id="&lt;Group&gt;">
				<path id="&lt;Path&gt;" class="s3" d="m1096.3 580.4h-75.3c-5.9 0-10.7-4.8-10.7-10.7v-68.9c0-5.9 4.8-10.7 10.7-10.7h75.3c5.9 0 10.7 4.8 10.7 10.7v68.9c0 5.9-4.8 10.7-10.7 10.7z"/>
				<path id="&lt;Path&gt;" class="s67" d="m1093.3 574.1h-69.2c-3.9 0-7-3.1-7-7v-63.6c0-3.9 3.1-7.1 7-7.1h69.2c3.8 0 7 3.2 7 7.1v63.6c0 3.9-3.2 7-7 7z"/>
				<path id="&lt;Path&gt;" class="s130" d="m1076.2 574.1h-52.1c-3 0-5.5-1.8-6.5-4.5l22.8-34c2.4-3.5 7.6-3.5 10 0l7.2 10.8z"/>
				<path id="&lt;Path&gt;" class="s131" d="m1100.3 536.1v31c0 3.9-3.2 7-7 7h-54.2l18.5-27.7 20.4-30.2c2.1-3.2 6.8-3.2 8.9 0z"/>
				<path id="&lt;Path&gt;" class="s132" d="m1057.5 515.3c0 7-5.7 12.7-12.7 12.7-7 0-12.7-5.7-12.7-12.7 0-7 5.7-12.7 12.7-12.7 7 0 12.7 5.7 12.7 12.7z"/>
			</g>
			<g id="&lt;Group&gt;">
				<path id="&lt;Path&gt;" class="s133" d="m948.5 357.9l-68.2-27.1-68.1 27.1c0 0-3.3 96 68.1 120.8 71.5-24.8 68.2-120.8 68.2-120.8z"/>
				<path id="&lt;Compound Path&gt;" fill-rule="evenodd" class="s3" d="m943.5 361.3c-0.3 16.4-4.8 90.5-63.2 112.1-58.3-21.6-62.8-95.7-63.1-112.1l63.1-25.2zm-120.1 4.1c1 20.3 8 81.9 57 101.6 49.1-19.8 56.1-81.3 57-101.6l-57-22.7z"/>
				<path id="&lt;Path&gt;" class="s134" d="m839.2 393.4c0 0 30.2 20.2 41 48.4 0 0 29.1-74.1 68.3-99.2 0 0-38 7.5-71.7 69.8 0 0-14.8-17.5-37.6-19z"/>
			</g>
		</g>
	</g>
</svg>