<svg version="1.2" xmlns="http://www.w3.org/2000/svg" viewBox="0 0 807 794" width="807" height="794">
	<title>33771277_2209</title>
	<defs>
		<linearGradient id="g1" x1="177.7" y1="457.2" x2="286.1" y2="453.8" gradientUnits="userSpaceOnUse">
			<stop offset="0" stop-color="#ffffff"/>
			<stop offset="1" stop-color="#a1bbe2"/>
		</linearGradient>
		<linearGradient id="g2" x1="-208.3" y1="69.8" x2="83.2" y2="-221.7" gradientUnits="userSpaceOnUse">
			<stop offset="0" stop-color="#3385ff"/>
			<stop offset="1" stop-color="#7baefa"/>
		</linearGradient>
		<linearGradient id="g3" x1="-69.1" y1="-5.5" x2="242" y2="-185.1" gradientUnits="userSpaceOnUse">
			<stop offset=".075" stop-color="#1f79ff"/>
			<stop offset=".546" stop-color="#7baefa"/>
			<stop offset="1" stop-color="#90bbfb"/>
		</linearGradient>
		<linearGradient id="g4" x1="228.5" y1="206.5" x2="295.3" y2="90.8" gradientUnits="userSpaceOnUse">
			<stop offset="0" stop-color="#bfd9ff"/>
			<stop offset=".513" stop-color="#d3e5ff"/>
			<stop offset="1" stop-color="#e4efff"/>
		</linearGradient>
		<linearGradient id="g5" x1="401.2" y1="424.2" x2="449.6" y2="396.3" gradientUnits="userSpaceOnUse">
			<stop offset="0" stop-color="#4e3936"/>
			<stop offset="1" stop-color="#ffffff"/>
		</linearGradient>
		<linearGradient id="g6" x1="343.7" y1="277.1" x2="426.2" y2="194.6" gradientUnits="userSpaceOnUse">
			<stop offset="0" stop-color="#89b8ff"/>
			<stop offset=".513" stop-color="#a5c9ff"/>
			<stop offset="1" stop-color="#c7ddff"/>
		</linearGradient>
		<linearGradient id="g7" x1="364.5" y1="386.8" x2="393.7" y2="336.2" gradientUnits="userSpaceOnUse">
			<stop offset="0" stop-color="#dbd4df"/>
			<stop offset="1" stop-color="#8990d4"/>
		</linearGradient>
		<linearGradient id="g8" x1="362.8" y1="372.7" x2="406.9" y2="328.6" gradientUnits="userSpaceOnUse">
			<stop offset="0" stop-color="#4e3936"/>
			<stop offset="1" stop-color="#ffffff"/>
		</linearGradient>
		<linearGradient id="g9" x1="361.9" y1="372.3" x2="385.2" y2="331.9" gradientUnits="userSpaceOnUse">
			<stop offset=".18" stop-color="#8a9bc6"/>
			<stop offset="1" stop-color="#8a9bc6"/>
		</linearGradient>
		<linearGradient id="g10" x1="55.9" y1="416.2" x2="151.2" y2="416.2" gradientUnits="userSpaceOnUse">
			<stop offset=".033" stop-color="#747ccd"/>
			<stop offset="1" stop-color="#acb1e1"/>
		</linearGradient>
		<linearGradient id="g11" x1="55.9" y1="400.9" x2="151.2" y2="400.9" gradientUnits="userSpaceOnUse">
			<stop offset=".033" stop-color="#8990d5"/>
			<stop offset=".693" stop-color="#a9aee0"/>
			<stop offset="1" stop-color="#bdc1e7"/>
		</linearGradient>
		<linearGradient id="g12" x1="61.7" y1="432.5" x2="104.9" y2="357.6" gradientUnits="userSpaceOnUse">
			<stop offset="0" stop-color="#a7acdf"/>
			<stop offset=".523" stop-color="#c7caeb"/>
		</linearGradient>
		<linearGradient id="g13" x1="97.9" y1="430" x2="66" y2="374.8" gradientUnits="userSpaceOnUse">
			<stop offset=".033" stop-color="#8990d5"/>
			<stop offset=".338" stop-color="#a9aee0"/>
			<stop offset=".905" stop-color="#c7caeb"/>
		</linearGradient>
		<linearGradient id="g14" x1="26.8" y1="305.5" x2="21.4" y2="243.4" gradientUnits="userSpaceOnUse">
			<stop offset=".224" stop-color="#6c75cb"/>
			<stop offset=".673" stop-color="#a9aee0"/>
			<stop offset=".961" stop-color="#c7caeb"/>
		</linearGradient>
		<linearGradient id="g15" x1="76.8" y1="305.7" x2="70.7" y2="235.7" gradientUnits="userSpaceOnUse">
			<stop offset=".033" stop-color="#6c75cb"/>
			<stop offset=".652" stop-color="#a9aee0"/>
			<stop offset=".894" stop-color="#c7caeb"/>
		</linearGradient>
		<linearGradient id="g16" x1="142.8" y1="296.1" x2="142.8" y2="235.8" gradientUnits="userSpaceOnUse">
			<stop offset=".033" stop-color="#8087d2"/>
			<stop offset=".621" stop-color="#a9aee0"/>
			<stop offset=".802" stop-color="#c7caeb"/>
		</linearGradient>
		<linearGradient id="g17" x1="158.3" y1="266.8" x2="184.2" y2="222" gradientUnits="userSpaceOnUse">
			<stop offset="0" stop-color="#999fdb"/>
			<stop offset=".683" stop-color="#b6bbe5"/>
		</linearGradient>
		<linearGradient id="g18" x1="189" y1="273" x2="185.5" y2="251" gradientUnits="userSpaceOnUse">
			<stop offset=".258" stop-color="#b9c4c3"/>
			<stop offset=".899" stop-color="#e8ecec"/>
		</linearGradient>
		<linearGradient id="g19" x1="213.5" y1="268.2" x2="210.8" y2="250.8" gradientUnits="userSpaceOnUse">
			<stop offset=".258" stop-color="#b9c4c3"/>
			<stop offset=".899" stop-color="#e8ecec"/>
		</linearGradient>
		<linearGradient id="g20" x1="-125.7" y1="249.2" x2="-78.1" y2="166.9" gradientUnits="userSpaceOnUse">
			<stop offset=".033" stop-color="#8f95d7"/>
			<stop offset=".905" stop-color="#b6bbe5"/>
		</linearGradient>
		<linearGradient id="g21" x1="-16.5" y1="482.2" x2="-69.5" y2="390.2" gradientUnits="userSpaceOnUse">
			<stop offset=".033" stop-color="#8990d5"/>
			<stop offset=".338" stop-color="#a9aee0"/>
			<stop offset=".905" stop-color="#c7caeb"/>
		</linearGradient>
		<linearGradient id="g22" x1="-107.1" y1="280.2" x2="-59.2" y2="197.1" gradientUnits="userSpaceOnUse">
			<stop offset=".033" stop-color="#9197d8"/>
			<stop offset=".905" stop-color="#b6bbe5"/>
		</linearGradient>
		<linearGradient id="g23" x1="73.1" y1="425.6" x2="55.3" y2="394.7" gradientUnits="userSpaceOnUse">
			<stop offset=".033" stop-color="#8990d5"/>
			<stop offset=".338" stop-color="#a9aee0"/>
			<stop offset=".905" stop-color="#c7caeb"/>
		</linearGradient>
		<linearGradient id="g24" x1="69.2" y1="446.6" x2="35.4" y2="388.1" gradientUnits="userSpaceOnUse">
			<stop offset=".033" stop-color="#8990d5"/>
			<stop offset=".338" stop-color="#a9aee0"/>
			<stop offset=".905" stop-color="#c7caeb"/>
		</linearGradient>
		<linearGradient id="g25" x1="66.4" y1="319.4" x2="52.1" y2="294.5" gradientUnits="userSpaceOnUse">
			<stop offset=".033" stop-color="#8990d5"/>
			<stop offset=".338" stop-color="#a9aee0"/>
			<stop offset=".905" stop-color="#c7caeb"/>
		</linearGradient>
		<linearGradient id="g26" x1="63.7" y1="330.2" x2="41.5" y2="291.7" gradientUnits="userSpaceOnUse">
			<stop offset=".033" stop-color="#8990d5"/>
			<stop offset=".338" stop-color="#a9aee0"/>
			<stop offset=".905" stop-color="#c7caeb"/>
		</linearGradient>
		<linearGradient id="g27" x1="192.1" y1="259.1" x2="269.8" y2="181.4" gradientUnits="userSpaceOnUse">
			<stop offset="0" stop-color="#89b8ff"/>
			<stop offset=".513" stop-color="#a5c9ff"/>
			<stop offset="1" stop-color="#c7ddff"/>
		</linearGradient>
		<linearGradient id="g28" x1="164.1" y1="297.6" x2="80.4" y2="213.9" gradientUnits="userSpaceOnUse">
			<stop offset="0" stop-color="#7d86e0"/>
			<stop offset="1" stop-color="#000000"/>
		</linearGradient>
		<linearGradient id="g29" x1="301.3" y1="234.1" x2="349.7" y2="206.1" gradientUnits="userSpaceOnUse">
			<stop offset="0" stop-color="#89b8ff"/>
			<stop offset=".513" stop-color="#a5c9ff"/>
			<stop offset="1" stop-color="#c7ddff"/>
		</linearGradient>
		<linearGradient id="g30" x1="620.5" y1="467" x2="626.1" y2="457.3" gradientUnits="userSpaceOnUse">
			<stop offset=".129" stop-color="#9b9ec0"/>
			<stop offset=".75" stop-color="#c4c5e8"/>
		</linearGradient>
		<linearGradient id="g31" x1="621.8" y1="481.7" x2="639.5" y2="451.1" gradientUnits="userSpaceOnUse">
			<stop offset=".129" stop-color="#9b9ec0"/>
			<stop offset=".75" stop-color="#c4c5e8"/>
		</linearGradient>
		<linearGradient id="g32" x1="651.6" y1="528.1" x2="669.2" y2="528.1" gradientUnits="userSpaceOnUse">
			<stop offset=".258" stop-color="#9b9ec0"/>
			<stop offset=".899" stop-color="#c4c5e8"/>
		</linearGradient>
		<linearGradient id="g33" x1="651.6" y1="478.3" x2="669.2" y2="478.3" gradientUnits="userSpaceOnUse">
			<stop offset=".258" stop-color="#9b9ec0"/>
			<stop offset=".899" stop-color="#c4c5e8"/>
		</linearGradient>
		<linearGradient id="g34" x1="657.1" y1="488.1" x2="662.7" y2="478.4" gradientUnits="userSpaceOnUse">
			<stop offset=".129" stop-color="#9b9ec0"/>
			<stop offset=".75" stop-color="#c4c5e8"/>
		</linearGradient>
		<linearGradient id="g35" x1="658.4" y1="502.8" x2="676.1" y2="472.2" gradientUnits="userSpaceOnUse">
			<stop offset=".129" stop-color="#9b9ec0"/>
			<stop offset=".75" stop-color="#c4c5e8"/>
		</linearGradient>
		<linearGradient id="g36" x1="519.5" y1="194.6" x2="531.8" y2="251.4" gradientUnits="userSpaceOnUse">
			<stop offset="0" stop-color="#dbd4df"/>
			<stop offset="1" stop-color="#b5d3ff"/>
		</linearGradient>
		<linearGradient id="g37" x1="481.7" y1=".2" x2="558.3" y2=".2" gradientUnits="userSpaceOnUse">
			<stop offset="0" stop-color="#a7addf"/>
			<stop offset=".528" stop-color="#a7addf"/>
			<stop offset=".53" stop-color="#a7addf"/>
			<stop offset="1" stop-color="#a7addf"/>
		</linearGradient>
		<linearGradient id="g38" x1="272" y1="522.7" x2="307.2" y2="522.7" gradientUnits="userSpaceOnUse">
			<stop offset="0" stop-color="#7eb1fd"/>
			<stop offset="1" stop-color="#bcd6fc"/>
		</linearGradient>
		<linearGradient id="g39" x1="461.8" y1="615.1" x2="519.8" y2="615.2" gradientUnits="userSpaceOnUse">
			<stop offset="0" stop-color="#ffffff"/>
			<stop offset="1" stop-color="#ededed"/>
		</linearGradient>
	</defs>
	<style>
		.s0 { fill: #cbc2d0 } 
		.s1 { fill: #dbd5df } 
		.s2 { mix-blend-mode: multiply;fill: url(#g1) } 
		.s3 { fill: #332a43 } 
		.s4 { fill: #3b334b } 
		.s5 { fill: #3385ff } 
		.s6 { fill: url(#g2) } 
		.s7 { fill: #4791fe } 
		.s8 { fill: url(#g3) } 
		.s9 { fill: #afcfff } 
		.s10 { fill: #d3e5ff } 
		.s11 { fill: url(#g4) } 
		.s12 { fill: #83b5ff } 
		.s13 { fill: #b6d3ff } 
		.s14 { fill: #82b5ff } 
		.s15 { fill: #8b92d6 } 
		.s16 { fill: url(#g5) } 
		.s17 { fill: #a5c9ff } 
		.s18 { fill: url(#g6) } 
		.s19 { fill: #ffffff } 
		.s20 { fill: #8a9bc6 } 
		.s21 { fill: url(#g7) } 
		.s22 { fill: url(#g8) } 
		.s23 { fill: url(#g9) } 
		.s24 { fill: #f7f4ff } 
		.s25 { mix-blend-mode: multiply;fill: #d4d4d4 } 
		.s26 { fill: url(#g10) } 
		.s27 { fill: #9fa4dd } 
		.s28 { fill: url(#g11) } 
		.s29 { fill: url(#g12) } 
		.s30 { fill: #65678c } 
		.s31 { fill: #8189b3 } 
		.s32 { fill: #99a1b0 } 
		.s33 { fill: url(#g13) } 
		.s34 { fill: url(#g14) } 
		.s35 { fill: url(#g15) } 
		.s36 { fill: url(#g16) } 
		.s37 { fill: url(#g17) } 
		.s38 { fill: #c7caeb } 
		.s39 { fill: #ffef36 } 
		.s40 { fill: #f4f6f6 } 
		.s41 { fill: url(#g18) } 
		.s42 { fill: url(#g19) } 
		.s43 { fill: #8990d5 } 
		.s44 { fill: url(#g20) } 
		.s45 { fill: #b6bbe5 } 
		.s46 { fill: url(#g21) } 
		.s47 { fill: url(#g22) } 
		.s48 { fill: #9da3dc } 
		.s49 { fill: #a7ace0 } 
		.s50 { fill: url(#g23) } 
		.s51 { fill: url(#g24) } 
		.s52 { fill: #a2a7de } 
		.s53 { fill: url(#g25) } 
		.s54 { fill: url(#g26) } 
		.s55 { fill: #c5cecd } 
		.s56 { fill: #d8dedd } 
		.s57 { fill: #b9c4c3 } 
		.s58 { fill: url(#g27) } 
		.s59 { mix-blend-mode: screen;fill: url(#g28) } 
		.s60 { fill: #24283c } 
		.s61 { fill: #33374a } 
		.s62 { fill: #ff9c78 } 
		.s63 { fill: #71a8fb } 
		.s64 { fill: #3b4157 } 
		.s65 { fill: #363b4d } 
		.s66 { fill: #418dfe } 
		.s67 { fill: #553012 } 
		.s68 { fill: url(#g29) } 
		.s69 { fill: #c75a30 } 
		.s70 { fill: #f8f7fb } 
		.s71 { fill: #9687c3 } 
		.s72 { fill: #efeff1 } 
		.s73 { fill: #89b8ff } 
		.s74 { fill: #502612 } 
		.s75 { fill: url(#g30) } 
		.s76 { fill: url(#g31) } 
		.s77 { fill: #817087 } 
		.s78 { fill: #868dd4 } 
		.s79 { fill: #433d58 } 
		.s80 { fill: url(#g32) } 
		.s81 { fill: url(#g33) } 
		.s82 { fill: #c4c5e8 } 
		.s83 { fill: #332a42 } 
		.s84 { fill: #d3e4ff } 
		.s85 { fill: url(#g34) } 
		.s86 { fill: url(#g35) } 
		.s87 { fill: #9fa2c4 } 
		.s88 { fill: #7c0000 } 
		.s89 { fill: #fe6066 } 
		.s90 { fill: #9a2121 } 
		.s91 { fill: url(#g36) } 
		.s92 { fill: url(#g37) } 
		.s93 { fill: #44454a } 
		.s94 { fill: #4e4f54 } 
		.s95 { fill: url(#g38) } 
		.s96 { fill: #4d94fd } 
		.s97 { fill: #ffa698 } 
		.s98 { fill: #ff806b } 
		.s99 { mix-blend-mode: multiply;fill: url(#g39) } 
	</style>
	<g id="Layer 3">
		<g id="&lt;Group&gt;">
			<g id="&lt;Group&gt;">
				<path id="&lt;Path&gt;" class="s0" d="m371.8 704.7v-11.9l-12.3-1.2-180.6-104.2c-9.8-5.7-25.7-5.7-35.6 0l-126.3 72.9-9-0.8v12.1c0 3.7 2.4 7.4 7.4 10.2l185.4 107.1c9.9 5.7 25.8 5.7 35.7 0l127.9-73.8c5-2.9 7.4-6.6 7.4-10.4z"/>
				<path id="&lt;Path&gt;" class="s0" d="m806.3 588.4l-8.9 0.6-157.9-91.1c-9.8-5.7-25.8-5.7-35.6 0l-209.6 121-11.7 0.8v11.9c0 3.8 2.5 7.5 7.4 10.3l159.4 92.1c9.9 5.7 25.8 5.7 35.6 0l213.9-123.5c4.9-2.8 7.4-6.6 7.4-10.3z"/>
				<path id="&lt;Path&gt;" class="s0" d="m678.7 420.5q0 0 0-0.1v-11.9l-9.6 0.4-285.1-164.6c-9.8-5.7 0.4 9.4-9.5 15.1l-361.9 179.2-11.9 0.5v12c0 3.7 2.5 7.4 7.4 10.3l287.3 165.8c9.8 5.7 25.8 5.7 35.6 0l340.3-196.5c4.9-2.8 7.4-6.5 7.4-10.2z"/>
				<path id="&lt;Path&gt;" class="s1" d="m15.4 669.8l185.4 107.1c9.9 5.7 25.8 5.7 35.7 0l127.9-73.8c9.9-5.7 9.9-14.9 0-20.6l-185.5-107.1c-9.8-5.7-25.7-5.7-35.6 0l-127.9 73.9c-9.9 5.7-9.9 14.9 0 20.5z"/>
				<path id="&lt;Path&gt;" class="s1" d="m390 629.9l159.4 92.1c9.9 5.7 25.8 5.7 35.6 0l213.9-123.5c9.9-5.7 9.9-14.9 0-20.6l-159.4-92c-9.8-5.7-25.8-5.7-35.6 0l-213.9 123.5c-9.8 5.6-9.8 14.9 0 20.5z"/>
				<path id="&lt;Path&gt;" class="s1" d="m8.1 449.4l287.3 165.8c9.8 5.7 25.8 5.7 35.6 0l340.3-196.5c9.9-5.6 9.9-14.8 0-20.5l-287.3-165.9c-9.8-5.7 0.4 9.4-9.5 15.1l-366.4 181.4c-9.8 5.7-9.8 14.9 0 20.6z"/>
				<path id="&lt;Mesh&gt;" class="s2" d="m177.7 457.2q4.5 2.6 9 5.2 4.1-2.3 8.1-4.6-4.5-2.6-9-5.3-4.1 2.4-8.1 4.7zm8.1-4.7q4.5 2.7 9 5.3 9.6-5.6 19.2-11.1-4.5-2.6-9.1-5.2-9.6 5.5-19.1 11zm19.1-11q4.6 2.6 9.1 5.2 6.6-3.8 13.1-7.6-4.5-2.6-9-5.2-6.6 3.8-13.2 7.6zm13.2-7.6q4.5 2.6 9 5.2 8.4-4.8 16.8-9.7-4.6-2.6-9.1-5.2-8.4 4.8-16.7 9.7zm16.7-9.7q4.5 2.6 9.1 5.2 8.5-4.9 17.1-9.8-4.5-2.7-9.1-5.3-8.5 5-17.1 9.9zm17.1-9.9q4.6 2.6 9.1 5.3c66.5-38.4 98.8-57.1 165.3-95.5q-4.6-2.6-9.1-5.2c-66.5 38.4-98.8 57.1-165.3 95.4zm165.3-95.4q4.5 2.6 9.1 5.2 17-9.8 34.1-19.7-4.5-2.6-9.1-5.2-17 9.9-34.1 19.7zm-230.5 143.5q11.5 6.7 23 13.3 4-2.4 8.1-4.7-11.5-6.6-23-13.2-4 2.3-8.1 4.6zm8.1-4.6q11.5 6.6 23 13.2 9.5-5.5 19.1-11.1-11.4-6.6-22.9-13.2-9.6 5.5-19.2 11.1zm19.2-11.1q11.5 6.6 22.9 13.2 6.6-3.8 13.2-7.5-11.5-6.7-23-13.3-6.5 3.8-13.1 7.6zm13.1-7.6q11.5 6.6 23 13.3 8.3-4.9 16.7-9.7-11.5-6.6-22.9-13.3-8.4 4.9-16.8 9.7zm16.8-9.7q11.4 6.7 22.9 13.3 8.6-5 17.1-9.9-11.4-6.6-22.9-13.2-8.6 4.9-17.1 9.8zm17.1-9.8q11.5 6.6 22.9 13.2c66.5-38.4 98.8-57 165.3-95.4q-11.5-6.6-22.9-13.3c-66.5 38.4-98.8 57.1-165.3 95.5zm165.3-95.5q11.4 6.7 22.9 13.3 17.1-9.9 34.1-19.7-11.4-6.6-22.9-13.3-17.1 9.9-34.1 19.7zm-216.6 151.6q9.6 5.6 19.3 11.1 4-2.3 8-4.6-9.6-5.6-19.2-11.2-4.1 2.3-8.1 4.7zm8.1-4.7q9.6 5.6 19.2 11.2 9.6-5.6 19.2-11.1-9.6-5.6-19.3-11.2-9.6 5.6-19.1 11.1zm19.1-11.1q9.7 5.6 19.3 11.2 6.6-3.8 13.2-7.6-9.7-5.6-19.3-11.1-6.6 3.7-13.2 7.5zm13.2-7.5q9.6 5.5 19.3 11.1 8.3-4.8 16.7-9.7-9.6-5.5-19.3-11.1-8.4 4.8-16.7 9.7zm16.7-9.7q9.7 5.6 19.3 11.1 8.6-4.9 17.1-9.9-9.6-5.5-19.3-11.1-8.5 4.9-17.1 9.9zm17.1-9.9q9.7 5.6 19.3 11.1c66.5-38.3 98.8-57 165.3-95.4q-9.6-5.6-19.3-11.1c-66.5 38.4-98.8 57-165.3 95.4zm165.3-95.4q9.7 5.5 19.3 11.1 17.1-9.8 34.1-19.7-9.6-5.6-19.3-11.1-17 9.8-34.1 19.7zm-220.2 149.4c14.6 8.5 48.5 28.1 63.2 36.5q4-2.3 8-4.7c-14.6-8.4-48.5-28-63.2-36.4q-4 2.3-8 4.6zm8-4.6c14.7 8.4 48.6 28 63.2 36.4q9.6-5.5 19.2-11c-14.6-8.5-48.5-28.1-63.2-36.5q-9.6 5.5-19.2 11.1zm19.2-11.1c14.7 8.4 48.6 28 63.2 36.5q6.6-3.8 13.1-7.6c-14.6-8.5-48.5-28.1-63.1-36.5q-6.6 3.8-13.2 7.6zm13.2-7.6c14.6 8.4 48.5 28 63.1 36.5q8.4-4.9 16.8-9.7c-14.6-8.4-48.6-28-63.2-36.5q-8.4 4.9-16.7 9.7zm16.7-9.7c14.6 8.5 48.6 28.1 63.2 36.5q8.6-4.9 17.1-9.9c-14.6-8.4-48.5-28-63.2-36.5q-8.5 5-17.1 9.9zm17.1-9.9c14.7 8.5 48.6 28.1 63.2 36.5 66.5-38.3 98.8-57 165.3-95.4-14.6-8.4-48.6-28-63.2-36.5-66.5 38.4-98.8 57.1-165.3 95.4zm165.3-95.4c14.6 8.5 48.6 28.1 63.2 36.5q17.1-9.8 34.1-19.7c-14.6-8.4-48.5-28-63.2-36.5q-17 9.9-34.1 19.7zm-176.3 174.8q19.1 11.1 38.3 22.2 4.1-2.4 8.1-4.7-19.2-11.1-38.4-22.2-4 2.4-8 4.7zm8-4.7q19.2 11.1 38.4 22.2 9.6-5.5 19.2-11.1-19.2-11.1-38.4-22.1-9.6 5.5-19.2 11zm19.2-11q19.2 11 38.4 22.1 6.6-3.8 13.1-7.6-19.2-11-38.4-22.1-6.5 3.8-13.1 7.6zm13.1-7.6q19.2 11.1 38.4 22.1 8.4-4.8 16.8-9.6-19.2-11.1-38.4-22.2-8.4 4.8-16.8 9.7zm16.8-9.7q19.2 11.1 38.4 22.2 8.5-5 17.1-9.9-19.2-11.1-38.4-22.2-8.5 5-17.1 9.9zm17.1-9.9q19.2 11.1 38.4 22.2c66.5-38.4 98.8-57.1 165.3-95.4q-19.2-11.1-38.4-22.2c-66.5 38.4-98.8 57.1-165.3 95.4zm165.3-95.4q19.2 11.1 38.4 22.2 17-9.9 34.1-19.7-19.2-11.1-38.4-22.2-17 9.9-34.1 19.7zm-201.2 160.5q11.2 6.4 22.4 12.9 4.1-2.3 8.1-4.7-11.2-6.4-22.4-12.9-4 2.3-8.1 4.7zm8.1-4.7q11.2 6.5 22.4 12.9 9.6-5.5 19.2-11.1-11.2-6.4-22.4-12.9-9.6 5.6-19.2 11.1zm19.2-11.1q11.2 6.5 22.4 12.9 6.6-3.7 13.1-7.5-11.2-6.5-22.4-13-6.5 3.8-13.1 7.6zm13.1-7.6q11.2 6.5 22.4 13 8.4-4.9 16.8-9.7-11.2-6.5-22.4-12.9-8.4 4.8-16.8 9.6zm16.8-9.6q11.2 6.4 22.4 12.9 8.5-4.9 17.1-9.9-11.2-6.5-22.4-12.9-8.6 4.9-17.1 9.9zm17.1-9.9q11.2 6.4 22.4 12.9c66.5-38.4 98.8-57 165.3-95.4q-11.2-6.5-22.4-12.9c-66.5 38.3-98.8 57-165.3 95.4zm165.3-95.4q11.2 6.4 22.4 12.9 17-9.9 34.1-19.7-11.2-6.5-22.4-12.9-17.1 9.8-34.1 19.7zm-217.2 151.2q11.9 6.9 23.8 13.7 4.1-2.3 8.1-4.6-11.9-6.9-23.8-13.8-4 2.4-8.1 4.7zm8.1-4.7q11.9 6.9 23.8 13.8 9.6-5.6 19.2-11.1-11.9-6.9-23.8-13.8-9.6 5.6-19.2 11.1zm19.2-11.1q11.9 6.9 23.8 13.8 6.6-3.8 13.1-7.6-11.9-6.9-23.8-13.7-6.5 3.8-13.1 7.5zm13.1-7.5q11.9 6.8 23.8 13.7 8.4-4.8 16.8-9.7-11.9-6.8-23.8-13.7-8.4 4.8-16.8 9.7zm16.8-9.7q11.9 6.9 23.8 13.7 8.5-4.9 17.1-9.8-11.9-6.9-23.8-13.8-8.6 5-17.1 9.9zm17.1-9.9q11.9 6.9 23.8 13.8c66.5-38.4 98.8-57.1 165.3-95.5q-11.9-6.8-23.8-13.7c-66.5 38.4-98.8 57-165.3 95.4zm165.3-95.4q11.9 6.9 23.8 13.7 17-9.8 34.1-19.7-11.9-6.8-23.8-13.7-17.1 9.8-34.1 19.7zm-215.8 152q5.5 3.2 10.9 6.3 4-2.3 8.1-4.7-5.5-3.1-10.9-6.2-4 2.3-8.1 4.6zm8.1-4.6q5.4 3.1 10.9 6.2 9.6-5.5 19.2-11-5.5-3.2-10.9-6.3-9.6 5.5-19.2 11.1zm19.2-11.1q5.4 3.1 10.9 6.3 6.5-3.8 13.1-7.6-5.4-3.2-10.9-6.3-6.5 3.8-13.1 7.6zm13.1-7.6q5.5 3.1 10.9 6.3 8.4-4.9 16.7-9.7-5.4-3.1-10.8-6.3-8.4 4.9-16.8 9.7zm16.8-9.7q5.4 3.2 10.8 6.3 8.6-4.9 17.2-9.9-5.5-3.1-10.9-6.2-8.6 4.9-17.1 9.8zm17.1-9.8q5.4 3.1 10.9 6.2c66.4-38.4 98.8-57 165.2-95.4q-5.4-3.1-10.8-6.3c-66.5 38.4-98.8 57.1-165.3 95.5zm165.3-95.5q5.4 3.2 10.8 6.3 17.1-9.9 34.2-19.7-5.5-3.1-10.9-6.3-17.1 9.9-34.1 19.7z"/>
				<g id="&lt;Group&gt;">
					<g id="&lt;Group&gt;">
						<g id="&lt;Group&gt;">
							<g id="&lt;Group&gt;">
								<g id="&lt;Group&gt;">
									<path id="&lt;Path&gt;" class="s3" d="m258.5 444.7l2.9 6.4c-15.9-9.1-28.8-31-28.8-48.9l4 5.7c0 13.3 9.7 29.9 21.9 36.8z"/>
								</g>
								<g id="&lt;Group&gt;">
									<path id="&lt;Path&gt;" class="s4" d="m384.2 516.9l3 6.3-125.8-72.1-2.9-6.4z"/>
								</g>
								<g id="&lt;Group&gt;">
									<path id="&lt;Path&gt;" class="s3" d="m420.6 518l-12.8 7.3c5.1-2.9 8.2-9.1 8.2-17.9l12.8-7.4c0 8.8-3.1 15-8.2 18z"/>
								</g>
								<g id="&lt;Group&gt;">
									<path id="&lt;Path&gt;" class="s4" d="m406.1 505.1l9.9 2.3c0 17.9-12.9 25-28.8 15.8l-3-6.3c12.2 6.9 21.9 1.5 21.9-11.8z"/>
								</g>
								<g id="&lt;Group&gt;">
									<path id="&lt;Path&gt;" class="s4" d="m236.6 407.9l-4-5.7v-313.9l4 5.6z"/>
								</g>
								<g id="&lt;Group&gt;">
									<path id="&lt;Path&gt;" class="s4" d="m236.6 93.9l-4-5.6c0-17.9 12.9-25 28.8-15.9l-2.9 9.8c-12.2-7-21.9-1.6-21.9 11.7z"/>
								</g>
								<g id="&lt;Group&gt;">
									<path id="&lt;Path&gt;" class="s3" d="m240.8 70.3l12.8-7.3c5.3-3 12.6-2.6 20.7 2.1l-12.9 7.3c-8-4.6-15.3-5.1-20.6-2.1z"/>
								</g>
								<g id="&lt;Group&gt;">
									<path id="&lt;Path&gt;" class="s4" d="m258.5 82.2l2.9-9.8 125.8 72.2-3 9.7z"/>
								</g>
								<g id="&lt;Group&gt;">
									<path id="&lt;Path&gt;" class="s3" d="m261.4 72.4l12.9-7.3 125.7 72.1-12.8 7.4z"/>
								</g>
								<g id="&lt;Group&gt;">
									<path id="&lt;Path&gt;" class="s4" d="m406.1 191.2l9.9 2.3v313.9l-9.9-2.3z"/>
								</g>
								<g id="&lt;Group&gt;">
									<path id="&lt;Path&gt;" class="s3" d="m416 193.5l12.8-7.4v313.9l-12.8 7.4z"/>
								</g>
								<g id="&lt;Group&gt;">
									<path id="&lt;Path&gt;" class="s3" d="m236.6 93.9c0-13.3 9.7-18.7 21.9-11.7l125.7 72.1c12.2 7 21.9 23.5 21.9 36.9v313.9c0 13.3-9.7 18.7-21.9 11.8l-125.7-72.2c-12.2-6.9-21.9-23.5-21.9-36.8z"/>
								</g>
								<g id="&lt;Group&gt;">
									<path id="&lt;Path&gt;" class="s4" d="m384.2 154.3l3-9.7c15.9 9.1 28.8 31 28.8 48.9l-9.9-2.3c0-13.4-9.7-29.9-21.9-36.9z"/>
								</g>
								<g id="&lt;Group&gt;">
									<path id="&lt;Path&gt;" class="s3" d="m387.2 144.6l12.8-7.4c15.9 9.1 28.8 31 28.8 48.9l-12.8 7.4c0-17.9-12.9-39.8-28.8-48.9z"/>
								</g>
							</g>
						</g>
						<g id="&lt;Group&gt;">
							<g id="&lt;Group&gt;">
								<g id="&lt;Group&gt;">
									<path id="&lt;Path&gt;" class="s5" d="m393.8 509.5l-3.7 2.1c4.7-2.8 7.7-8.6 7.7-16.9l3.7-2.1c-0.1 8.3-3 14.1-7.7 16.9z"/>
								</g>
								<g id="&lt;Group&gt;">
									<path id="&lt;Path&gt;" class="s5" d="m238.9 88l3.7-2.1c4.8-2.8 11.4-2.4 18.7 1.8l-3.6 2.1c-7.3-4.2-14-4.6-18.8-1.8z"/>
								</g>
								<g id="&lt;Group&gt;">
									<path id="&lt;Path&gt;" class="s5" d="m257.7 89.8l3.6-2.1 20.2 11.6-3.7 2.2z"/>
								</g>
								<g id="&lt;Group&gt;">
									<path id="&lt;Path&gt;" class="s5" d="m277.8 101.5l3.7-2.2c3.3 1.9 6.1 6.2 6.9 10.3 0.7 3.9 3.4 7.9 6.6 9.7l-3.7 2.1c-3.1-1.8-5.8-5.8-6.6-9.7-0.7-4.1-3.6-8.3-6.9-10.2z"/>
								</g>
								<g id="&lt;Group&gt;">
									<path id="&lt;Path&gt;" class="s5" d="m291.3 121.4l3.7-2.1 47.4 27.4-3.7 2.1z"/>
								</g>
								<g id="&lt;Group&gt;">
									<path id="&lt;Path&gt;" class="s5" d="m347.2 147.1l-3.7 2.2c-1.2 0.7-2.9 0.6-4.8-0.5l3.7-2.1c1.8 1 3.5 1.2 4.8 0.4z"/>
								</g>
								<g id="&lt;Group&gt;">
									<path id="&lt;Path&gt;" class="s5" d="m347.2 143.9l3.6-2.1c1.3-0.8 3.1-0.6 5.1 0.5l-3.7 2.1c-1.9-1.1-3.7-1.2-5-0.5z"/>
								</g>
								<g id="&lt;Group&gt;">
									<path id="&lt;Path&gt;" class="s5" d="m398.6 201.5l3.7-2.1-0.8 293.2-3.7 2.1z"/>
								</g>
								<g id="&lt;Group&gt;">
									<path id="&lt;Path&gt;" class="s5" d="m352.2 144.4l3.7-2.1 20.2 11.6-3.7 2.2z"/>
								</g>
								<g id="&lt;Group&gt;">
									<path id="&lt;Path&gt;" class="s6" d="m371.6 159.6c13 7.6 23.6 25.8 23.5 40.8l-0.8 293.3c-0.1 15-10.7 21-23.7 13.5l-114.8-66.3c-13-7.5-23.6-25.8-23.5-40.8l0.8-293.2c0.1-15 10.7-21.1 23.7-13.5l20.2 11.6c2 1.2 3.8 3.8 4.3 6.4 1 5.5 4.8 11.1 9.2 13.6l47.4 27.4c4.3 2.5 8.1 1.2 9.2-3 0.4-2 2.2-2.6 4.3-1.4z"/>
								</g>
								<g id="&lt;Group&gt;">
									<path id="&lt;Path&gt;" class="s5" d="m338.4 378c12.8 7.4 23.2 25.3 23.1 40.1v24.6c-0.1 14.8-10.5 20.7-23.3 13.3l-21.6-12.5c-12.9-7.4-23.2-25.3-23.2-40.1l0.1-24.6c0-14.7 10.5-20.7 23.3-13.3z"/>
								</g>
								<path id="&lt;Compound Path&gt;" class="s7" d="m362 179.4l-92.8-53.6c-6.4-3.7-11.6-0.7-11.6 6.7l-0.1 3.7c0 7.3 5.2 16.3 11.6 20.1l92.8 53.5c6.5 3.7 11.7 0.8 11.7-6.6v-3.7c0.1-7.4-5.1-16.4-11.6-20.1z"/>
								<path id="&lt;Compound Path&gt;" fill-rule="evenodd" class="s8" d="m398.6 201.5l-0.8 293.2c0 16.7-11.9 23.5-26.4 15.1l-114.7-66.3c-14.6-8.4-26.3-28.7-26.3-45.4l0.9-293.2c0-16.7 11.8-23.5 26.4-15.1l20.1 11.7c3.3 1.9 6.2 6.1 6.9 10.2 0.8 3.9 3.5 7.9 6.6 9.7l47.4 27.4c3.1 1.8 5.8 0.9 6.6-2.1 0.8-3.3 3.6-4.2 6.9-2.3l20.2 11.7c14.5 8.3 26.3 28.7 26.2 45.4zm-4.3 292.2l0.8-293.3c0.1-15-10.5-33.2-23.5-40.8l-20.2-11.6c-2.1-1.2-3.9-0.6-4.3 1.4-1.1 4.2-4.9 5.5-9.2 3l-47.4-27.4c-4.4-2.5-8.2-8.1-9.2-13.6-0.5-2.6-2.3-5.2-4.3-6.4l-20.2-11.6c-13-7.6-23.6-1.5-23.7 13.5l-0.8 293.2c-0.1 15 10.5 33.3 23.5 40.8l114.8 66.3c13 7.5 23.6 1.5 23.7-13.5z"/>
								<g id="&lt;Group&gt;">
									<path id="&lt;Path&gt;" class="s5" d="m372.4 156.1l3.7-2.2c14.5 8.4 26.2 28.8 26.2 45.5l-3.7 2.1c0.1-16.7-11.7-37.1-26.2-45.4z"/>
								</g>
							</g>
						</g>
						<g id="&lt;Group&gt;">
							<g id="&lt;Group&gt;">
								<g id="&lt;Group&gt;">
									<path id="&lt;Path&gt;" class="s9" d="m250.7 130.9l2.7-1.5c2.2-1.3 5.1-1.1 8.3 0.8l-2.7 1.5c-3.2-1.8-6.2-2-8.3-0.8z"/>
								</g>
								<g id="&lt;Group&gt;">
									<path id="&lt;Path&gt;" class="s9" d="m362.7 215l-2.7 1.5c2.1-1.2 3.4-3.8 3.4-7.4l2.7-1.6c0 3.7-1.3 6.3-3.4 7.5z"/>
								</g>
								<g id="&lt;Group&gt;">
									<path id="&lt;Path&gt;" class="s9" d="m363.4 205.4l2.7-1.6v3.7l-2.7 1.6z"/>
								</g>
								<g id="&lt;Group&gt;">
									<path id="&lt;Path&gt;" class="s9" d="m259 131.7l2.7-1.5 92.8 53.5-2.7 1.6z"/>
								</g>
								<g id="&lt;Group&gt;">
									<path id="&lt;Path&gt;" class="s10" d="m351.2 188c5.3 3 9.6 10.5 9.6 16.6v3.7c0 6.1-4.4 8.6-9.7 5.5l-92.8-53.6c-5.3-3-9.6-10.5-9.6-16.6v-3.7c0-6.1 4.3-8.6 9.7-5.5z"/>
								</g>
								<path id="&lt;Compound Path&gt;" fill-rule="evenodd" class="s11" d="m363.4 205.4v3.7c0 7.4-5.3 10.3-11.7 6.6l-92.8-53.5c-6.4-3.8-11.6-12.7-11.6-20.1v-3.7c0-7.4 5.3-10.4 11.7-6.7l92.8 53.6c6.4 3.7 11.6 12.7 11.6 20.1zm-2.6 2.9v-3.7c0-6.1-4.3-13.6-9.6-16.6l-92.8-53.6c-5.4-3.1-9.7-0.6-9.7 5.5v3.7c0 6.1 4.3 13.6 9.6 16.6l92.8 53.6c5.3 3.1 9.7 0.6 9.7-5.5z"/>
								<g id="&lt;Group&gt;">
									<path id="&lt;Path&gt;" class="s9" d="m351.8 185.3l2.7-1.6c6.4 3.7 11.6 12.7 11.6 20.1l-2.7 1.6c0-7.4-5.2-16.4-11.6-20.1z"/>
								</g>
							</g>
						</g>
					</g>
				</g>
				<g id="&lt;Group&gt;">
					<g id="&lt;Group&gt;">
						<g id="&lt;Group&gt;">
							<g id="&lt;Group&gt;">
								<path id="&lt;Path&gt;" class="s12" d="m350.7 459.1l-5.3 3c4.2-2.4 6.8-7.6 6.8-14.9l5.3-3.1c-0.1 7.4-2.7 12.5-6.8 15z"/>
							</g>
							<g id="&lt;Group&gt;">
								<path id="&lt;Path&gt;" class="s12" d="m291 368.4l5.2-3.1c4.3-2.4 10.1-2.1 16.6 1.6l-5.3 3.1c-6.4-3.7-12.3-4.1-16.5-1.6z"/>
							</g>
							<g id="&lt;Group&gt;">
								<path id="&lt;Path&gt;" class="s12" d="m352.3 422.6l5.2-3.1v24.6l-5.3 3.1z"/>
							</g>
							<g id="&lt;Group&gt;">
								<path id="&lt;Path&gt;" class="s12" d="m307.5 370l5.3-3.1 21.6 12.5-5.3 3.1z"/>
							</g>
							<g id="&lt;Group&gt;">
								<path id="&lt;Path&gt;" class="s12" d="m329.1 382.5l5.3-3.1c12.8 7.4 23.2 25.4 23.1 40.1l-5.2 3.1c0-14.8-10.4-32.7-23.2-40.1z"/>
							</g>
							<g id="&lt;Group&gt;">
								<path id="&lt;Path&gt;" class="s13" d="m329.1 382.5c12.8 7.4 23.2 25.3 23.2 40.1l-0.1 24.6c-0.1 14.7-10.5 20.7-23.3 13.3l-21.6-12.5c-12.8-7.4-23.2-25.3-23.2-40.1l0.1-24.6c0-14.8 10.5-20.7 23.3-13.3z"/>
							</g>
						</g>
					</g>
					<g id="&lt;Group&gt;">
						<g id="&lt;Group&gt;">
							<g id="&lt;Group&gt;">
								<path id="&lt;Path&gt;" class="s14" d="m463.1 467l-3.6 2.1c2.1-1.3 3.5-4 3.5-7.8l3.6-2.1c0 3.8-1.3 6.5-3.5 7.8z"/>
							</g>
							<g id="&lt;Group&gt;">
								<path id="&lt;Path&gt;" class="s14" d="m431.1 420.3l3.6-2.1c2.2-1.3 5.3-1.1 8.6 0.8l-3.6 2.1c-3.3-1.9-6.4-2.1-8.6-0.8z"/>
							</g>
							<g id="&lt;Group&gt;">
								<path id="&lt;Path&gt;" class="s14" d="m463 448.5l3.6-2.1v12.8l-3.6 2.1z"/>
							</g>
							<g id="&lt;Group&gt;">
								<path id="&lt;Path&gt;" class="s14" d="m439.7 421.1l3.6-2.1 11.3 6.5-3.6 2.1z"/>
							</g>
							<g id="&lt;Group&gt;">
								<path id="&lt;Path&gt;" class="s15" d="m450.2 429.7c5.9 3.4 10.7 11.7 10.6 18.5v12.8c0 6.8-4.8 9.6-10.7 6.1l-11.3-6.5c-5.9-3.4-10.7-11.7-10.7-18.4l0.1-12.9c0-6.8 4.8-9.5 10.7-6.1z"/>
							</g>
							<path id="&lt;Compound Path&gt;" fill-rule="evenodd" class="s16" d="m463 448.5v12.8c0 7.7-5.4 10.8-12.1 6.9l-11.3-6.5c-6.7-3.8-12.1-13.2-12-20.8v-12.9c0-7.6 5.5-10.7 12.1-6.9l11.3 6.5c6.7 3.9 12.1 13.2 12 20.9zm-2.2 12.5v-12.8c0.1-6.8-4.7-15.1-10.6-18.5l-11.3-6.5c-5.9-3.4-10.7-0.7-10.7 6.1l-0.1 12.9c0 6.7 4.8 15 10.7 18.4l11.3 6.5c5.9 3.5 10.7 0.7 10.7-6.1z"/>
							<g id="&lt;Group&gt;">
								<path id="&lt;Path&gt;" class="s14" d="m451 427.6l3.6-2.1c6.7 3.9 12.1 13.2 12 20.9l-3.6 2.1c0.1-7.7-5.3-17-12-20.9z"/>
							</g>
						</g>
					</g>
					<g id="&lt;Group&gt;">
						<g id="&lt;Group&gt;">
							<g id="&lt;Group&gt;">
								<path id="&lt;Path&gt;" class="s17" d="m416.4 247.6l3.6-2.1c4.2-2.5 10.1-2.1 16.5 1.6l-3.6 2.1c-6.4-3.7-12.3-4.1-16.5-1.6z"/>
							</g>
							<g id="&lt;Group&gt;">
								<path id="&lt;Path&gt;" class="s17" d="m432.9 249.2l3.6-2.1 21.6 12.5-3.6 2.1z"/>
							</g>
							<g id="&lt;Group&gt;">
								<path id="&lt;Path&gt;" class="s17" d="m453.7 265.2c11.3 6.6 20.5 22.5 20.5 35.5l-0.1 24.7c0 13-9.3 18.3-20.6 11.7l-21.6-12.5c-11.4-6.5-20.6-22.4-20.5-35.5v-24.6c0.1-13.1 9.3-18.3 20.7-11.8z"/>
							</g>
							<path id="&lt;Compound Path&gt;" fill-rule="evenodd" class="s18" d="m477.7 301.8l-0.1 24.6c0 14.7-10.5 20.7-23.3 13.3l-21.6-12.5c-12.8-7.4-23.2-25.3-23.2-40.1l0.1-24.6c0.1-14.8 10.5-20.7 23.3-13.3l21.6 12.5c12.8 7.4 23.2 25.3 23.2 40.1zm-3.6 23.6l0.1-24.7c0-13-9.2-28.9-20.5-35.5l-21.6-12.5c-11.4-6.5-20.6-1.3-20.7 11.8v24.6c-0.1 13.1 9.1 29 20.5 35.5l21.6 12.5c11.3 6.6 20.6 1.3 20.6-11.7z"/>
							<path id="&lt;Path&gt;" class="s17" d="m458.1 259.6l-3.6 2.1c12.8 7.4 23.2 25.3 23.2 40.1l-0.1 24.6c0 7.3-2.6 12.5-6.8 14.9l3.6-2.1c4.2-2.4 6.8-7.6 6.8-14.9l0.1-24.6c0-14.8-10.3-32.7-23.2-40.1z"/>
						</g>
					</g>
					<g id="&lt;Group&gt;">
						<g id="&lt;Group&gt;">
							<g id="&lt;Group&gt;">
								<g id="&lt;Group&gt;">
									<path id="&lt;Path&gt;" class="s19" d="m346.1 322.2l-2.3-1.1c-0.2-0.1-0.2-0.7 0-1.2 0.3-0.6 0.7-0.9 1-0.8l2.2 1.2c0.3 0.1 0.3 0.6 0 1.2-0.2 0.5-0.7 0.8-0.9 0.7z"/>
									<path id="&lt;Path&gt;" class="s19" d="m351.2 325q-1.1-0.6-2.1-1.2c-0.3-0.1-0.3-0.7 0-1.2 0.3-0.5 0.7-0.8 1-0.7q1.1 0.6 2.2 1.3c0.3 0.1 0.2 0.7-0.1 1.2-0.3 0.5-0.8 0.8-1 0.6z"/>
									<path id="&lt;Path&gt;" class="s19" d="m356 328.3q-0.9-0.8-2-1.5c-0.2-0.1-0.1-0.7 0.2-1.2 0.3-0.4 0.8-0.7 1-0.5q1.1 0.6 2.1 1.4c0.3 0.2 0.2 0.8-0.2 1.2-0.4 0.5-0.8 0.7-1.1 0.6z"/>
									<path id="&lt;Path&gt;" class="s19" d="m360.3 332.1q-0.8-0.9-1.7-1.7c-0.2-0.2-0.1-0.7 0.3-1.2 0.4-0.4 0.9-0.6 1.2-0.4q0.9 0.8 1.8 1.8c0.2 0.2 0 0.7-0.4 1.1-0.5 0.4-1 0.6-1.2 0.4z"/>
									<path id="&lt;Path&gt;" class="s19" d="m363.7 336.6q-0.3-0.5-0.6-1c-0.2-0.3-0.4-0.7-0.7-1-0.1-0.2 0.1-0.7 0.6-1.1 0.5-0.3 1-0.4 1.2-0.2 0.3 0.4 0.5 0.8 0.7 1.1q0.4 0.6 0.7 1.2c0.1 0.2-0.2 0.7-0.7 1-0.5 0.2-1.1 0.3-1.2 0z"/>
									<path id="&lt;Path&gt;" class="s19" d="m365.8 341.9c-0.2-0.8-0.5-1.6-0.8-2.3-0.1-0.3 0.3-0.7 0.9-0.9 0.5-0.2 1.1-0.2 1.2 0.1 0.3 0.8 0.5 1.7 0.8 2.5 0 0.3-0.4 0.7-0.9 0.8-0.6 0.2-1.1 0.1-1.2-0.2z"/>
									<path id="&lt;Path&gt;" class="s19" d="m367.3 347.6q-0.4-1.2-0.7-2.4c0-0.3 0.4-0.7 0.9-0.8 0.6-0.2 1.2 0 1.2 0.2q0.3 1.3 0.7 2.4c0 0.3-0.4 0.7-0.9 0.8-0.6 0.2-1.1 0.1-1.2-0.2z"/>
									<path id="&lt;Path&gt;" class="s19" d="m369.7 353.3c-0.5-0.7-0.8-1.5-1.2-2.3-0.1-0.3 0.2-0.7 0.8-0.9 0.5-0.3 1.1-0.2 1.2 0 0.3 0.7 0.6 1.5 1.1 2.1 0.1 0.3-0.2 0.7-0.7 1.1-0.5 0.3-1.1 0.3-1.2 0z"/>
									<path id="&lt;Path&gt;" class="s19" d="m373.5 358.2l-0.9-0.9q-0.4-0.5-0.9-1c-0.2-0.3 0.1-0.7 0.5-1.1 0.5-0.4 1-0.5 1.2-0.3q0.4 0.5 0.8 0.9l0.8 0.9c0.2 0.2 0 0.7-0.4 1.1-0.4 0.5-0.9 0.6-1.1 0.4z"/>
									<path id="&lt;Path&gt;" class="s19" d="m378.1 362.2c-0.7-0.5-1.3-1.1-2-1.6-0.2-0.2-0.1-0.7 0.3-1.2 0.4-0.4 0.9-0.6 1.1-0.5 0.6 0.5 1.2 1.1 1.9 1.5 0.2 0.2 0.2 0.7-0.2 1.2-0.3 0.5-0.8 0.7-1.1 0.6z"/>
									<path id="&lt;Path&gt;" class="s19" d="m383.2 365.5c-0.7-0.4-1.4-0.9-2.2-1.4-0.2-0.1-0.2-0.7 0.2-1.2 0.3-0.5 0.8-0.8 1-0.6 0.7 0.4 1.4 0.9 2.1 1.3 0.3 0.1 0.2 0.7-0.1 1.2-0.3 0.5-0.7 0.8-1 0.7z"/>
									<path id="&lt;Path&gt;" class="s19" d="m388.5 368.3l-2.2-1.2c-0.3-0.1-0.3-0.6 0-1.2 0.3-0.5 0.7-0.8 1-0.7l2.2 1.2c0.2 0.1 0.2 0.6 0 1.2-0.3 0.5-0.7 0.8-1 0.7z"/>
								</g>
							</g>
						</g>
					</g>
					<g id="&lt;Group&gt;">
						<g id="&lt;Group&gt;">
							<g id="&lt;Group&gt;">
								<path id="&lt;Path&gt;" class="s20" d="m401.6 356.9l3.6-2.1c2.3-1.3 5.4-1.1 8.9 0.9l-3.6 2.1c-3.5-2-6.6-2.2-8.9-0.9z"/>
							</g>
							<g id="&lt;Group&gt;">
								<path id="&lt;Path&gt;" class="s20" d="m410.5 357.8l3.6-2.1 11.5 6.7-3.6 2.1z"/>
							</g>
							<g id="&lt;Group&gt;">
								<path id="&lt;Path&gt;" class="s21" d="m421.1 366.6c6.1 3.5 11 12 11 18.9v13.2c-0.1 6.9-5 9.8-11.1 6.3l-11.5-6.7c-6.1-3.5-11-12-10.9-19v-13.1c0-7 5-9.8 11-6.3z"/>
							</g>
							<path id="&lt;Compound Path&gt;" fill-rule="evenodd" class="s22" d="m434.3 385.9v13.1c0 7.9-5.6 11.1-12.4 7.1l-11.6-6.7c-6.8-3.9-12.3-13.5-12.3-21.4v-13.1c0-7.9 5.6-11.1 12.5-7.1l11.5 6.7c6.8 3.9 12.4 13.5 12.3 21.4zm-2.2 12.8v-13.2c0-6.9-4.9-15.4-11-18.9l-11.5-6.7c-6-3.5-11-0.7-11 6.3v13.1c-0.1 7 4.8 15.5 10.9 19l11.5 6.7c6.1 3.5 11 0.6 11.1-6.3z"/>
							<path id="&lt;Path&gt;" class="s23" d="m425.6 362.4l-3.6 2.1c6.8 3.9 12.4 13.5 12.3 21.4v13.1c0 3.9-1.4 6.7-3.6 8l3.6-2.1c2.2-1.3 3.6-4.1 3.6-8v-13.1c0.1-7.9-5.5-17.5-12.3-21.4z"/>
						</g>
					</g>
					<path id="&lt;Path&gt;" class="s24" d="m343 322.7l1.6 1c1.2 0.6 2.1-0.1 2.1-1.6v-1.1c0-1.5-0.9-3.3-2.1-4l-1.6-0.9c-1.1-0.7-2.1 0-2.1 1.6v1.1c0 1.5 1 3.3 2.1 3.9z"/>
					<path id="&lt;Path&gt;" class="s24" d="m388.6 370.4l1.7 1c1.1 0.6 2.1-0.1 2.1-1.6v-1.1c0-1.5-1-3.3-2.1-4l-1.7-0.9c-1.1-0.7-2 0-2 1.5v1.2c0 1.5 0.9 3.3 2 3.9z"/>
					<g id="&lt;Group&gt;">
						<g id="&lt;Group&gt;">
							<g id="&lt;Group&gt;">
								<g id="&lt;Group&gt;">
									<path id="&lt;Path&gt;" class="s19" d="m346.3 300q-1.2-0.6-2.5-1.3c-0.3-0.2-0.3-0.8 0-1.3 0.3-0.5 0.8-0.8 1.1-0.6q1.2 0.7 2.4 1.3c0.3 0.2 0.4 0.7 0.1 1.3-0.3 0.5-0.8 0.8-1.1 0.6z"/>
									<path id="&lt;Path&gt;" class="s19" d="m352.6 302.9q-1.4-0.5-2.7-1.1c-0.3-0.2-0.4-0.7-0.1-1.3 0.2-0.5 0.7-0.8 1-0.7q1.2 0.6 2.5 1c0.3 0.1 0.4 0.7 0.2 1.2-0.1 0.6-0.6 1-0.9 0.9z"/>
									<path id="&lt;Path&gt;" class="s19" d="m359.4 304.4q-1.5-0.1-2.9-0.4c-0.4-0.1-0.5-0.6-0.4-1.2 0.1-0.6 0.5-1 0.8-0.9q1.4 0.3 2.7 0.4c0.3 0 0.5 0.5 0.5 1.1 0 0.6-0.3 1.1-0.7 1z"/>
									<path id="&lt;Path&gt;" class="s19" d="m366.5 302.9c-0.9 0.6-1.9 0.9-2.9 1.2-0.3 0.1-0.7-0.3-0.8-0.9-0.1-0.6 0-1.1 0.3-1.2 0.8-0.2 1.6-0.5 2.3-0.9 0.3-0.2 0.7 0.1 1.1 0.6 0.3 0.4 0.4 1 0 1.2z"/>
									<path id="&lt;Path&gt;" class="s19" d="m371.3 297.6q-0.7 1.3-1.6 2.5c-0.2 0.3-0.8 0.2-1.2-0.2-0.5-0.4-0.7-0.9-0.5-1.2q0.8-1 1.4-2.2c0.2-0.2 0.7-0.3 1.3 0 0.5 0.3 0.8 0.7 0.6 1.1z"/>
									<path id="&lt;Path&gt;" class="s19" d="m373.9 291.1q-0.4 1.4-0.9 2.8c-0.1 0.3-0.7 0.4-1.2 0.2-0.6-0.3-1-0.7-0.9-1q0.5-1.3 0.9-2.6c0.1-0.3 0.7-0.5 1.2-0.3 0.6 0.2 1 0.6 0.9 0.9z"/>
									<path id="&lt;Path&gt;" class="s19" d="m375.8 284.6l-0.8 2.8c-0.1 0.3-0.6 0.4-1.2 0.3-0.6-0.2-1-0.6-0.9-0.9l0.8-2.8c0.1-0.3 0.6-0.4 1.2-0.2 0.6 0.1 1 0.5 0.9 0.8z"/>
									<path id="&lt;Path&gt;" class="s19" d="m377.9 278.5q-0.5 1.2-1 2.5c-0.1 0.3-0.6 0.4-1.2 0.2-0.6-0.2-0.9-0.6-0.8-0.9q0.5-1.4 1.1-2.8c0.1-0.3 0.7-0.3 1.2-0.1 0.5 0.3 0.9 0.8 0.7 1.1z"/>
									<path id="&lt;Path&gt;" class="s19" d="m381.5 273.5q-1 0.8-1.7 1.8c-0.2 0.2-0.8 0.2-1.3-0.2-0.4-0.3-0.7-0.8-0.5-1.1q1-1.2 2.2-2.2c0.4-0.2 0.9 0 1.2 0.5 0.3 0.5 0.4 1 0.1 1.2z"/>
									<path id="&lt;Path&gt;" class="s19" d="m387.2 272q-1.3-0.1-2.6 0.1c-0.3 0.1-0.6-0.3-0.8-0.9-0.1-0.6 0-1.1 0.4-1.2q1.6-0.3 3.1-0.2c0.4 0 0.6 0.5 0.5 1.1 0 0.6-0.3 1.1-0.6 1.1z"/>
									<path id="&lt;Path&gt;" class="s19" d="m393.4 273.5q-1.3-0.5-2.6-0.9c-0.3-0.1-0.5-0.6-0.3-1.2 0.1-0.6 0.5-1 0.8-0.9q1.5 0.4 2.8 0.9c0.4 0.2 0.4 0.7 0.2 1.3-0.2 0.5-0.6 0.9-0.9 0.8z"/>
									<path id="&lt;Path&gt;" class="s19" d="m399.3 276.3q-1.2-0.7-2.5-1.3c-0.3-0.2-0.3-0.7 0-1.2 0.2-0.6 0.7-0.9 1-0.7q1.3 0.6 2.5 1.3c0.3 0.2 0.3 0.7 0 1.2-0.3 0.6-0.7 0.9-1 0.7z"/>
								</g>
							</g>
						</g>
					</g>
					<g id="&lt;Group&gt;">
						<g id="&lt;Group&gt;">
							<g id="&lt;Group&gt;">
								<g id="&lt;Group&gt;">
									<path id="&lt;Path&gt;" class="s19" d="m368.7 448.4l-2-1.1c-0.2-0.2-0.1-0.7 0.2-1.2 0.3-0.5 0.8-0.8 1-0.7l1.8 1.1c0.3 0.1 0.2 0.7-0.1 1.2-0.2 0.5-0.7 0.8-0.9 0.7z"/>
									<path id="&lt;Path&gt;" class="s19" d="m373.6 450.7c-0.7-0.3-1.4-0.6-2.1-0.9-0.3-0.1-0.3-0.6 0-1.2 0.3-0.5 0.6-0.9 0.9-0.8 0.6 0.3 1.3 0.6 1.9 0.8 0.3 0.1 0.3 0.7 0.1 1.2-0.2 0.6-0.5 1-0.8 0.9z"/>
									<path id="&lt;Path&gt;" class="s19" d="m379 451.8c-0.8 0-1.5-0.1-2.3-0.3-0.3 0-0.4-0.5-0.3-1.1 0.2-0.6 0.5-1 0.7-1 0.7 0.1 1.4 0.3 2 0.3 0.3 0 0.5 0.5 0.5 1.1 0 0.6-0.3 1-0.6 1z"/>
									<path id="&lt;Path&gt;" class="s19" d="m384.6 450.8l-1.1 0.5-1.2 0.3c-0.3 0-0.6-0.4-0.7-1-0.1-0.6 0-1.1 0.3-1.1l0.9-0.3 0.9-0.4c0.2-0.1 0.6 0.3 0.9 0.8 0.3 0.5 0.3 1.1 0 1.2z"/>
									<path id="&lt;Path&gt;" class="s19" d="m389.2 447.5q-0.9 0.8-1.8 1.5c-0.2 0.2-0.7 0-1-0.5-0.4-0.5-0.5-1-0.3-1.1q0.8-0.7 1.5-1.4c0.2-0.2 0.7 0 1.1 0.4 0.4 0.4 0.6 0.9 0.5 1.1z"/>
									<path id="&lt;Path&gt;" class="s19" d="m392.6 443.4q-0.7 0.9-1.4 1.7c-0.1 0.2-0.6 0.1-1.1-0.3-0.5-0.4-0.7-0.8-0.5-1q0.6-0.9 1.3-1.8c0.2-0.2 0.7 0 1.2 0.3 0.4 0.4 0.7 0.9 0.5 1.1z"/>
									<path id="&lt;Path&gt;" class="s19" d="m395.9 439.3q-0.7 0.8-1.4 1.7c-0.2 0.2-0.7 0.1-1.2-0.3-0.4-0.4-0.7-0.8-0.5-1.1q0.7-0.8 1.4-1.7c0.2-0.2 0.7 0 1.2 0.4 0.4 0.4 0.6 0.8 0.5 1z"/>
									<path id="&lt;Path&gt;" class="s19" d="m399.5 435.9c-0.5 0.5-1.1 0.8-1.6 1.4-0.2 0.1-0.7-0.1-1.1-0.5-0.4-0.5-0.6-1-0.4-1.2 0.6-0.5 1.2-0.9 1.8-1.4 0.3-0.2 0.7 0.1 1.1 0.6 0.3 0.5 0.4 1 0.2 1.1z"/>
									<path id="&lt;Path&gt;" class="s19" d="m403.9 433.9c-0.4 0.1-0.7 0.2-1 0.3-0.3 0.1-0.7 0.2-1 0.4-0.2 0.1-0.6-0.3-0.8-0.8-0.3-0.6-0.3-1.1 0-1.2 0.3-0.2 0.7-0.3 1.1-0.4 0.4-0.2 0.8-0.3 1.2-0.4 0.2 0 0.6 0.4 0.7 1 0.1 0.6 0 1.1-0.2 1.1z"/>
									<path id="&lt;Path&gt;" class="s19" d="m408.7 433.6c-0.7 0-1.4-0.1-2.1 0-0.2 0-0.4-0.5-0.5-1.1 0-0.6 0.2-1.1 0.5-1.1 0.8 0 1.5 0 2.3 0.1 0.3 0 0.5 0.5 0.4 1.1-0.1 0.6-0.3 1-0.6 1z"/>
									<path id="&lt;Path&gt;" class="s19" d="m413.6 434.7c-0.7-0.2-1.4-0.4-2-0.6-0.3 0-0.4-0.6-0.3-1.2 0.2-0.5 0.5-1 0.7-0.9 0.8 0.2 1.5 0.4 2.3 0.6 0.2 0.1 0.3 0.7 0.1 1.2-0.2 0.6-0.6 1-0.8 0.9z"/>
									<path id="&lt;Path&gt;" class="s19" d="m418.3 436.6l-1.9-0.9c-0.3-0.1-0.3-0.6-0.1-1.2 0.3-0.5 0.6-0.9 0.9-0.8l2.1 0.9c0.2 0.1 0.2 0.7-0.1 1.2-0.2 0.5-0.6 0.9-0.9 0.8z"/>
								</g>
							</g>
						</g>
					</g>
					<path id="&lt;Path&gt;" class="s24" d="m343 300.3l1.6 0.9c1.2 0.7 2.1 0 2.1-1.5v-1.2c0-1.5-0.9-3.3-2.1-3.9l-1.6-1c-1.1-0.6-2.1 0.1-2.1 1.6v1.1c0 1.5 1 3.3 2.1 4z"/>
					<path id="&lt;Path&gt;" class="s24" d="m399.5 278.5l1.7 0.9c1.1 0.7 2 0 2-1.5v-1.1c0-1.6-0.9-3.3-2-4l-1.7-1c-1.1-0.6-2.1 0.1-2.1 1.6v1.1c0 1.5 1 3.3 2.1 4z"/>
					<path id="&lt;Path&gt;" class="s24" d="m418.4 438.6l1.7 1c1.1 0.6 2-0.1 2-1.6v-1.1c0-1.5-0.9-3.3-2-4l-1.7-0.9c-1.1-0.7-2.1 0-2.1 1.6v1.1c0 1.5 1 3.3 2.1 3.9z"/>
					<path id="&lt;Path&gt;" class="s24" d="m366.1 449l1.6 0.9c1.2 0.7 2.1 0 2.1-1.6v-1.1c0-1.5-0.9-3.3-2.1-3.9l-1.6-1c-1.2-0.6-2.1 0.1-2.1 1.6v1.1c0 1.5 0.9 3.3 2.1 4z"/>
				</g>
				<g id="&lt;Group&gt;">
					<path id="&lt;Compound Path&gt;" class="s7" d="m307.2 240.3l-35.2-20.4c-9.8-5.6-17.8-1.1-17.8 10.1v18.8c-0.1 11.2 7.8 24.9 17.6 30.5l35.2 20.4c9.8 5.6 17.8 1.1 17.8-10.1v-18.8c0.1-11.2-7.8-24.9-17.6-30.5z"/>
					<g id="&lt;Group&gt;">
						<path id="&lt;Path&gt;" class="s25" d="m141.5 404.4c20.1 12.1 19.4 31.4-1.6 43.1-20.9 11.7-54.3 11.3-74.4-0.8-20.1-12.1-19.4-31.4 1.6-43.1 20.9-11.7 54.3-11.4 74.4 0.8z"/>
						<path id="&lt;Path&gt;" class="s26" d="m55.9 420.7v-4.2c0 6.9 4.4 13.7 13.3 19 18.2 11 48.4 11.3 67.3 0.7 9.8-5.4 14.7-12.7 14.7-20v4.2c0 7.3-4.9 14.6-14.6 20-19 10.6-49.2 10.3-67.4-0.7-8.8-5.3-13.3-12.1-13.3-19z"/>
						<path id="&lt;Path&gt;" class="s27" d="m128.2 382.8c13.2 7.9 12.7 20.5-1 28.1-13.6 7.6-35.3 7.4-48.4-0.5-13.2-7.9-12.7-20.4 1-28.1 13.6-7.6 35.3-7.4 48.4 0.5z"/>
						<path id="&lt;Path&gt;" class="s28" d="m56.5 412.2c0.1-0.3 0.2-0.8 0.3-1.1 0-0.2 0.1-0.4 0.1-0.5 0.1-0.4 0.2-0.8 0.3-1.2 0.1-0.3 0.2-0.7 0.3-1.1 0.1-0.1 0.1-0.4 0.2-0.5 0.1-0.3 0.2-0.8 0.3-1.1 0.1-0.4 0.2-0.8 0.3-1.1 0-0.2 0.1-0.4 0.1-0.6 0.1-0.3 0.2-0.8 0.3-1.1 0.1-0.3 0.2-0.8 0.3-1.1 0.1-0.2 0.1-0.4 0.2-0.6 0-0.3 0.2-0.7 0.3-1.1-2.1 7.7 1.8 15.9 11.8 21.9 17.1 10.3 45.3 10.5 63.1 0.6 11-6.1 15.4-14.6 13.2-22.7 0.1 0.3 0.2 0.8 0.3 1.1 0 0.2 0.1 0.4 0.1 0.5 0.1 0.4 0.2 0.8 0.3 1.2 0.1 0.3 0.3 0.7 0.3 1.1 0.1 0.1 0.1 0.3 0.2 0.5 0.1 0.3 0.2 0.8 0.3 1.1 0.1 0.3 0.2 0.8 0.3 1.1 0 0.2 0.1 0.4 0.2 0.6 0 0.3 0.2 0.7 0.3 1.1 0 0.3 0.2 0.8 0.3 1.1 0 0.1 0.1 0.4 0.1 0.5 0.1 0.4 0.2 0.8 0.3 1.1 2.4 8.7-2.4 17.8-14.1 24.3-18.9 10.6-49.1 10.3-67.3-0.7-10.7-6.4-14.9-15.1-12.7-23.3z"/>
						<path id="&lt;Path&gt;" class="s29" d="m72.1 386.8q3.6-2.1 7.2-4.2c-13.2 7.6-13.5 20-0.5 27.8 13.1 7.9 34.8 8.1 48.4 0.5 13.7-7.6 14.2-20.2 1-28.1l7.5 4.3c17.1 10.3 16.5 26.6-1.3 36.5-17.8 9.9-46 9.7-63.1-0.6-16.8-10.2-16.4-26.3 0.8-36.2z"/>
						<g id="&lt;Group&gt;">
							<path id="&lt;Path&gt;" class="s30" d="m112.1 367l-4.3-12.2c10.6 1.3 22.4 13.7 26.4 27.8 4 14.1-1.3 24.5-11.9 23.2-10.5-1.3-22.3-13.8-26.3-27.9-4-14 1.3-24.4 11.8-23.1l4.3 12.2c-5.3-0.7-8 4.6-6 11.7 2 7.1 8 13.4 13.3 14.1 5.4 0.6 8-4.6 6-11.7-2-7.2-8-13.5-13.3-14.1z"/>
							<path id="&lt;Path&gt;" class="s31" d="m103.4 370.7l5-3c1-0.7 2.2-0.9 3.7-0.7l-4.9 3c-1.5-0.2-2.7 0-3.8 0.7z"/>
							<path id="&lt;Path&gt;" class="s31" d="m100.4 356.2l6.8-4.2c2-1.2 4.5-1.7 7.4-1.3l-6.8 4.1c-2.9-0.4-5.4 0.1-7.4 1.4z"/>
							<path id="&lt;Path&gt;" class="s31" d="m123.2 392.1l-5 3c2.8-1.7 3.8-5.9 2.3-11.1-2-7.1-8-13.4-13.3-14l4.9-3c5.3 0.6 11.3 6.9 13.3 14.1 1.5 5.1 0.5 9.3-2.2 11z"/>
							<path id="&lt;Path&gt;" class="s32" d="m107.2 370c5.3 0.6 11.3 6.9 13.3 14 2 7.2-0.7 12.4-6 11.8-5.3-0.7-11.3-7-13.3-14.1-2-7.1 0.6-12.4 6-11.7z"/>
							<path id="&lt;Path&gt;" class="s33" d="m136.5 400.3l-6.8 4.1c5.4-3.2 7.4-11.5 4.5-21.8-4-14.1-15.8-26.5-26.4-27.8l6.8-4.1c10.5 1.3 22.3 13.7 26.3 27.8 3 10.3 1 18.5-4.4 21.8z"/>
						</g>
						<g id="&lt;Group&gt;">
							<path id="&lt;Path&gt;" class="s34" d="m90.5 299.9q-10.5-1.7-21-3.3c-6.8-1.1-13-6.5-16.2-15-2.7-7.3-2.5-15.2 0.1-21.7 1.3-3.4 3.3-6.3 5.8-8.6q1.6-1.4 3.4-2.4 1.3-0.7 2.7-1.2c0.6-0.2 1.4-0.5 2-0.7 0.3-0.1 0.7-0.2 1-0.3 0.6-0.2 1.4-0.5 2-0.7 0.6-0.2 1.4-0.5 2-0.7 0.3-0.1 0.7-0.2 1-0.3 0.6-0.3 1.4-0.5 2-0.7 0.6-0.2 1.5-0.5 2.1-0.7 0.3-0.1 0.7-0.3 1-0.4 0.6-0.2 1.4-0.5 2-0.7 0.6-0.2 1.4-0.4 2-0.6 0.3-0.1 0.7-0.3 1-0.4 0.6-0.2 1.4-0.5 2-0.7q-1.6 0.6-3.2 1.4-2.5 1.4-4.6 3.4c-2.5 2.4-4.5 5.3-6 8.6-3.7 8-4.2 18.3-0.7 27.6 3.8 10.2 11.4 16.8 19.6 18.1z"/>
							<path id="&lt;Path&gt;" class="s35" d="m89.9 239.9l45.9-4c-2.6 0.2-5.2 1-7.7 2.4-12 6.5-17 24.3-11.3 39.6 4.5 12.1 14.4 19 24.2 18.2l-45.9 4c-9.8 0.8-19.7-6.2-24.2-18.3-5.7-15.3-0.6-33 11.3-39.6 2.5-1.3 5.1-2.1 7.7-2.3z"/>
							<path id="&lt;Path&gt;" class="s36" d="m138.8 235.9q30.4 2.1 60.9 4.3c-2.5-0.2-4.9 0.4-7.3 1.6-8.1 4.5-11.5 16.6-7.7 27 3.4 9 17.4 10.4 24.7 8.5-16.7 16.8-45.7 13.4-65.5 18.3-10.7 2.7-22.2-4.4-27.1-17.7-5.7-15.3-0.7-33.1 11.3-39.6 3.4-1.9 7.1-2.7 10.7-2.4z"/>
							<path id="&lt;Path&gt;" class="s37" d="m213.4 250.9c0.1 0.1 0.1 0.2 0.2 0.3q0 0.1 0 0.2c0.1 0.1 0.1 0.2 0.2 0.3 0 0.1 0.1 0.2 0.1 0.3q0 0 0.1 0.1c0 0.1 0.1 0.2 0.1 0.3 0 0.1 0.1 0.2 0.1 0.3q0.1 0.1 0.1 0.2c0 0 0.1 0.2 0.1 0.2 0.1 0.1 0.1 0.3 0.2 0.3q0 0.1 0 0.2c0.1 0.1 0.1 0.2 0.2 0.3-2.8-5.9-8.6-8.6-13.5-5.9-5.2 2.9-7.4 10.6-4.9 17.3 2.5 6.7 8.7 9.8 13.9 6.9 2.7-1.5 4.6-4.2 5.4-7.5q-0.4 1.6-0.8 3.1c-1.3 5.1-4.3 9.4-8.5 11.7-8.1 4.5-17.8-0.3-21.7-10.7-3.8-10.4-0.4-22.5 7.7-27 7.7-4.2 16.8-0.1 21 9.1z"/>
							<path id="&lt;Path&gt;" class="s38" d="m215.2 254.9c2.5 6.7 0.3 14.4-4.9 17.3-5.2 2.9-11.4-0.2-13.9-6.9-2.5-6.7-0.3-14.4 4.9-17.3 5.2-2.8 11.4 0.3 13.9 6.9z"/>
						</g>
						<g id="&lt;Group&gt;">
							<g id="&lt;Group&gt;">
								<g id="&lt;Group&gt;">
									<path id="&lt;Path&gt;" class="s39" d="m213.5 255.4c1.9 5.2 0.2 11.1-3.7 13.3-4 2.2-8.8-0.2-10.8-5.3-1.9-5.1-0.2-11.1 3.8-13.3 4-2.2 8.8 0.2 10.7 5.3z"/>
								</g>
								<g id="&lt;Group&gt;">
									<path id="&lt;Path&gt;" class="s39" d="m209.5 249c3.3-0.3 6.6 2 8.1 6.1l-4.1 0.3c-1.5-4-4.8-6.4-8.1-6.1 1.2-0.1 2.8-0.2 4.1-0.3z"/>
								</g>
								<g id="&lt;Group&gt;">
									<path id="&lt;Path&gt;" class="s39" d="m207.2 269.5q1.3-0.1 2.6-0.8c3.9-2.2 5.6-8.1 3.7-13.3l4.1-0.3c1.9 5.1 0.2 11.1-3.8 13.3q-1.3 0.6-2.6 0.8c-1.2 0.1-2.8 0.2-4 0.3z"/>
								</g>
								<g id="&lt;Group&gt;">
									<path id="&lt;Path&gt;" class="s40" d="m217.6 255.1l-0.9 1.2c-1.3-3.5-4.5-5.1-7.2-3.6-2.7 1.5-3.9 5.5-2.6 8.9 1.3 3.5 4.6 5.1 7.3 3.6 2.7-1.5 3.8-5.5 2.5-8.9l0.9-1.2c1.9 5.1 0.2 11.1-3.8 13.3-4 2.2-8.8-0.2-10.7-5.3-1.9-5.2-0.2-11.1 3.8-13.3 4-2.2 8.8 0.2 10.7 5.3z"/>
								</g>
								<g id="&lt;Group&gt;">
									<path id="&lt;Path&gt;" class="s41" d="m205.4 249.3l4.1-0.3q-1.4 0.1-2.6 0.8c-4 2.2-5.7 8.1-3.8 13.3 1.5 4 4.8 6.3 8.1 6.1l-4 0.3c-3.3 0.3-6.6-2-8.2-6.1-1.9-5.1-0.2-11.1 3.8-13.3q1.3-0.7 2.6-0.8z"/>
								</g>
								<g id="&lt;Group&gt;">
									<path id="&lt;Path&gt;" class="s39" d="m227.9 251.4c1.9 0 3.8 1.4 4.7 3.7l-15.9 1.2c-1-2.7-3.1-4.3-5.3-4.2q8.3-0.3 16.5-0.7z"/>
								</g>
								<g id="&lt;Group&gt;">
									<path id="&lt;Path&gt;" class="s39" d="m212.6 265.7q0.8-0.1 1.6-0.5c2.7-1.5 3.8-5.5 2.5-8.9l15.9-1.2c1.2 3.1 0.2 6.7-2.3 8q-0.6 0.4-1.3 0.4-8.2 1.1-16.4 2.2z"/>
								</g>
								<g id="&lt;Group&gt;">
									<path id="&lt;Path&gt;" class="s42" d="m211.4 252.1q8.3-0.3 16.5-0.7-0.9 0.1-1.7 0.5c-2.4 1.4-3.4 4.9-2.3 8 1 2.5 3 3.9 5.1 3.6-0.2-0.1-0.6 0.1-0.9 0.2q-3.6 0.4-7.3 0.9-4.1 0.6-8.2 1.1c-2.3 0.3-4.6-1.3-5.7-4.1-1.3-3.4-0.1-7.4 2.6-8.9q0.9-0.5 1.9-0.6z"/>
								</g>
								<g id="&lt;Group&gt;">
									<path id="&lt;Path&gt;" class="s39" d="m232.6 255.1c1.2 3.1 0.2 6.7-2.3 8-2.4 1.3-5.2-0.1-6.4-3.2-1.1-3.1-0.1-6.6 2.3-8 2.4-1.3 5.3 0.1 6.4 3.2z"/>
								</g>
							</g>
						</g>
						<g id="&lt;Group&gt;">
							<path id="&lt;Path&gt;" class="s43" d="m132.4 400.4q-0.4 1-0.9 1.9-0.2 0.5-0.4 0.9-0.1 0.3-0.2 0.5 0 0.1-0.1 0.2c1.7-3.6 2.2-8.3 1.4-13.8q-0.1-0.9-0.3-1.8l1.5-2.3q0.1 0.9 0.3 1.7c0.7 5.1 0.2 9.4-1.3 12.7z"/>
							<path id="&lt;Path&gt;" class="s43" d="m125.8 409.7l-13.6 8.2c5.1-3.1 7.8-10.2 6.4-19.7q-0.2-0.8-0.3-1.7l13.6-8.2q0.2 0.9 0.3 1.8c1.4 9.4-1.3 16.5-6.4 19.6z"/>
							<path id="&lt;Path&gt;" class="s43" d="m104.7 419.6q-1.9-0.1-3.8-0.3c9.1 0.6 14.7-7.4 12.9-19.7q-0.1-0.8-0.3-1.7l4.8-1.4q0.1 0.9 0.3 1.7c1.9 13.4-4.1 22-13.9 21.4z"/>
							<path id="&lt;Path&gt;" class="s38" d="m87.6 259.6q1.9 0.1 3.8 0.2 1.8 0.1 3.8 0.8l-3.4-0.2q-2.2-0.7-4.2-0.8z"/>
							<path id="&lt;Path&gt;" class="s44" d="m115.3 291.4l1.4-2.4 16.7 97-1.5 2.3z"/>
							<path id="&lt;Path&gt;" class="s38" d="m67.4 269.2l13.7-8.1c2.8-1.7 6.4-2.1 10.7-0.7l-13.7 8.2c-4.2-1.4-7.9-1.1-10.7 0.6z"/>
							<path id="&lt;Path&gt;" class="s38" d="m91.8 260.4l3.4 0.2c10.1 3.3 19.7 16 21.5 28.4l-1.4 2.4c-2-13.5-12.5-27.4-23.5-31z"/>
							<path id="&lt;Path&gt;" class="s45" d="m61.4 277.9q0.2-0.5 0.5-1.1 0.1-0.2 0.2-0.5c0.1-0.1 0.1-0.2 0.2-0.3 0-0.1 0.1-0.3 0.1-0.4q0.1 0 0.1-0.1c0-0.1 0.1-0.3 0.2-0.4 0-0.1 0.1-0.2 0.1-0.3q0-0.1 0.1-0.2 0-0.1 0.1-0.2c2.5-5.6 8.1-8.1 15.1-5.8l-2.8 3.9c-6.5-2.1-11.5 0.2-13.9 5.4z"/>
							<path id="&lt;Path&gt;" class="s46" d="m101.7 299.6l13.6-8.2 16.6 96.9-13.6 8.2z"/>
							<path id="&lt;Path&gt;" class="s47" d="m96.9 300.9l4.8-1.3 16.6 96.9-4.8 1.4z"/>
							<path id="&lt;Path&gt;" class="s38" d="m78.1 268.6l13.7-8.2c11 3.6 21.5 17.5 23.5 31l-13.6 8.2c-2-13.6-12.6-27.4-23.6-31z"/>
							<path id="&lt;Path&gt;" class="s48" d="m75.3 272.5c10.1 3.3 19.8 16 21.6 28.4l16.6 97q0.2 0.9 0.3 1.7c2.1 14.2-5.6 22.6-17.2 18.9-11.5-3.8-22.6-18.3-24.7-32.5q-0.1-0.8-0.1-1.6l-11.5-95.3c-1.8-12.5 4.9-19.9 15-16.6z"/>
							<path id="&lt;Path&gt;" class="s45" d="m75.3 272.5l2.8-3.9c11 3.6 21.6 17.4 23.6 31l-4.8 1.3c-1.8-12.4-11.5-25.1-21.6-28.4z"/>
						</g>
						<g id="&lt;Group&gt;">
							<path id="&lt;Path&gt;" class="s49" d="m80.7 385.1l-4.3-12.2c10.6 1.3 22.4 13.8 26.4 27.8 4 14.1-1.3 24.5-11.8 23.2-10.6-1.3-22.4-13.8-26.4-27.8-4-14.1 1.3-24.5 11.8-23.2l4.3 12.2c-5.3-0.7-8 4.6-6 11.7 2 7.1 8 13.4 13.4 14.1 5.3 0.6 8-4.6 5.9-11.7-2-7.1-8-13.5-13.3-14.1z"/>
							<path id="&lt;Path&gt;" class="s50" d="m94 399.2c-2-7.1-8-13.5-13.3-14.1-1.4-0.2-2.7 0.1-3.7 0.7l-4.9 3c1-0.7 2.2-0.9 3.7-0.7 5.3 0.6 11.3 6.9 13.3 14.1 1.5 5.1 0.5 9.3-2.2 11l4.9-3c2.7-1.7 3.7-5.9 2.2-11z"/>
							<path id="&lt;Path&gt;" class="s49" d="m75.8 388.1c5.3 0.6 11.3 6.9 13.3 14.1 2.1 7.1-0.6 12.3-6 11.7-5.3-0.7-11.3-7-13.3-14.1-2-7.1 0.7-12.4 6-11.7z"/>
							<path id="&lt;Path&gt;" class="s51" d="m109.6 396.6c-4-14.1-15.8-26.5-26.4-27.8-2.9-0.4-5.4 0.1-7.4 1.4l-6.7 4.1c2-1.2 4.5-1.8 7.3-1.4 10.6 1.3 22.4 13.8 26.4 27.8 2.9 10.3 0.9 18.6-4.5 21.8l6.8-4.1c5.4-3.3 7.4-11.5 4.5-21.8z"/>
						</g>
						<g id="&lt;Group&gt;">
							<path id="&lt;Path&gt;" class="s52" d="m72.2 285.9l-2-6.2c7.2 0.9 15.4 9.5 18.2 19.2 2.7 9.8-0.9 16.9-8.2 16-7.3-0.9-15.4-9.5-18.2-19.2-2.8-9.7 0.9-16.9 8.2-16l2 6.2c-4.6-0.6-7 4-5.2 10.2 1.8 6.3 7 11.8 11.7 12.4 4.6 0.6 7-4 5.2-10.3-1.8-6.2-7-11.7-11.7-12.3z"/>
							<path id="&lt;Path&gt;" class="s53" d="m83.9 298.2c-1.8-6.2-7-11.7-11.7-12.3-1.2-0.2-2.3 0.1-3.2 0.6l-1.8 1.1c0.8-0.5 1.9-0.8 3.2-0.6 4.7 0.6 9.9 6.1 11.7 12.3 1.3 4.5 0.4 8.2-2 9.7l1.8-1.1c2.4-1.5 3.3-5.2 2-9.7z"/>
							<path id="&lt;Path&gt;" class="s52" d="m70.4 287c4.7 0.6 9.9 6.1 11.7 12.3 1.8 6.3-0.6 10.9-5.3 10.3-4.6-0.6-9.9-6.1-11.6-12.4-1.8-6.2 0.6-10.8 5.2-10.2z"/>
							<path id="&lt;Path&gt;" class="s54" d="m90.9 297.4c-2.8-9.7-11-18.3-18.2-19.2-2-0.2-3.7 0.1-5.1 1l-2.5 1.5c1.4-0.9 3.1-1.2 5.1-1 7.2 0.9 15.4 9.5 18.2 19.2 2 7.1 0.6 12.8-3.1 15.1l2.5-1.5c3.7-2.3 5.1-8 3.1-15.1z"/>
						</g>
					</g>
					<g id="&lt;Group&gt;">
						<g id="&lt;Group&gt;">
							<g id="&lt;Group&gt;">
								<path id="&lt;Path&gt;" class="s55" d="m223.6 254.9l14.1-8.2 14.2 29.7-14.1 8.2z"/>
							</g>
							<g id="&lt;Group&gt;">
								<path id="&lt;Path&gt;" class="s40" d="m237.8 284.6l14.1-8.2 16.2 3.8-14.1 8.2z"/>
							</g>
							<g id="&lt;Group&gt;">
								<path id="&lt;Path&gt;" class="s56" d="m254 288.4l14.1-8.2 1.1 4.9-14.1 8.2z"/>
							</g>
							<g id="&lt;Group&gt;">
								<path id="&lt;Path&gt;" class="s57" d="m225.5 229l14.1-8.2-1.9 25.9-14.1 8.2z"/>
							</g>
						</g>
					</g>
					<g id="&lt;Group&gt;">
						<g id="&lt;Group&gt;">
							<g id="&lt;Group&gt;">
								<path id="&lt;Path&gt;" class="s17" d="m247.3 225.6l2.8-1.6c3.2-1.8 7.6-1.6 12.5 1.3l-2.7 1.6c-4.9-2.9-9.4-3.1-12.6-1.3z"/>
							</g>
							<g id="&lt;Group&gt;">
								<path id="&lt;Path&gt;" class="s17" d="m310.3 306.3l-2.7 1.6c3.2-1.8 5.1-5.8 5.1-11.4l2.8-1.5c0 5.5-2 9.5-5.2 11.3z"/>
							</g>
							<g id="&lt;Group&gt;">
								<path id="&lt;Path&gt;" class="s17" d="m312.8 277.8l2.7-1.6v18.8l-2.8 1.5z"/>
							</g>
							<g id="&lt;Group&gt;">
								<path id="&lt;Path&gt;" class="s17" d="m259.9 226.9l2.7-1.6 35.3 20.3-2.7 1.6z"/>
							</g>
							<g id="&lt;Group&gt;">
								<path id="&lt;Path&gt;" class="s17" d="m294.5 249.9c8.7 5 15.7 17.1 15.6 27.1v18.7c0 10-7.1 14-15.7 9l-35.3-20.3c-8.7-5-15.6-17.2-15.6-27.1v-18.8c0.1-9.9 7.1-13.9 15.8-9z"/>
							</g>
							<path id="&lt;Compound Path&gt;" fill-rule="evenodd" class="s58" d="m312.8 277.8l-0.1 18.7c0 11.3-7.9 15.8-17.7 10.2l-35.3-20.4c-9.7-5.6-17.6-19.3-17.6-30.5v-18.8c0.1-11.2 8-15.8 17.8-10.1l35.3 20.3c9.7 5.7 17.6 19.3 17.6 30.6zm-2.7 17.9v-18.7c0.1-10-6.9-22.1-15.6-27.1l-35.2-20.4c-8.7-5-15.7-0.9-15.8 9v18.8c0 9.9 6.9 22.1 15.6 27.1l35.3 20.3c8.6 5 15.7 1 15.7-9z"/>
							<g id="&lt;Group&gt;">
								<path id="&lt;Path&gt;" class="s17" d="m295.2 247.2l2.7-1.6c9.8 5.7 17.7 19.3 17.6 30.6l-2.7 1.6c0-11.3-7.9-24.9-17.6-30.6z"/>
							</g>
						</g>
					</g>
					<g id="&lt;Group&gt;">
						<g id="&lt;Group&gt;">
							<g id="&lt;Group&gt;">
								<g id="&lt;Group&gt;">
									<path id="&lt;Compound Path&gt;" class="s19" d="m270.2 272.2c3 1.8 5 0.7 5-3.1v-13.7l3.9 2.3v13.7c0 6.1-3.4 8-8.9 4.8-5.6-3.2-9.1-9-9.1-15.2v-13.7l3.9 2.3v13.6c0 3.8 2.1 7.2 5.2 9z"/>
									<path id="&lt;Compound Path&gt;" class="s19" d="m287.6 262.6v23.4l-3.9-2.2v-23.5z"/>
								</g>
							</g>
						</g>
					</g>
					<g id="&lt;Group&gt;">
						<g id="&lt;Group&gt;">
							<path id="&lt;Path&gt;" class="s56" d="m240.6 228l14.2-8.2 1 4.8-14.1 8.2z"/>
						</g>
						<g id="&lt;Group&gt;">
							<path id="&lt;Path&gt;" class="s40" d="m221.9 223.5l14.1-8.2 18.8 4.5-14.2 8.2z"/>
						</g>
						<g id="&lt;Group&gt;">
							<path id="&lt;Path&gt;" class="s56" d="m240.6 228l1.1 4.8-16.2-3.8-1.9 25.9 14.2 29.7 16.2 3.8 1.1 4.9-18.8-4.4-16.6-35 2.2-30.4z"/>
						</g>
					</g>
					<path id="&lt;Path&gt;" class="s59" d="m189.9 243.6c0 0 3.7 0.9 9.2 6.1 3 3.8 3.6 6.4 1.5 5.7-3.9-1.2-16-4-16-4-41.3-2.1-68.5 2.4-68.5 2.4 0 0-29.8-0.1-45.6 3.3-1.6 0.3-4.1 0.8-5.4 1-6.6 1-11.7 1.8-11.7 1.8 1.3-3.4 3.3-6.3 5.8-8.6 4.9-2 11.5-4.3 18.4-5.7q0 0 0 0c13.9-2.8 33.4-4.5 46.7-4.8 13.4-0.2 65.6 2.8 65.6 2.8z"/>
				</g>
				<g id="&lt;Group&gt;">
					<path id="&lt;Path&gt;" class="s25" d="m209.1 686.8c1.2 8.5-14 17.1-33.9 19.2-20 2.1-37.1-3.1-38.3-11.6-1.2-8.5 14-17.1 33.9-19.2 20-2.1 37.1 3.1 38.3 11.6z"/>
					<path id="&lt;Path&gt;" class="s60" d="m134.1 692c-1.2 0.8-1.1 1.5-1.2 2.9-0.2 1.5-0.4 3.1 2.8 4 3.2 1 6 0.4 7.8-0.4 1.8-0.7 2.1-1.1 2.6-1.8 0.6-0.7 0.7-1.7 1.2-1.9 0.6-0.2 7.1-2.1 9.7-3.5 2.5-1.5 4.5-4.3 4.4-6.4-0.1-2-0.4-3.1-1.6-3.1-1.2 0-25.7 10.2-25.7 10.2z"/>
					<path id="&lt;Path&gt;" class="s61" d="m146.6 681.1c4.7-1.2 5.6-1.1 8-2.1 2.4-0.9 5.2 1.5 5.8 3.3 0.7 1.9-1 4.6-2.6 6.4-1.6 1.7-3.9 2.1-5.6 2.5-1.8 0.4-5.7 1.9-7.4 3.5-1.8 1.7-5.3 2-7.5 1.7-2.3-0.4-3.6-1.7-3.8-2.6-0.1-0.9-0.1-6.7 0.5-8.1 0.5-1.4 5.2-4.1 5.2-4.1z"/>
					<g id="&lt;Group&gt;">
						<path id="&lt;Path&gt;" class="s60" d="m187.7 688.9c-0.9 0.4-0.7 2.4-0.7 4.2 0 1.8 2.8 3.4 6.3 3.1 2.7-0.2 3.8-0.9 6.1-2.3 2.4-1.5 2.7-2.6 2.7-2.6 0 0-0.2-1.6 3.2-2.9 3.4-1.3 4.3-2 6.5-4.9 2.1-3 1.5-5 1.2-6.1-0.3-1.2-2.7-2.3-3.4-2.2-0.6 0.2-21.9 13.7-21.9 13.7z"/>
						<path id="&lt;Path&gt;" class="s61" d="m196.9 676c4.5-2.8 8.5-3.8 10.7-3.8 2.2 0.1 4.4 2.4 4.9 5.1 0.4 2.6-1 4.3-2.1 5.8-1.2 1.4-2.6 3-6.4 4.6-3.9 1.6-4.4 4.5-8.6 5.6-4.3 1.1-7.4 0.1-8-1.6-0.5-1.7 0.1-9.6 0.3-10 0.3-0.4 9.2-5.7 9.2-5.7z"/>
						<path id="&lt;Path&gt;" class="s62" d="m132.7 537c-6.1-0.1-12.7 0.3-12 3.9 0.7 3.7 4.8 8.8 14.3 16.4 9.6 7.6 16.3 14 16.3 14 0 0 8.3-3.7 5.6-6.7-2.7-3-6.3-5.5-10.5-10.5-4.1-4.9-10.1-15.8-13.7-17.1z"/>
						<path id="&lt;Path&gt;" class="s63" d="m133.8 535.2c0.1 0.2 19.8 24.5 19.9 25.8 0.2 1.2-2 9.7-5 9.7-2.9-0.1-23.5-20.1-27-25.2-3.6-5.1 0.2-11.1 0.2-11.1z"/>
						<path id="&lt;Path&gt;" class="s63" d="m131.4 519.1c-6.1 8-11.5 17.8-11 20.8 0.5 3 4.4 3.7 6.5 3.2 2.1-0.5 5.1-2.8 7.9-5.2 2.8-2.4 9-10.4 9.5-12.8 0.5-2.5-12.9-6-12.9-6z"/>
						<path id="&lt;Path&gt;" class="s63" d="m145.9 503.1c-6.5 1.6-15.8 18.3-15.8 18.3 0 0-0.6 4 5.7 6.7 6.3 2.7 10.4-2.5 10.4-2.5z"/>
						<path id="&lt;Path&gt;" class="s64" d="m177.2 582.5c0 0-1.3 4.7-3.2 11.2-3.9 13.8-10.3 36-11.9 39.7-0.9 2.3-4.2 2.7-7.7 2.2-4.9-0.7-10.2-3.2-10-4.6q0.1-0.3 0.2-1.1c0.8-6.6 4-39.1 3.9-46.1 0-7.5 1.3-15.5 6.4-27l16.6-11.9z"/>
						<path id="&lt;Path&gt;" class="s64" d="m162.1 633.4c-5.1 11.7-12.2 46.6-13 50.4-0.4 1.9-3 3.2-6 3.7-2.9 0.4-7.5-1-9.4-2.7-0.6-3 0.4-15.2 1.1-25.2 0.6-10 4.8-19.5 7.8-26 0.8-1.7 1.4-2.9 2-3.7 1.5-2.2 2.3-1.7 4.2-3.2 0 0 4.2-0.5 8 1 2.3 0.9 4.4 2.7 5.3 5.7z"/>
						<path id="&lt;Path&gt;" class="s65" d="m174 593.7c-3.9 13.8-10.3 36-11.9 39.7-5.1 11.7-12.2 46.6-13 50.4-0.4 1.9-3 3.2-6 3.7 1.3-20.6 10.6-49.8 10.6-49.8 0 0 0.3-0.8 0.7-2.1 0.6-1.8 1.4-4.5 2.4-7.9 3.1-11 7.4-28.3 5.9-36.6 0 0 5.3-0.6 11.3 2.6z"/>
						<path id="&lt;Path&gt;" class="s64" d="m166.5 561.8c-4.7 14.6-6.6 20-3.7 29.3 2.8 9.4 9 10.5 10.7 15.6 1.7 5.1 5.8 28.7 6.7 34.1 0.9 5.3 13 3.6 14.5 1.6 1.6-1.9 3.9-3.5 4.4-8 0.5-4.6 1.9-31.6-1.5-48.6-3.4-17-7.8-29.9-7.8-29.9z"/>
						<path id="&lt;Path&gt;" class="s64" d="m182.1 633.3c-2.4 8.5-4.1 10.7-0.5 26.3 3.6 15.6 5.4 24.6 5.4 24.6 0 0 0.4 3.7 8.6 1.6 4.7-1.1 5.6-5.6 5.5-6.3-0.1-0.7-2.2-40-1.8-47.1 0.4-7.1-17.2 0.9-17.2 0.9z"/>
						<path id="&lt;Path&gt;" class="s66" d="m193.3 564.7c0.3 4.3-2.9 5.1-3.5 5.8-0.5 0.7-12.6 2.1-25-2-12.3-4.2-11.7-7-11.7-7 0 0 0.1-5.3-1.1-8.6-1.3-3.4-9.1-17.8-11.3-28.9-2.2-11.2-0.6-16.2 2.4-18.9 3-2.8 6.2-3 10.1-3 3.9-0.1 13.4 1.3 22.8 4.7 9.4 3.4 15.8 7.7 15.9 9.6 0 1.8 1.4 48.3 1.4 48.3z"/>
						<path id="&lt;Path&gt;" class="s62" d="m190.5 559.9c-1.6 3.6-1.8 2.8-2.3 7.7-0.6 4.9-0.2 7 0 8.6 0.1 1.7-0.2 2.3 0 3.9 0.1 1.7 0.3 3.4 3.2 4.6 2.9 1.2 5.3 0.6 6.2 1.1 0.9 0.5 0.4-1.5 0.4-2.1 0-0.6 0.5-1.3 0.7-2.6 0.2-1.3 0-3.3 0-3.3l-0.5-2.8c0 0 3.5-4.5 3.3-9.7-0.2-5.2-11-5.4-11-5.4z"/>
						<path id="&lt;Path&gt;" class="s63" d="m198.8 575.7c-1.3 1.6-8.3 4.7-11.5 0-3.2-4.7 1.5-15.8 1.5-15.8 0 0 11.6 0.4 12.6 4 1 3.5-2.6 11.8-2.6 11.8z"/>
						<path id="&lt;Path&gt;" class="s63" d="m181.3 537c0 0 0.1 5.6 1.8 10.6 1.8 5 6 17.6 7.6 19.5 1.7 1.9 5.9 2.3 7.5 1.8 1.6-0.5 3.3-1.7 3.3-4.5-0.1-2.8-5.7-28.1-5.7-28.6-0.1-0.4-14.5 1.2-14.5 1.2z"/>
						<path id="&lt;Path&gt;" class="s62" d="m157.2 493.4c0.8 5.1-0.5 9.3-1.9 11.2 6.1 2.9 17.8 3.1 20.1 2.6-0.2-5.5 0.6-7.5 1.4-8.2 0.8-0.7 4.3-0.4 5.4-2.3 1.1-1.9 3.3-5.7 0.1-17.6-0.7-2.5-5.2-15.4-8.5-14.9-3.4 0.4-18.8 19.8-16.6 29.2z"/>
						<path id="&lt;Path&gt;" class="s67" d="m177.3 485.1l-1.7 1.1c0 0-1.6-3-3.6-1.4-2 1.6-1.4 9.8-2.2 12.6-0.7 2.9-8.9 2-8.9 2 0 0-2.8-0.5-3.5-1.1-0.8-0.5-14.5-10.6-10.5-22.9 1.3-14 11.9-16.1 17.2-16.2 5.2-0.1 10.3 1.7 12 6.4 0.4 1.1-0.9 3.6-1 4.6-0.2 1.2 0.3 2.2 0.9 3 1.2 1.8 1.6 3.9 1 5.9l-0.2 0.8z"/>
						<path id="&lt;Path&gt;" class="s62" d="m174.3 486.3c-0.3-2.2-0.7-3.4-1.9-2.6-1.2 0.8-1.2 3.9-0.6 5 0.6 1 2.2 3.3 2.7 1.8 0.5-1.6-0.2-4.2-0.2-4.2z"/>
						<path id="&lt;Path&gt;" class="s63" d="m185 513c0 0-7.2 3.9-6.5 13.3 0.8 9.3 3.2 15.3 3.2 15.3 0 0 15.1-1.9 15-3.2 0-1.3-1.1-17.7-4.1-22.3-2.9-3.3-5.1-4.1-7.6-3.1z"/>
					</g>
				</g>
				<g id="&lt;Group&gt;">
					<g id="&lt;Group&gt;">
						<g id="&lt;Group&gt;">
							<path id="&lt;Path&gt;" class="s17" d="m331.2 230.1l3.6-2.1c2.2-1.2 5.2-1.1 8.6 0.9l-3.6 2.1c-3.4-2-6.4-2.1-8.6-0.9z"/>
						</g>
						<g id="&lt;Group&gt;">
							<path id="&lt;Path&gt;" class="s17" d="m339.8 231l3.6-2.1 11.3 6.5-3.6 2.1z"/>
						</g>
						<g id="&lt;Group&gt;">
							<path id="&lt;Path&gt;" class="s17" d="m350.2 239.5c5.9 3.4 10.7 11.7 10.7 18.5v12.9c-0.1 6.8-4.9 9.5-10.8 6.1l-11.2-6.5c-6-3.4-10.7-11.7-10.7-18.5v-12.8c0-6.8 4.9-9.6 10.8-6.2z"/>
						</g>
						<path id="&lt;Compound Path&gt;" fill-rule="evenodd" class="s68" d="m363.1 258.4v12.8c-0.1 7.7-5.5 10.7-12.2 6.9l-11.2-6.5c-6.7-3.9-12.1-13.2-12.1-20.9l0.1-12.8c0-7.7 5.4-10.8 12.1-6.9l11.3 6.5c6.6 3.8 12 13.2 12 20.9zm-2.2 12.5v-12.9c0-6.8-4.8-15.1-10.7-18.5l-11.2-6.5c-5.9-3.4-10.8-0.6-10.8 6.2v12.8c0 6.8 4.7 15.1 10.7 18.5l11.2 6.5c5.9 3.4 10.7 0.7 10.8-6.1z"/>
						<path id="&lt;Path&gt;" class="s17" d="m354.7 235.4l-3.6 2.1c6.6 3.8 12 13.2 12 20.9v12.8c0 3.8-1.4 6.5-3.6 7.7l3.6-2.1c2.2-1.2 3.6-3.9 3.6-7.7v-12.8c0-7.7-5.4-17.1-12-20.9z"/>
					</g>
				</g>
				<g id="&lt;Group&gt;">
					<path id="&lt;Path&gt;" class="s25" d="m735.1 585.4c-2 8.9-20.3 11.8-40.8 6.5-20.6-5.4-35.6-16.9-33.6-25.7 1.9-8.9 20.2-11.8 40.8-6.5 20.5 5.4 35.6 16.9 33.6 25.7z"/>
					<path id="&lt;Path&gt;" class="s25" d="m654.9 618.9l-38.1-22v-11.4l38.1-22h11l38 22v11.4l-38 22z"/>
					<g id="&lt;Group&gt;">
						<g id="&lt;Group&gt;">
							<g id="&lt;Group&gt;">
								<path id="&lt;Path&gt;" class="s69" d="m654.3 401.3c-4.9 11.2-9 18.4-9 20.3 0 1.9 2.7 7.1 6 6.6 3.3-0.5 5.8-2.5 6.9-5.4 1.1-2.9 7.4-12.8 8.5-18 1-5.3-12.4-3.5-12.4-3.5z"/>
								<path id="&lt;Path&gt;" class="s17" d="m664.5 378.2c-6.1 1.1-9.1 10.2-9.9 15.3-0.8 5.2-2.9 9.9-2.7 11.2 0.2 1.2 5.3 8.3 16.5 4 11.3-4.3-3.9-30.5-3.9-30.5z"/>
								<path id="&lt;Path&gt;" class="s70" d="m663.4 563.5c-0.8 0.3-0.8 0.7-0.8 2 0 1.3 0.3 2.9 3.7 4.3 3.3 1.4 7.1 0.6 10-1 2.8-1.7 3-2.9 6.6-4.9 3.7-2 3.4-0.3 6.1-1.4 2.7-1.2 5-2.3 5.3-4.1 0.2-1.8-0.1-3.3 0-3.7 0.1-0.5-2.3-0.9-2.3-0.9z"/>
								<path id="&lt;Path&gt;" class="s61" d="m680.9 547.6c-1.5 3.3-12.3 9.6-15.2 11.4-2.9 1.9-2.7 3.7-2.7 5.5 0 1.5 3.1 5.4 9 4.1 5.9-1.4 8.5-5.7 11.5-6.6 3-1 10.3-2.8 10.4-8.1 0.1-5.2-1.5-11.6-1.5-11.6z"/>
								<path id="&lt;Path&gt;" class="s71" d="m706.8 587.7c-0.8 0.9-0.9 1.8-0.9 2.8 0 1 0.5 1.9 3 2.9 2.5 1.1 5.9 1.6 9.1 0.5 4.3-1.6 7.9-4.1 9.5-6.6 1.6-2.4 1.4-3.9 2.4-4.6 1-0.7 3.2-1.3 3.3-3.9 0.1-2.5-0.1-2.7-0.3-3.2-0.3-0.8-1.6-0.5-2.7-0.3-1.1 0.3-23.4 12.4-23.4 12.4z"/>
								<path id="&lt;Path&gt;" class="s72" d="m720.8 566.2c-2.3 2.4-2.8 0.1-3.7 3.5-1.9 7.6-8.9 11.1-10.3 15.1-0.5 1.8-0.6 2.1-0.5 4.2 0.1 0.8 0.6 1.6 1.4 1.9 5.3 2.5 8.9 1.6 8.9 1.6 0 0 2.8-1 5.7-3 2.6-1.7 5.2-4.1 6.2-7.1 0.5-1.3 0.6-1.4 1.4-1.8 1.2-0.9 3-1.2 3-4.3-0.1-3.7-0.5-10.8-1.2-12.7-0.4-1.2-5-1.8-5-1.8z"/>
								<path id="&lt;Path&gt;" class="s65" d="m673.5 439.7c-1.1 13.3-1.1 9.3-0.4 24.9 0.7 15.7 1.8 47.4 2.7 49.8 1 2.5 7.7 6.8 12.7 4.7 4.9-2.2 5.9-5.1 7.1-11.6 1.3-6.5 2.4-52.2 2.4-52.2z"/>
								<path id="&lt;Path&gt;" class="s65" d="m675.8 514.4c3.5 12.3 3.6 33.8 4.2 36.2 0.7 2.5 13.7 3.8 14.1-3.1 2.9-14.5 3.8-36.7 1.7-42.2-2-5.6-20 9.1-20 9.1z"/>
								<path id="&lt;Path&gt;" class="s64" d="m684.2 454.4c-0.1 7.9 0.6 17.5 2.1 20.2 1.5 2.7 6.8 3 8.8 7.1 2 4.1 9.4 40.2 11.2 43.8 1.8 3.6 8 2.7 9.8 1.7 1.9-1 5.4-6.3 6.4-10.8 1.1-4.6 1.6-24.7 2-36.7 0.4-11.9-6-36.3-10.3-39.1-4.3-2.7-30 13.8-30 13.8z"/>
								<path id="&lt;Path&gt;" class="s64" d="m705.9 512.4c0 0-2.3 5.5 0 12.3 2.4 6.8 6.3 11.6 8.6 27.8 2.3 16.2 2.3 16.2 2.3 16.2 0 0 2.6 3.7 10.4 0.7 4.3-1.7 4.4-4.5 4.4-4.5 0 0 2.6-21.6-1.8-35-4.5-13.4-10.9-24.2-10.9-24.2z"/>
								<path id="&lt;Path&gt;" class="s73" d="m678.4 376.5c13.9 2.7 27.4 10.2 28.4 11.1 2.9 2.8 3.1 35.8 6 44.7 2.9 8.9 4.3 10.5 4.7 13.4 0.3 3.3-3.9 9.4-16.7 11.9-12.9 2.6-28.1-3.7-28-10.6 0-1.4-1.2-16.9-4.7-22.9-3.5-6.1-6.9-17.9-8.2-27.3-1.3-9.5 2.7-13 6.4-16.2 3.7-3.2 3.9-4.5 12.1-4.1z"/>
								<path id="&lt;Path&gt;" class="s69" d="m680 367.4c0.8 5.1 2.1 10.2 6.1 12 2 1.4 2.7 6.1-1.1 10.7-3.9 4.6-6.3 4.8-9.3 4.5-3.1-0.3-5.3-5.8-8.3-8.5-2.9-2.8-2-17.9 3.9-20.4 6-2.6 8.7 1.7 8.7 1.7z"/>
								<path id="&lt;Path&gt;" class="s17" d="m683.9 377.8c2.3 2.5 1.6 7.2 0 10.4-1.5 3.1-6.4 5.4-7.7 5.8 0 0.7 0 0.7 0 0.7l1.6 4.4c0 0 5.8-0.3 9.9-5.3 4.2-5.1 2.8-11.1 1.6-12.9-1.1-1.8-3.9-3.3-4.8-3.7-0.9-0.4-1.1 0-1.1 0z"/>
								<path id="&lt;Path&gt;" class="s17" d="m677.1 394.1l-0.9-0.1c0 0-3.6-0.3-5.5-4.4-2.8 0.8-0.9 7.1 3.7 9.1 1.2-2.5 1.8-4 1.8-4z"/>
								<path id="&lt;Path&gt;" class="s69" d="m673.2 370.8c4.1 7.6 6.8 10.7 6.9 12.5 0.4 4-8 10.1-9.5 10.7-1.6 0.6-5.6-0.4-7.4-2.1-1.8-1.8-10.6-11.1-13.6-19.8-1.7-5-1.9-8.1 0.5-9.7 2.8-1.9 9.9-1.1 12.7-0.8 2.7 0.3 10.4 9.2 10.4 9.2z"/>
								<path id="&lt;Path&gt;" class="s74" d="m652.2 370c7.4 2.2 12.5 0.8 12.5 0.8 0 0 0.9 2.2 1.4 2.9 0.6 0.8 3.4 0.2 4.1 1.3 0.7 1.1 1.6 2.7 1.6 2.7l2.6-1.6c0 0-0.8-6.2 2.1-7.4 4.9-1.9 1.4 4.8 5.7 6.7 0.6-7 1.8-11.5 0.4-17.1-1.3-5.7-5.1-13.5-13.1-13-14.1-4.1-23.3 5.9-24.9 10.3-1.5 4.4 0.5 8.9 3.8 12 1.6 1.5 3.8 2.4 3.8 2.4z"/>
								<path id="&lt;Path&gt;" class="s69" d="m676.6 372.2c-2.1-1.5-1.3-4.3 1-4.6 2.3-0.3 2.2 2.7 2 5-0.2 2.3-1 4.2-2.4 3.5-0.9-1.8-0.6-3.9-0.6-3.9z"/>
								<path id="&lt;Path&gt;" class="s69" d="m698.6 415.3c0 0 0.2 11.9 1.3 20.5 1 8.7 3.6 13 6 13.8 2.3 0.9 6.5-2.2 7.2-7.1 0.7-4.8 1.7-19.8 0-27.8-1.8-8.1-14.5 0.6-14.5 0.6z"/>
								<path id="&lt;Path&gt;" class="s17" d="m700.5 388.2c-5.6 3-6.7 9-5.9 14.3 0.8 5.4 3 18.1 3 18.1 4.1 2.9 11.2 1.6 14.8-0.5 2.1-1.3 2.5-2.6 2.5-2.6 0 0-2.6-19.9-4.2-24.9-1.7-5-6.1-6.3-6.1-6.3 0 0-2.2 0.5-4.1 1.9z"/>
							</g>
							<g id="&lt;Group&gt;">
								<g id="&lt;Group&gt;">
									<path id="&lt;Path&gt;" class="s75" d="m627.1 464.3c-1.4 2.4-1.4 4.9 0 5.6 1.3 0.8 3.5-0.5 4.9-2.8 1.3-2.3 1.3-4.8 0-5.6-1.4-0.8-3.6 0.5-4.9 2.8z"/>
									<path id="&lt;Path&gt;" class="s76" d="m632 461.5l25.5 14.8-4.9 8.4-25.5-14.8z"/>
									<path id="&lt;Path&gt;" class="s77" d="m652.6 479.1c-1.3 2.3-1.3 4.8 0 5.6 1.4 0.8 3.6-0.5 4.9-2.8 1.4-2.4 1.4-4.9 0-5.6-1.3-0.8-3.5 0.4-4.9 2.8z"/>
								</g>
								<g id="&lt;Group&gt;">
									<g id="&lt;Group&gt;">
										<path id="&lt;Path&gt;" class="s78" d="m697.9 544.1l-33.7 19.4h-7.7l-33.6-19.4v-4.5l33.6-19.4h7.7l33.7 19.4z"/>
										<path id="&lt;Path&gt;" class="s79" d="m660.4 533.2q0 0 0 0h-14.1v8.1c0 1.9 1.2 3.7 3.7 5.1l1.6 0.9c4.8 2.8 12.7 2.8 17.6 0l1.6-0.9c2.4-1.4 3.7-3.2 3.7-5.1v-8.1z"/>
										<path id="&lt;Path&gt;" class="s79" d="m670.8 538.3l-1.6 0.9c-4.9 2.8-12.8 2.8-17.6 0l-1.6-0.9c-4.9-2.8-4.9-7.4 0-10.2l1.6-0.9c4.8-2.8 12.7-2.8 17.6 0l1.6 0.9c4.9 2.8 4.9 7.4 0 10.2z"/>
										<path id="&lt;Path&gt;" class="s80" d="m667.5 535.4l-3.3 1.9c-2.1 1.3-5.6 1.3-7.7 0l-3.3-1.9c-2.1-1.2-2.1-3.2 0-4.4l3.3-1.9c2.1-1.3 5.6-1.3 7.7 0l3.3 1.9c2.2 1.2 2.2 3.2 0 4.4z"/>
										<path id="&lt;Path&gt;" class="s81" d="m651.6 533.2v-54.9h17.6v54.9z"/>
										<path id="&lt;Path&gt;" class="s82" d="m667.5 480.6l-3.3 1.9c-2.1 1.2-5.6 1.2-7.7 0l-3.3-1.9c-2.1-1.3-2.1-3.3 0-4.5l3.3-1.9c2.1-1.2 5.6-1.2 7.7 0l3.3 1.9c2.2 1.2 2.2 3.2 0 4.5z"/>
									</g>
									<path id="&lt;Path&gt;" class="s83" d="m588.9 552.1v45.1l33.6 19.4v-45.1z"/>
									<path id="&lt;Path&gt;" class="s84" d="m697.9 544.1v45.1l-33.7 19.4v-45.1z"/>
									<path id="&lt;Path&gt;" class="s78" d="m656.5 563.5h7.7v45.1h-7.7z"/>
								</g>
								<g id="&lt;Group&gt;">
									<path id="&lt;Path&gt;" class="s85" d="m663.7 485.4c-1.4 2.4-1.4 4.9 0 5.7 1.3 0.7 3.5-0.5 4.8-2.9 1.4-2.3 1.4-4.8 0-5.6-1.3-0.7-3.5 0.5-4.8 2.8z"/>
									<path id="&lt;Path&gt;" class="s86" d="m668.5 482.6l25.6 14.8-4.9 8.4-25.5-14.7z"/>
									<path id="&lt;Path&gt;" class="s87" d="m689.2 500.2c-1.4 2.3-1.4 4.8 0 5.6 1.3 0.8 3.5-0.5 4.9-2.8 1.3-2.3 1.3-4.9 0-5.6-1.4-0.8-3.6 0.5-4.9 2.8z"/>
								</g>
							</g>
							<path id="&lt;Path&gt;" class="s69" d="m651.4 421.4c-1.4 0-5.1-1.1-6.1 0.2-1 1.3-3.1 7-4.6 18.6-1.6 11.5-3.6 19.6-4 21-0.3 1.3-3.8 5.6-4.1 7.1-0.4 1.4-0.9 4.9-0.8 5.8 0.2 0.9 1.3 1.6 1.3 1.6 0 0 0.4 1.7 0.9 2 0.5 0.4 1.6 0.7 1.6 0.7l2.1 1.8c0 0 5.6 1 6.7 0.9 1.2-0.1 1-1.7 0.1-2.1-0.8-0.5-2.6-1.3-2.6-1.3 0 0-0.4-4.9 0-5.9 0.3-0.9 2-1.9 2-1.9 0 0 0.6-0.1 1.5 1 1 1.1 2.7 1.9 3.3 1.9 1.3 0.1 2.4-0.6 1.5-1.7-0.8-1.1-1.2-1.8-2.1-3.4-0.8-1.5-1.7-1.7-1.9-4.2-0.2-2.5-0.8-4.4-0.8-4.4 0 0 12.1-30.3 12.4-35.3-1.2-2.8-6.4-2.4-6.4-2.4z"/>
							<path id="&lt;Path&gt;" class="s69" d="m704.7 439.7c0 0-2.6-0.8-3.9 1.4-1.3 2.1-18.7 38.8-21.3 40.3-2.5 1.4-7.8 4.7-8.2 5.6-0.5 0.9-3.6 6.8-3.6 8.2 0 1.5 2.2 2.4 2.2 2.4 0 0 0.5 2 1.2 2.3 0.7 0.2 1.8 0 1.8 0 0 0 1.5 1 2.2 0.8 0.8-0.1 3.3 1 4.4 0.1 1.1-0.9 0.6-0.7 0.6-0.7 0 0-0.7-2.3-0.6-3.1 0.6-4.6 4.4-3.6 5.5-5.4 1.1-1.9 1.6-5.6 1.9-6.1 0.2-0.6 26.7-31.5 25.9-41.5-0.9-10-8.1-4.3-8.1-4.3z"/>
						</g>
						<g id="&lt;Group&gt;">
							<g id="&lt;Group&gt;">
								<g id="&lt;Group&gt;">
									<g id="&lt;Group&gt;">
										<g id="&lt;Group&gt;">
											<path id="&lt;Path&gt;" class="s88" d="m547.7 176.7l-2.5-1.4 7.5 7 2.6 1.5z"/>
										</g>
										<g id="&lt;Group&gt;">
											<path id="&lt;Path&gt;" class="s88" d="m547.6 137.1l-2.5-1.5 0.1 39.7 2.5 1.4z"/>
										</g>
										<g id="&lt;Group&gt;">
											<path id="&lt;Path&gt;" class="s89" d="m564.5 140.4l-2.5-1.5c-7-4.1-16.2-3.4-16.9-3.3l2.5 1.5c0.7-0.1 9.9-0.8 16.9 3.3z"/>
										</g>
										<g id="&lt;Group&gt;">
											<path id="&lt;Path&gt;" class="s83" d="m547.6 137.1l0.1 39.6 7.6 7.1 20.1 1.2c0-0.9-0.4-18.3-3.3-34-3-15.7-23.4-14-24.5-13.9z"/>
										</g>
									</g>
								</g>
								<g id="&lt;Group&gt;">
									<g id="&lt;Group&gt;">
										<g id="&lt;Group&gt;">
											<path id="&lt;Path&gt;" class="s90" d="m488.8 176.7l2.6-1.4-7.6 7-2.6 1.5z"/>
										</g>
										<g id="&lt;Group&gt;">
											<path id="&lt;Path&gt;" class="s90" d="m488.9 137.1l2.6-1.5-0.1 39.7-2.6 1.4z"/>
										</g>
										<g id="&lt;Group&gt;">
											<path id="&lt;Path&gt;" class="s89" d="m472 140.4l2.5-1.5c7-4.1 16.2-3.4 17-3.3l-2.6 1.5c-0.7-0.1-9.9-0.8-16.9 3.3z"/>
										</g>
										<g id="&lt;Group&gt;">
											<path id="&lt;Path&gt;" class="s83" d="m488.9 137.1l-0.1 39.6-7.6 7.1-20.1 1.2c0-0.9 0.4-18.3 3.3-34 3-15.7 23.4-14 24.5-13.9z"/>
										</g>
										<path id="&lt;Mesh&gt;" class="s91" d="m489.9 260.5c0 27.1 11.8 50.9 20.6 64.8 5.1 8.1 9.1 12.9 9.2 13 0-35.6-0.3-47.3-0.2-82.9-8.1 0.2-28.9-12.9-27.7-20.4-1.2 7.5-1.9 16-1.9 25.5zm1.9-25.5c-1.2 7.5 19.6 20.6 27.7 20.4 0-5.1 0-12.4 0-20.2-7.6 0.2-24.8-8.4-25.1-12.5q-1.6 5.6-2.6 12.3zm2.6-12.3c0.3 4.1 17.5 12.7 25.1 12.5 0-16.1 0-34.6 0-40.6-6.1 0-11.8 3.3-16.6 9.7-3.4 4.6-6.3 10.7-8.5 18.4zm25.3 115.6c0-0.1 1.6-2 1.7-2.1 6.8-31.6 12.5-51.5 10.4-84.8-4.3 2.4-8.8 3.9-12.3 4-0.1 35.6 0.2 47.3 0.2 82.9zm-0.2-82.9c3.5-0.1 8-1.6 12.3-4-0.3-4.8-0.6-12-1.1-18.6-3.8 1.5-7.8 2.3-11.2 2.4 0 7.8 0 15.1 0 20.2zm0-20.2c3.4-0.1 7.4-0.9 11.2-2.4-1.1-13.5-2.1-31.2-3.6-36.5-2.3-1.1-4.9-1.8-7.6-1.7 0 6 0 24.5 0 40.6zm1.9 101c0.8-1.1 2-2.7 3.4-4.7 12.3-28.5 21.1-56.3 17.3-87.9-3 3.1-6.6 5.8-10.3 7.8 2.1 33.3-3.6 53.2-10.4 84.8zm10.4-84.8c3.7-2 7.3-4.7 10.3-7.8-0.6-4.5-1.4-10-2.3-15.5-2.6 1.9-5.8 3.5-9.1 4.7 0.5 6.6 0.8 13.8 1.1 18.6zm-1.1-18.6c3.3-1.2 6.5-2.8 9.1-4.7-1.9-11.5-4.5-23.3-7.2-28.2-1.7-1.4-3.5-2.7-5.5-3.6 1.5 5.3 2.5 23 3.6 36.5zm-5.9 98.7c1.3-1.8 2.7-3.8 4.1-6.2 8.8-13.9 20.6-37.7 20.6-64.8 0-9.5-0.6-18-1.8-25.5-1.1 3-3.1 5.9-5.6 8.6 3.8 31.6-5 59.4-17.3 87.9zm17.3-87.9c2.5-2.7 4.5-5.6 5.6-8.6q-1.1-6.7-2.7-12.3c-1.1 1.9-2.9 3.7-5.2 5.4 0.9 5.5 1.7 11 2.3 15.5zm-2.3-15.5c2.3-1.7 4.1-3.5 5.2-5.4-2.2-7.7-5.1-13.8-8.5-18.4-1.2-1.6-2.5-3.1-3.9-4.4 2.7 4.9 5.3 16.7 7.2 28.2z"/>
									</g>
								</g>
								<path id="&lt;Path&gt;" class="s92" d="m558.3 156.4v1.1c0 0.9 0 1.7 0 2.2v0.5c-0.1 2-0.2 4.7-0.4 7.8q0 0 0 0c-0.1 0.9-0.2 1.8-0.2 2.8q-0.1 1.1-0.2 2.1c-0.3 2.9-0.7 6.8-1.3 11.5v0.1c-0.9 7-1.7 12.7-2.2 15.5 0 0.1-0.1 0.2-0.1 0.2q0 0.2-0.1 0.4c0 0.2 0 0.3-0.1 0.5q0 0.2-0.1 0.4 0 0.2-0.1 0.5-0.1 0.2-0.2 0.4-0.1 0.3-0.2 0.5c-0.1 0.2-0.1 0.2-0.2 0.4q-0.1 0.3-0.3 0.6 0 0.1-0.1 0.2c-0.2 0.3-0.3 0.6-0.5 0.9 0 0.1-0.1 0.1-0.1 0.1q-0.2 0.4-0.5 0.7c-0.1 0.2-0.2 0.3-0.2 0.3q-0.3 0.3-0.4 0.6c-0.1 0.1-0.3 0.2-0.3 0.3-0.2 0.2-0.3 0.4-0.5 0.5l-0.3 0.3c-0.2 0.2-0.3 0.4-0.5 0.5q-0.2 0.2-0.3 0.4-0.3 0.2-0.6 0.4c-0.1 0.1-0.2 0.2-0.4 0.3q-0.2 0.3-0.5 0.5c-0.2 0.1-0.3 0.2-0.4 0.3q-0.3 0.2-0.6 0.5-0.2 0.1-0.5 0.2-0.3 0.3-0.7 0.5-0.2 0.1-0.3 0.3-0.6 0.3-1.2 0.7c-11.7 6.4-29.3 7.2-42.2 2.3q-3.2-1.2-5.9-2.8-0.6-0.4-1.1-0.7c-0.1-0.1-0.3-0.2-0.3-0.3q-0.4-0.2-0.8-0.5-0.2-0.1-0.3-0.2-0.3-0.2-0.6-0.5-0.2-0.1-0.4-0.3c-0.2-0.2-0.4-0.3-0.5-0.5-0.2-0.1-0.3-0.1-0.3-0.2l-0.7-0.7q-0.1-0.1-0.2-0.1-0.3-0.4-0.7-0.8-0.1-0.1-0.2-0.3c-0.1-0.1-0.3-0.4-0.5-0.5 0-0.2-0.1-0.2-0.2-0.3q-0.2-0.3-0.4-0.6-0.1-0.1-0.1-0.3-0.2-0.3-0.4-0.5-0.1-0.2-0.2-0.3-0.1-0.4-0.3-0.6 0-0.2-0.1-0.3-0.2-0.4-0.4-0.9c0 0 0 0 0-0.1q-0.1-0.3-0.3-0.7 0-0.2 0-0.3c-0.1-0.2-0.2-0.4-0.2-0.6 0-0.1-0.1-0.2-0.1-0.3 0-0.1 0-0.2 0-0.3-0.1-0.3-0.1-0.7-0.2-1-0.1-1-0.3-2.1-0.5-3.5q-0.1-0.4-0.1-0.4c-0.3-1.8-0.6-3.9-1-6.6 0-0.1 0-0.2 0-0.3q-0.1-0.4-0.1-0.7-0.1-0.6-0.2-1.3 0 0 0-0.1-0.1-0.8-0.2-1.7 0 0 0 0c-1-6.8-1.5-12.2-1.8-16.5q0-0.2 0-0.5c-0.1-0.9-0.2-1.7-0.2-2.2-0.1-2.3-0.1-2.3-0.3-5.5 0-0.2 0-0.7 0-1.8v-1.6c0-1.6 0-3.7 0-6.7v-2.3c0-2.5 0-4.7 0-5.6v-0.6c0-3.4 0-6.4 0.1-10.1q0-2 0.1-4.1 0-0.8 0-1.7c0.2-7.9 0.6-15.8 0.7-17.5 0.1-2.8 0.4-6.4 0.6-9.2q0 0 0.1-0.1c0.2-2.7 0.4-5.7 0.7-8.8v-0.1c0-0.1 0.1-0.2 0.1-0.3 0-0.5 0.1-1 0.1-1.5q0.5-4.1 0.9-7.3v-0.1c0.1-1 0.3-2.1 0.5-3.3 0.4-2.8 0.7-4.6 0.8-5.5 0.4-2.8 1.2-6.6 1.7-9.4 0.5-2.2 1.1-5 1.7-7.3 0-0.1 0-0.2 0-0.2 0.2-0.9 0.4-1.8 0.7-2.8 0.5-1.9 1-3.9 1.6-5.8 0-0.1 0-0.1 0-0.2 0.5-1.7 1.3-4.1 2.1-6.5q0.4-1.2 0.8-2.4c0.1 0 0.1 0 0.1 0 1-2.8 2-5.4 2.6-6.8q0.2-0.3 0.3-0.6c0.2-0.6 0.5-1.1 0.7-1.6 0.7-1.6 1.7-3.6 2.5-5.2q0.1-0.1 0.1-0.1c0.2-0.4 0.3-0.7 0.5-1 0.3-0.5 0.7-1.2 1-1.8 1.1-1.9 2.4-4 3.7-5.9 0.1-0.3 0.3-0.5 0.5-0.8 0.8-1.3 2.2-3 3.2-4.3 0.6-0.7 1.3-1.5 2-2.2 0.6-0.7 1.2-1.4 1.8-2 0.4-0.3 0.8-0.8 1.3-1.2 0.1-0.1 0.2-0.2 0.3-0.3 0.5-0.5 1.3-1.1 2-1.7 0.7-0.5 1.4-1 2-1.4q0 0 0.1 0c0.8 0.6 1.5 1.1 2.3 1.8 0.5 0.4 1.1 0.9 1.6 1.3 0.1 0.1 0.1 0.2 0.2 0.2q0.7 0.7 1.4 1.3c0.5 0.6 1.2 1.2 1.8 1.9 0.7 0.8 1.4 1.6 2 2.3 1 1.2 2.3 2.9 3.2 4.3q0.3 0.3 0.6 0.8c1.2 1.7 2.4 3.7 3.5 5.6q0.6 1 1.2 2 0.2 0.5 0.4 1c0.1 0 0.1 0 0.1 0.1 0.9 1.6 1.9 3.6 2.6 5.2 0.2 0.5 0.4 1 0.6 1.6q0.2 0.3 0.4 0.6c0.6 1.4 1.6 4 2.6 6.7q0.1 0.1 0.1 0.1 0.4 1.1 0.8 2.3c0.9 2.5 1.6 4.8 2.1 6.6 0 0 0.1 0.1 0.1 0.1q0.9 3 1.6 5.8c0.3 1 0.5 1.9 0.7 2.8q0.1 0.1 0.1 0.2c0.5 2.3 1.2 5.2 1.6 7.3 0.6 2.9 1.4 6.6 1.8 9.4q0.5 2.7 0.8 5.2c0.3 1.3 0.4 2.5 0.6 3.6v0.1c0.4 3.1 0.7 5.8 0.9 7.6q0.1 0.6 0.1 1.2 0.1 0.1 0.1 0.2 0 0.1 0 0.2c0.3 3.1 0.6 6.1 0.8 8.8 0 0.1 0.1 0.1 0.1 0.1 0.2 2.8 0.5 6.4 0.6 9.2 0.1 1.7 0.6 9.6 0.8 17.5 0 0.5 0 1 0 1.5q0.1 2.2 0.2 4.3c0 3.7 0.1 6.7 0.1 10.1v0.6c0 1 0 3.4 0.1 5.9v1.9c0 1.3 0 4.3 0 6.9z"/>
								<g id="&lt;Group&gt;">
									<g id="&lt;Group&gt;">
										<g id="&lt;Group&gt;">
											<path id="&lt;Path&gt;" class="s83" d="m543.2 168.5l2.6-1.5c1.1 1.1 21.5 23.1 24.3 42.1 2.8 19 3.1 36.7 3.1 37.6l-2.5 1.5c0-0.9-0.3-18.6-3.2-37.6-2.8-19.1-23.2-41-24.3-42.1z"/>
										</g>
										<g id="&lt;Group&gt;">
											<path id="&lt;Path&gt;" class="s83" d="m543.2 168.5c1.1 1.1 21.5 23 24.3 42.1 2.9 19 3.2 36.7 3.2 37.6l-20.1-24.3-7.5-15.8z"/>
										</g>
									</g>
								</g>
								<g id="&lt;Group&gt;">
									<g id="&lt;Group&gt;">
										<g id="&lt;Group&gt;">
											<path id="&lt;Path&gt;" class="s83" d="m493.3 168.5l-2.6-1.5c-1.1 1.1-21.5 23.1-24.3 42.1-2.8 19-3.1 36.7-3.1 37.6l2.5 1.5c0.1-0.9 0.3-18.6 3.2-37.6 2.8-19.1 23.2-41 24.3-42.1z"/>
										</g>
										<g id="&lt;Group&gt;">
											<path id="&lt;Path&gt;" class="s83" d="m493.3 168.5c-1.1 1.1-21.5 23-24.3 42.1-2.9 19-3.1 36.7-3.2 37.6l20.1-24.3 7.5-15.8z"/>
										</g>
									</g>
								</g>
							</g>
						</g>
					</g>
				</g>
				<path id="&lt;Path&gt;" class="s25" d="m270.2 725.1c-1.4 6-13.4 8.5-27.1 5.5-13.6-3-23.5-10.3-22.2-16.2 1.3-6 13.4-8.5 27-5.5 13.6 3 23.6 10.3 22.3 16.2z"/>
				<g id="&lt;Group&gt;">
					<g id="&lt;Group&gt;">
						<path id="&lt;Path&gt;" class="s62" d="m257.2 558.2c2.7-2.2 11.4-9.7 12.2-9.9 0.8-0.2 3-0.1 4.8-1.2 1.7-1.2 2.3-2.2 2.3-2.2 0 0 4.5-2.9 5.2-3.6 0.7-0.7 0.4-2 0.4-2 0 0 0.6-0.6 0.5-1.3 0-0.7-0.6-2-0.6-2 0 0-0.4-2.5-3-1.5-2.6 1.1-6.4 2.2-7.2 3.2-0.8 1-5.3 4.5-5.3 4.5l-18 9.4z"/>
						<g id="&lt;Group&gt;">
							<g id="&lt;Group&gt;">
								<g id="&lt;Clip Group&gt;">
									<g id="&lt;Group&gt;">
										<path id="&lt;Path&gt;" class="s93" d="m285.9 520.8l1.2 0.4q0.2 0 0.3 0.1l-1.2-0.3q-0.1-0.1-0.3-0.2z"/>
									</g>
								</g>
								<g id="&lt;Clip Group&gt;">
									<g id="&lt;Group&gt;">
										<path id="&lt;Path&gt;" class="s93" d="m295.3 564.3l1.2 0.4c-0.4 0.9-1.3 1.3-2 1.1l-1.2-0.4c0.7 0.2 1.5-0.2 2-1.1z"/>
									</g>
								</g>
								<g id="&lt;Group&gt;">
									<path id="&lt;Path&gt;" class="s93" d="m286.2 521l1.2 0.3 21.9 12.7-1.2-0.4z"/>
								</g>
								<g id="&lt;Group&gt;">
									<path id="&lt;Path&gt;" class="s93" d="m308.6 536.2l1.2 0.3-13.3 28.2-1.2-0.4z"/>
								</g>
								<g id="&lt;Clip Group&gt;">
									<g id="&lt;Group&gt;">
										<path id="&lt;Path&gt;" class="s93" d="m308.1 533.6l1.2 0.4c0.8 0.4 1 1.6 0.5 2.5l-1.2-0.3c0.5-1 0.2-2.2-0.5-2.6z"/>
									</g>
								</g>
								<g id="&lt;Group&gt;">
									<path id="&lt;Path&gt;" class="s94" d="m308.1 533.6c0.7 0.4 1 1.6 0.5 2.6l-13.3 28.1c-0.5 1-1.5 1.5-2.3 1l-21.9-12.6c-0.7-0.5-1-1.6-0.5-2.6l13.4-28.2c0.4-0.9 1.4-1.4 2.2-0.9z"/>
								</g>
								<g id="&lt;Group&gt;">
									<path id="&lt;Path&gt;" class="s95" d="m306.5 534.4c0.7 0.4 0.9 1.5 0.5 2.4l-12.2 25.8c-0.4 0.8-1.4 1.2-2.1 0.8l-20-11.5c-0.7-0.4-0.9-1.5-0.5-2.4l12.2-25.8c0.5-0.9 1.4-1.3 2.1-0.9z"/>
								</g>
							</g>
						</g>
						<path id="&lt;Path&gt;" class="s70" d="m235.1 541.5c-9-4.1-14-2.5-16.3 0.2-2.4 2.7-3.5 8.6-1 14.4 2.5 5.9 17.3-14.6 17.3-14.6z"/>
						<path id="&lt;Path&gt;" class="s96" d="m246.7 713.4l0.5 0.6c0 0-0.1 1.9-0.6 2.8-0.6 0.8-2.4 1.1-6.6 1-4.2 0-6.1-2.9-6.6-4.3-0.9-2.7-2.9-3-2.9-3l-3.4-2.6c0 0-0.9-1.9-0.6-2.9 0.2-1 4.1-1 4.1-1l5.5 6.2z"/>
						<path id="&lt;Path&gt;" class="s96" d="m226.8 716.6c0 0 0.4 0.5 0.9 0.6 0.8 0.2 1.6-0.1 1.8-0.6 0.2-0.7 0.4-5.1 1-5.5 0.7-0.5 1.8 0.5 1.8 0.5 0 0-1.9-5.8-3.4-6.2-1.5-0.5-2.3 1-2.3 1 0 0 0.3 1.1 0.3 2.7-0.1 1.2-0.2 7.2-0.1 7.5z"/>
						<path id="&lt;Path&gt;" class="s96" d="m240.6 708.6c0 0 2.8 1.8 4.4 2.2 1.5 0.4 2.4 1.6 2.3 3-0.2 1.4-2.1 2-4.4 2.6-2.4 0.6-5.7 0.8-7.9-3.6-2.3-4.5-4.3-7.6-5.8-7.8-1.5-0.2-2.7 0-2.7 0 0 0-0.3-5.2 2.8-4.6 3.1 0.6 4.9 1.3 4.9 1.3z"/>
						<path id="&lt;Path&gt;" class="s97" d="m239.9 693.3c-0.6 3.5-2.2 10.4 3.1 14 2 2.3 1.1 5.2-1.2 4.5-0.9-0.3-1.6-1.2-2.2-2.3-1.1-1.7-2-3.9-3.7-4.7-4.7-2.3-7.1-2-6.7-3.7 0.4-1.8-0.2-16.5 0-30.3 0.2-13.9 4.8-18.9 4.4-21.9-0.2-1.5-1.7-7.5-3.2-14.3-1.4-6.5-2.8-13.7-3.1-18.9-0.5-8.1-2.8-19.1 18.1-22.6 0 0 6.6 18.5 4.2 34.8-2.4 16.2-8.9 61.2-9.7 65.4z"/>
						<path id="&lt;Path&gt;" class="s98" d="m242.5 656.7c-4.4 3.5-1.1 6-3.2 13.1-2.1 7.2-4.3 29.8-2.5 32.6 1.6 2.5 2.1 3.1 2.8 7.1-1.1-1.7-2-3.9-3.7-4.7-4.7-2.3-7.1-2-6.7-3.7 0.4-1.8-0.2-16.5 0-30.3 0.2-13.9 4.8-18.9 4.4-21.9-0.2-1.5-1.7-7.5-3.2-14.3 4.8 0.1 9.4 2.7 11.6 3.5 4.2 1.6 4.9 15.2 0.5 18.6z"/>
						<path id="&lt;Path&gt;" class="s96" d="m262.8 720.2c0 0 4.2-2 4-0.9-0.1 1.1-0.8 2.6-1.3 3.2-0.4 0.5-5.4 2.4-8.9 2.1-3.5-0.3-4.2-1.5-5.4-2.9-1.2-1.5-2.4-2.9-3.1-2.9-0.8 0-4.3 0.7-6.3-0.7-2.1-1.4-2-3.2-2-3.2l4.5 0.7 8.6 3.5z"/>
						<path id="&lt;Path&gt;" class="s96" d="m247.4 717.9c0 0-1.2 2-1.3 2.4-0.2 0.5-0.3 4.4-0.3 4.7 0 0.2-1.3 0.4-1.8 0.3-0.7-0.1-0.7-0.5-0.7-0.5 0 0-0.6-5.4-1.2-6.3-0.6-0.9-1-1.8-1-1.8 0 0 4 1.5 6.3 1.2z"/>
						<path id="&lt;Path&gt;" class="s96" d="m255.1 715.5c0 0 3-1.1 4.6-0.6 1.6 0.4 6.5 2.7 7.1 3.8 0.5 1-2.9 2.5-4.3 3.4-1.4 1-5 1.9-7.4 1.1-2.5-0.8-4.1-5.4-6.8-5.6-2.7-0.2-4.9 0.5-7.2-0.9-2.2-1.3-2.2-7.6 0-7 2.3 0.6 14 5.8 14 5.8z"/>
						<path id="&lt;Path&gt;" class="s97" d="m256.6 718.9q-0.3-0.1-0.6-0.2c-2.1-1.3-3.4-4.4-8.4-6.3-5.1-1.9-7.2 0-6.8-1.7 0.4-1.8 0.1-17.9 0.3-31.8 0.2-13.8 4.6-20.7 4.2-23.7-0.3-2.6-6-10.5-6-24.5 0-2.7 0.2-5.5 0.6-8.5 1.2-8.2-2.8-19.2 18.1-22.7 0 0 4.5 40.2 1.2 56.3-3 14.8-8.5 42.8-8 47.1 0.2 2.1-0.9 6 8 11.9 2.3 1.6-0.5 4.6-2.6 4.1z"/>
						<path id="&lt;Path&gt;" class="s98" d="m246 673.8c-0.9 4.6-1.9 33.7 0.5 35 4.2 2.1 8.4 7.3 10.1 10.1q-0.3-0.1-0.6-0.2c-2.1-1.3-3.4-4.4-8.4-6.3-5.1-1.9-7.2 0-6.8-1.7 0.4-1.8 0.1-17.9 0.3-31.8 0.2-13.8 4.6-20.7 4.2-23.7-0.3-2.6-6-10.5-6-24.5 15-10.4 19.5 5.5 18.7 9.7-4 22.3-9.4 20.3-12 33.4z"/>
						<path id="&lt;Path&gt;" class="s96" d="m268.3 646.7c0 0.4 0.8 4.8-4.3 7.7-2.2 1.2-4.1 1.9-6.2 2.2-3.2 0.4-7.1-0.2-14.1-1.5-11.6-2.3-16.6-8.5-16.6-8.5 0 0 0-8.9-2.2-28.5-1.4-12.8 1.8-20.3 4.2-24 1.3-1.9 2.3-2.8 2.3-2.8 0 0 15.8-1.6 25.8 1.2 1.6 0.5 3.1 1.1 4.3 1.9q1.6 0.9 2.5 2.1c6 7.9 4.3 49.7 4.3 50.2z"/>
						<path id="&lt;Path&gt;" class="s83" d="m257.8 656.6c-3.2 0.4-7.1-0.2-14.1-1.5-11.6-2.3-16.6-8.5-16.6-8.5 0 0 0-8.9-2.2-28.5-1.4-12.8 2.4-17.7 2.6-25.8 0.3 0.7 1.4 3.1 1.4 3.2-0.4 1.9 0.9 5.9 13.1 8.6 6.8 1.5 11.5 0.7 14.7-0.5 0 6 0.7 13 2.5 21 2.7 11.4 1.3 24.4-1.4 32z"/>
						<path id="&lt;Path&gt;" class="s83" d="m245.4 546.1c9.1 4.7 13.9 6.6 16 9.8 2 3.2 7.9 13.5 7.5 19.4-0.3 5.9-5.6 4.1-6.2 10.1-0.6 5.9 2.2 9.4 1.8 12.3-0.7 4.8-9.9 11-27.5 5.2-9.6-4-9.5-5.9-9.5-11.1 0.2-19.3-9.1-30.3-10-37.9-1-7.6 3.7-14.2 10.3-14.2 6 0 17.6 6.4 17.6 6.4z"/>
						<path id="&lt;Path&gt;" class="s62" d="m282.1 576.2c-1.1-1.2-16.4-13.6-16.4-13.6 0 0-5.8-2.1-8.4 4.3-2.6 6.4-2.8 7.9 1.8 10.9 4.6 2.9 15.9 8.8 20.6 7.9 4.7-1 5.9-5.3 5.9-5.3z"/>
						<path id="&lt;Path&gt;" class="s62" d="m275.7 581.4c-0.8-4.2-1.6-3.7 1.3-6.6 3-2.8 13.5-14.9 14.5-16.8 1-1.9 2.4-5.3 3.4-6.6 1-1.3 3.3-3 3.3-3 0 0 0.7-1.1 1.9-0.9 1.3 0.1 0.7 1.5 0.3 2-0.4 0.4-2 1.9-2 1.9 0 0-0.3 0.8-0.2 1.1 0.2 0.4 1.6 0.5 2.6 0.3 0.9-0.2 1.9-1.2 1.9-1.2 0 0 0.1-0.5 0.5-1.6 0.4-1.2 1-1.5 1-1.5 0 0 1.2 2.4 1.5 3 0.2 0.6-0.2 1.5-0.2 1.5 0 0 0.3 0.7 0.2 1.3-0.1 0.5-1.1 2.3-1.1 2.3 0 0-0.6 1.6-1 2.2-0.3 0.6-1.4 1.9-2.1 2.5-0.8 0.6-2.5 0.8-3.2 1.2-0.7 0.4-3.6 1.3-3.7 1.7-0.2 0.3-5 11.6-8 16-3 4.4-5.9 5.2-5.9 5.2z"/>
						<path id="&lt;Path&gt;" class="s62" d="m269.7 544.9c3.6 0.6 4.3-2.8 4.6-3.4 0.2-0.6 2.4-2.1 3.4-2.2 1-0.1 2.4-0.4 2.6-2-0.5-0.4-1.2-0.1-1.2-0.1 0 0-2.6 0.5-3.1 0.6-0.4 0-3.1 1-3.9 1.6-0.8 0.6-2.9 1.7-3.4 2.6-0.5 0.9-1.1 2.7 1 2.9z"/>
						<path id="&lt;Path&gt;" class="s62" d="m231.1 527.8c1.1 2 0.6 11.8-0.5 13-1.2 1.2-2.9 2-2.9 2 0 0 0.5 2.1 7.1 3.7 6.6 1.7 12.3 0.5 12.3 0.5 0 0 0.5-8.5 1.1-9 0.7-0.5 0.8 0.8 4.1-0.7 3.3-1.5 4.5-10.5 4.8-11.7 0.3-1.2 0.1-13-2.2-14.9-2.3-2-12.6-1.9-12.6-1.9z"/>
						<path id="&lt;Path&gt;" class="s62" d="m250.5 527.2c0.1-1.7 0.4-2.8-0.6-2.9-1 0-2.2 1.4-1.9 3.7 0.3 2.2 1.6 4.8 1.9 3 0.4-1.8 0.6-3.8 0.6-3.8z"/>
						<path id="&lt;Path&gt;" class="s67" d="m252.3 529.4c0.5-0.9 2.2-4 2.2-6.5-0.1-2.4 0.6-4 0.6-4 0 0 1.1-4.6 0.4-8.3-0.8-3.6-7.3-5.2-7.3-5.2 0 0-2.8-2.3-8.5-2.5-5.7-0.2-13.7 4.9-14.4 14.7-0.8 9.9 3.2 10.1 4 12.6 0.8 2.4 1.5 3.9 2.4 4.5 0.8 0.7 0.7 1.2 4.4 1.8 3.7 0.6 5.1 0.1 5.9-1.5 0.8-1.6 3.1-4.9 4.7-5.2 1.5-0.4 2.7-4.1 3.3-4.7 0.7-0.6 2-0.1 2.3 4.3z"/>
						<path id="&lt;Path&gt;" class="s96" d="m257.1 552.2c-2.7-1-5.5 1.6-5.5 1.6 0 0-4.4 4.4-3.9 11.1 0.4 6.7 10.2 13 11.9 13.2 7.4 0.5 11.1-9.7 9.6-13.9-4.7-6.5-8.2-9.9-12.1-12z"/>
					</g>
					<g id="&lt;Group&gt;">
						<path id="&lt;Path&gt;" class="s67" d="m230.8 518.5c-4.3-3-15.2-4.5-16.6 8.1-0.9 8.2 3.8 12.5 4.5 16.7 0.9 5.6 0.5 10.5-7.5 11.3 4.6 5.6 11.7 6.7 19 1.6 13.4-9.3-5.3-25.6 0-30.7 1.5-1.5 0.6-7 0.6-7z"/>
						<path id="&lt;Path&gt;" class="s96" d="m226.8 517c3.4-0.7 5.3 6.2 3.4 8.5 2.9-0.7 3.7-2.1 3.3-5.4-0.5-3.4-3.5-4.3-6.7-3.1z"/>
					</g>
				</g>
				<path id="&lt;Mesh&gt;" class="s99" d="m478.6 591.5c-11.3 6.5-16.9 15.1-16.8 23.6 0 8.6 5.7 17.1 17.1 23.7q20.4-11.8 40.9-23.6c-15.4-8.9-29.7-17.1-41.1-23.7q-0.1 0-0.1 0zm0.1 0c11.4 6.6 25.7 14.8 41.1 23.7 15.2-8.8 29.4-17 40.8-23.6-11.4-6.5-26.2-9.8-41.1-9.8-14.8-0.1-29.6 3.2-40.8 9.7zm0.2 47.3c11.3 6.5 26.2 9.8 41 9.9 14.8 0 29.6-3.2 40.9-9.8q0 0 0.1 0c-11.5-6.6-25.8-14.9-41.1-23.7q-20.5 11.8-40.9 23.6zm40.9-23.6c15.3 8.8 29.6 17.1 41.1 23.7 11.2-6.5 16.8-15 16.8-23.6-0.1-8.5-5.8-17.1-17.1-23.7-11.4 6.6-25.6 14.8-40.8 23.6z"/>
			</g>
		</g>
	</g>
</svg>